<svg xmlns="http://www.w3.org/2000/svg" xmlns:xlink="http://www.w3.org/1999/xlink" width="2000" zoomAndPan="magnify" viewBox="0 0 1500 1499.999933" height="2000" preserveAspectRatio="xMidYMid meet" version="1.0"><defs><g/><clipPath id="83073f5b27"><rect x="0" width="1347" y="0" height="634"/></clipPath></defs><g transform="matrix(1, 0, 0, 1, 79, 433)"><g clip-path="url(#83073f5b27)"><g fill="#ffffff" fill-opacity="1"><g transform="translate(1.341941, 177.878007)"><g><path d="M 91.171875 5.265625 C 73.941406 5.265625 58.984375 1.554688 46.296875 -5.859375 C 33.617188 -13.273438 23.847656 -23.765625 16.984375 -37.328125 C 10.128906 -50.890625 6.703125 -66.84375 6.703125 -85.1875 C 6.703125 -103.695312 9.929688 -119.726562 16.390625 -133.28125 C 22.847656 -146.84375 32.0625 -157.289062 44.03125 -164.625 C 56 -171.96875 70.195312 -175.640625 86.625 -175.640625 C 99.863281 -175.640625 111.628906 -173.046875 121.921875 -167.859375 C 132.210938 -162.679688 140.628906 -155.265625 147.171875 -145.609375 C 153.710938 -135.960938 157.859375 -124.4375 159.609375 -111.03125 L 121.796875 -103.609375 C 119.890625 -115.253906 115.90625 -124.347656 109.84375 -130.890625 C 103.78125 -137.429688 96.039062 -140.703125 86.625 -140.703125 C 74.65625 -140.703125 65.160156 -135.71875 58.140625 -125.75 C 51.128906 -115.78125 47.625 -102.257812 47.625 -85.1875 C 47.625 -68.28125 51.570312 -54.878906 59.46875 -44.984375 C 67.363281 -35.097656 78.09375 -30.15625 91.65625 -30.15625 C 102.65625 -30.15625 111.984375 -34.019531 119.640625 -41.75 C 127.304688 -49.488281 132.09375 -59.898438 134 -72.984375 L 172.296875 -67.484375 C 170.535156 -52.648438 166.023438 -39.765625 158.765625 -28.828125 C 151.515625 -17.898438 142.144531 -9.484375 130.65625 -3.578125 C 119.164062 2.316406 106.003906 5.265625 91.171875 5.265625 Z M 91.171875 5.265625 "/></g></g></g><g fill="#ffffff" fill-opacity="1"><g transform="translate(177.207792, 177.878007)"><g><path d="M 1.203125 0 L 55.75 -170.375 L 106.484375 -170.375 L 161.046875 0 L 119.171875 0 L 109.59375 -33.5 L 52.40625 -33.5 L 42.59375 0 Z M 58.625 -62.453125 L 103.140625 -62.453125 L 81.59375 -137.359375 L 81.125 -137.359375 Z M 58.625 -62.453125 "/></g></g></g><g fill="#ffffff" fill-opacity="1"><g transform="translate(339.435058, 177.878007)"><g><path d="M 75.140625 5.265625 C 61.734375 5.265625 49.847656 2.992188 39.484375 -1.546875 C 29.117188 -6.097656 20.90625 -12.640625 14.84375 -21.171875 C 8.78125 -29.710938 5.347656 -39.960938 4.546875 -51.921875 L 42.109375 -58.390625 C 42.585938 -48.179688 46.097656 -40.125 52.640625 -34.21875 C 59.179688 -28.3125 67.238281 -25.359375 76.8125 -25.359375 C 85.269531 -25.359375 92.007812 -27.351562 97.03125 -31.34375 C 102.0625 -35.332031 104.578125 -40.28125 104.578125 -46.1875 C 104.578125 -51.289062 102.660156 -55.515625 98.828125 -58.859375 C 95.003906 -62.210938 88.785156 -65.007812 80.171875 -67.25 L 58.625 -72.75 C 41.71875 -76.738281 29.351562 -82.679688 21.53125 -90.578125 C 13.71875 -98.472656 9.8125 -109.117188 9.8125 -122.515625 C 9.8125 -133.203125 12.363281 -142.535156 17.46875 -150.515625 C 22.570312 -158.492188 29.828125 -164.675781 39.234375 -169.0625 C 48.648438 -173.445312 59.660156 -175.640625 72.265625 -175.640625 C 83.753906 -175.640625 93.960938 -173.601562 102.890625 -169.53125 C 111.828125 -165.46875 119.046875 -159.726562 124.546875 -152.3125 C 130.054688 -144.894531 133.207031 -136.082031 134 -125.875 L 97.390625 -118.453125 C 96.910156 -126.742188 94.273438 -133.320312 89.484375 -138.1875 C 84.703125 -143.0625 78.722656 -145.5 71.546875 -145.5 C 64.691406 -145.5 59.226562 -143.625 55.15625 -139.875 C 51.09375 -136.125 49.0625 -131.457031 49.0625 -125.875 C 49.0625 -120.925781 50.851562 -116.851562 54.4375 -113.65625 C 58.03125 -110.46875 63.894531 -107.835938 72.03125 -105.765625 L 93.328125 -100.5 C 110.710938 -96.507812 123.429688 -90.488281 131.484375 -82.4375 C 139.546875 -74.382812 143.578125 -63.578125 143.578125 -50.015625 C 143.578125 -38.847656 140.785156 -29.113281 135.203125 -20.8125 C 129.617188 -12.519531 121.722656 -6.097656 111.515625 -1.546875 C 101.304688 2.992188 89.179688 5.265625 75.140625 5.265625 Z M 75.140625 5.265625 "/></g></g></g><g fill="#ffffff" fill-opacity="1"><g transform="translate(486.58811, 177.878007)"><g><path d="M 48.578125 0 L 48.578125 -135.4375 L 3.59375 -135.4375 L 3.59375 -170.375 L 134.484375 -170.375 L 134.484375 -135.4375 L 89.5 -135.4375 L 89.5 0 Z M 48.578125 0 "/></g></g></g><g fill="#ffffff" fill-opacity="1"><g transform="translate(624.648779, 177.878007)"><g><path d="M 11.96875 0 L 11.96875 -170.375 L 119.65625 -170.375 L 119.65625 -137.828125 L 51.453125 -137.828125 L 51.453125 -101.703125 L 110.078125 -101.703125 L 110.078125 -72.984375 L 51.453125 -72.984375 L 51.453125 -32.78125 L 122.046875 -32.78125 L 122.046875 0 Z M 11.96875 0 "/></g></g></g><g fill="#ffffff" fill-opacity="1"><g transform="translate(751.942141, 177.878007)"><g><path d="M 11.96875 0 L 11.96875 -170.375 L 52.890625 -170.375 L 52.890625 -35.171875 L 114.140625 -35.171875 L 114.140625 0 Z M 11.96875 0 "/></g></g></g><g fill="#ffffff" fill-opacity="1"><g transform="translate(869.664635, 177.878007)"><g><path d="M 11.96875 0 L 11.96875 -170.375 L 52.890625 -170.375 L 52.890625 -35.171875 L 114.140625 -35.171875 L 114.140625 0 Z M 11.96875 0 "/></g></g></g><g fill="#ffffff" fill-opacity="1"><g transform="translate(987.387041, 177.878007)"><g><path d="M 93.328125 5.265625 C 75.941406 5.265625 60.742188 1.515625 47.734375 -5.984375 C 34.734375 -13.484375 24.644531 -24.007812 17.46875 -37.5625 C 10.289062 -51.125 6.703125 -67 6.703125 -85.1875 C 6.703125 -103.53125 10.289062 -119.441406 17.46875 -132.921875 C 24.644531 -146.410156 34.734375 -156.898438 47.734375 -164.390625 C 60.742188 -171.890625 75.941406 -175.640625 93.328125 -175.640625 C 110.878906 -175.640625 126.15625 -171.890625 139.15625 -164.390625 C 152.15625 -156.898438 162.242188 -146.410156 169.421875 -132.921875 C 176.597656 -119.441406 180.1875 -103.53125 180.1875 -85.1875 C 180.1875 -67 176.597656 -51.125 169.421875 -37.5625 C 162.242188 -24.007812 152.15625 -13.484375 139.15625 -5.984375 C 126.15625 1.515625 110.878906 5.265625 93.328125 5.265625 Z M 93.328125 -29.90625 C 107.367188 -29.90625 118.535156 -34.890625 126.828125 -44.859375 C 135.117188 -54.835938 139.265625 -68.28125 139.265625 -85.1875 C 139.265625 -102.101562 135.117188 -115.582031 126.828125 -125.625 C 118.535156 -135.675781 107.367188 -140.703125 93.328125 -140.703125 C 79.441406 -140.703125 68.351562 -135.675781 60.0625 -125.625 C 51.769531 -115.582031 47.625 -102.101562 47.625 -85.1875 C 47.625 -68.28125 51.769531 -54.835938 60.0625 -44.859375 C 68.351562 -34.890625 79.441406 -29.90625 93.328125 -29.90625 Z M 93.328125 -29.90625 "/></g></g></g><g fill="#ffffff" fill-opacity="1"><g transform="translate(1174.259453, 177.878007)"><g><path d="M 11.96875 0 L 11.96875 -170.375 L 61.265625 -170.375 L 121.328125 -48.34375 L 121.796875 -48.34375 L 121.796875 -170.375 L 159.84375 -170.375 L 159.84375 0 L 110.796875 0 L 50.484375 -121.796875 L 50.015625 -121.796875 L 50.015625 0 Z M 11.96875 0 "/></g></g></g><g fill="#ffffff" fill-opacity="1"><g transform="translate(304.747446, 375.387805)"><g><path d="M 91.171875 5.265625 C 73.941406 5.265625 58.984375 1.554688 46.296875 -5.859375 C 33.617188 -13.273438 23.847656 -23.765625 16.984375 -37.328125 C 10.128906 -50.890625 6.703125 -66.84375 6.703125 -85.1875 C 6.703125 -103.695312 9.929688 -119.726562 16.390625 -133.28125 C 22.847656 -146.84375 32.0625 -157.289062 44.03125 -164.625 C 56 -171.96875 70.195312 -175.640625 86.625 -175.640625 C 99.863281 -175.640625 111.628906 -173.046875 121.921875 -167.859375 C 132.210938 -162.679688 140.628906 -155.265625 147.171875 -145.609375 C 153.710938 -135.960938 157.859375 -124.4375 159.609375 -111.03125 L 121.796875 -103.609375 C 119.890625 -115.253906 115.90625 -124.347656 109.84375 -130.890625 C 103.78125 -137.429688 96.039062 -140.703125 86.625 -140.703125 C 74.65625 -140.703125 65.160156 -135.71875 58.140625 -125.75 C 51.128906 -115.78125 47.625 -102.257812 47.625 -85.1875 C 47.625 -68.28125 51.570312 -54.878906 59.46875 -44.984375 C 67.363281 -35.097656 78.09375 -30.15625 91.65625 -30.15625 C 102.65625 -30.15625 111.984375 -34.019531 119.640625 -41.75 C 127.304688 -49.488281 132.09375 -59.898438 134 -72.984375 L 172.296875 -67.484375 C 170.535156 -52.648438 166.023438 -39.765625 158.765625 -28.828125 C 151.515625 -17.898438 142.144531 -9.484375 130.65625 -3.578125 C 119.164062 2.316406 106.003906 5.265625 91.171875 5.265625 Z M 91.171875 5.265625 "/></g></g></g><g fill="#ffffff" fill-opacity="1"><g transform="translate(480.613297, 375.387805)"><g><path d="M 55.03125 0 L 55.03125 -60.0625 L 1.203125 -170.375 L 44.03125 -170.375 L 75.625 -96.203125 L 75.859375 -96.203125 L 105.53125 -170.375 L 149.078125 -170.375 L 96.203125 -60.0625 L 96.203125 0 Z M 55.03125 0 "/></g></g></g><g fill="#ffffff" fill-opacity="1"><g transform="translate(630.876901, 375.387805)"><g><path d="M 91.171875 5.265625 C 73.941406 5.265625 58.984375 1.554688 46.296875 -5.859375 C 33.617188 -13.273438 23.847656 -23.765625 16.984375 -37.328125 C 10.128906 -50.890625 6.703125 -66.84375 6.703125 -85.1875 C 6.703125 -103.695312 9.929688 -119.726562 16.390625 -133.28125 C 22.847656 -146.84375 32.0625 -157.289062 44.03125 -164.625 C 56 -171.96875 70.195312 -175.640625 86.625 -175.640625 C 99.863281 -175.640625 111.628906 -173.046875 121.921875 -167.859375 C 132.210938 -162.679688 140.628906 -155.265625 147.171875 -145.609375 C 153.710938 -135.960938 157.859375 -124.4375 159.609375 -111.03125 L 121.796875 -103.609375 C 119.890625 -115.253906 115.90625 -124.347656 109.84375 -130.890625 C 103.78125 -137.429688 96.039062 -140.703125 86.625 -140.703125 C 74.65625 -140.703125 65.160156 -135.71875 58.140625 -125.75 C 51.128906 -115.78125 47.625 -102.257812 47.625 -85.1875 C 47.625 -68.28125 51.570312 -54.878906 59.46875 -44.984375 C 67.363281 -35.097656 78.09375 -30.15625 91.65625 -30.15625 C 102.65625 -30.15625 111.984375 -34.019531 119.640625 -41.75 C 127.304688 -49.488281 132.09375 -59.898438 134 -72.984375 L 172.296875 -67.484375 C 170.535156 -52.648438 166.023438 -39.765625 158.765625 -28.828125 C 151.515625 -17.898438 142.144531 -9.484375 130.65625 -3.578125 C 119.164062 2.316406 106.003906 5.265625 91.171875 5.265625 Z M 91.171875 5.265625 "/></g></g></g><g fill="#ffffff" fill-opacity="1"><g transform="translate(806.742774, 375.387805)"><g><path d="M 11.96875 0 L 11.96875 -170.375 L 52.890625 -170.375 L 52.890625 -35.171875 L 114.140625 -35.171875 L 114.140625 0 Z M 11.96875 0 "/></g></g></g><g fill="#ffffff" fill-opacity="1"><g transform="translate(924.46518, 375.387805)"><g><path d="M 11.96875 0 L 11.96875 -170.375 L 52.890625 -170.375 L 52.890625 0 Z M 11.96875 0 "/></g></g></g><g fill="#ffffff" fill-opacity="1"><g transform="translate(989.30828, 375.387805)"><g><path d="M 11.96875 0 L 11.96875 -170.375 L 61.265625 -170.375 L 121.328125 -48.34375 L 121.796875 -48.34375 L 121.796875 -170.375 L 159.84375 -170.375 L 159.84375 0 L 110.796875 0 L 50.484375 -121.796875 L 50.015625 -121.796875 L 50.015625 0 Z M 11.96875 0 "/></g></g></g><g fill="#ffffff" fill-opacity="1"><g transform="translate(1161.106434, 375.387805)"><g><path d="M 84 4.78125 C 68.519531 4.78125 54.957031 1.070312 43.3125 -6.34375 C 31.664062 -13.757812 22.648438 -24.207031 16.265625 -37.6875 C 9.890625 -51.164062 6.703125 -67 6.703125 -85.1875 C 6.703125 -103.53125 10.128906 -119.441406 16.984375 -132.921875 C 23.847656 -146.410156 33.460938 -156.898438 45.828125 -164.390625 C 58.191406 -171.890625 72.75 -175.640625 89.5 -175.640625 C 101.144531 -175.640625 111.832031 -173.363281 121.5625 -168.8125 C 131.289062 -164.269531 139.582031 -157.929688 146.4375 -149.796875 C 153.300781 -141.660156 158.09375 -132.007812 160.8125 -120.84375 L 122.765625 -113.1875 C 120.367188 -121.476562 116.097656 -128.132812 109.953125 -133.15625 C 103.816406 -138.1875 96.757812 -140.703125 88.78125 -140.703125 C 80.644531 -140.703125 73.460938 -138.425781 67.234375 -133.875 C 61.015625 -129.332031 56.191406 -122.953125 52.765625 -114.734375 C 49.335938 -106.523438 47.625 -96.835938 47.625 -85.671875 C 47.625 -74.503906 49.578125 -64.691406 53.484375 -56.234375 C 57.390625 -47.773438 62.851562 -41.191406 69.875 -36.484375 C 76.894531 -31.785156 85.03125 -29.4375 94.28125 -29.4375 C 106.5625 -29.4375 116.609375 -33.265625 124.421875 -40.921875 C 132.242188 -48.578125 136.394531 -58.707031 136.875 -71.3125 L 75.140625 -71.3125 L 75.140625 -96.671875 L 176.359375 -96.671875 L 176.359375 0 L 146.453125 0 L 143.34375 -30.15625 L 143.09375 -30.15625 C 137.675781 -19.300781 129.703125 -10.765625 119.171875 -4.546875 C 108.640625 1.671875 96.914062 4.78125 84 4.78125 Z M 84 4.78125 "/></g></g></g><g fill="#ffffff" fill-opacity="1"><g transform="translate(925.659862, 572.897603)"><g><path d="M 91.171875 5.265625 C 73.941406 5.265625 58.984375 1.554688 46.296875 -5.859375 C 33.617188 -13.273438 23.847656 -23.765625 16.984375 -37.328125 C 10.128906 -50.890625 6.703125 -66.84375 6.703125 -85.1875 C 6.703125 -103.695312 9.929688 -119.726562 16.390625 -133.28125 C 22.847656 -146.84375 32.0625 -157.289062 44.03125 -164.625 C 56 -171.96875 70.195312 -175.640625 86.625 -175.640625 C 99.863281 -175.640625 111.628906 -173.046875 121.921875 -167.859375 C 132.210938 -162.679688 140.628906 -155.265625 147.171875 -145.609375 C 153.710938 -135.960938 157.859375 -124.4375 159.609375 -111.03125 L 121.796875 -103.609375 C 119.890625 -115.253906 115.90625 -124.347656 109.84375 -130.890625 C 103.78125 -137.429688 96.039062 -140.703125 86.625 -140.703125 C 74.65625 -140.703125 65.160156 -135.71875 58.140625 -125.75 C 51.128906 -115.78125 47.625 -102.257812 47.625 -85.1875 C 47.625 -68.28125 51.570312 -54.878906 59.46875 -44.984375 C 67.363281 -35.097656 78.09375 -30.15625 91.65625 -30.15625 C 102.65625 -30.15625 111.984375 -34.019531 119.640625 -41.75 C 127.304688 -49.488281 132.09375 -59.898438 134 -72.984375 L 172.296875 -67.484375 C 170.535156 -52.648438 166.023438 -39.765625 158.765625 -28.828125 C 151.515625 -17.898438 142.144531 -9.484375 130.65625 -3.578125 C 119.164062 2.316406 106.003906 5.265625 91.171875 5.265625 Z M 91.171875 5.265625 "/></g></g></g><g fill="#ffffff" fill-opacity="1"><g transform="translate(1101.525713, 572.897603)"><g><path d="M 93.328125 5.265625 C 75.941406 5.265625 60.742188 1.515625 47.734375 -5.984375 C 34.734375 -13.484375 24.644531 -24.007812 17.46875 -37.5625 C 10.289062 -51.125 6.703125 -67 6.703125 -85.1875 C 6.703125 -103.53125 10.289062 -119.441406 17.46875 -132.921875 C 24.644531 -146.410156 34.734375 -156.898438 47.734375 -164.390625 C 60.742188 -171.890625 75.941406 -175.640625 93.328125 -175.640625 C 110.878906 -175.640625 126.15625 -171.890625 139.15625 -164.390625 C 152.15625 -156.898438 162.242188 -146.410156 169.421875 -132.921875 C 176.597656 -119.441406 180.1875 -103.53125 180.1875 -85.1875 C 180.1875 -67 176.597656 -51.125 169.421875 -37.5625 C 162.242188 -24.007812 152.15625 -13.484375 139.15625 -5.984375 C 126.15625 1.515625 110.878906 5.265625 93.328125 5.265625 Z M 93.328125 -29.90625 C 107.367188 -29.90625 118.535156 -34.890625 126.828125 -44.859375 C 135.117188 -54.835938 139.265625 -68.28125 139.265625 -85.1875 C 139.265625 -102.101562 135.117188 -115.582031 126.828125 -125.625 C 118.535156 -135.675781 107.367188 -140.703125 93.328125 -140.703125 C 79.441406 -140.703125 68.351562 -135.675781 60.0625 -125.625 C 51.769531 -115.582031 47.625 -102.101562 47.625 -85.1875 C 47.625 -68.28125 51.769531 -54.835938 60.0625 -44.859375 C 68.351562 -34.890625 79.441406 -29.90625 93.328125 -29.90625 Z M 93.328125 -29.90625 "/></g></g></g><g fill="#ffffff" fill-opacity="1"><g transform="translate(1288.398125, 572.897603)"><g><path d="M 28.71875 2.625 C 22.5 2.625 17.351562 0.671875 13.28125 -3.234375 C 9.207031 -7.140625 7.171875 -12.203125 7.171875 -18.421875 C 7.171875 -24.484375 9.207031 -29.46875 13.28125 -33.375 C 17.351562 -37.289062 22.5 -39.25 28.71875 -39.25 C 35.09375 -39.25 40.3125 -37.289062 44.375 -33.375 C 48.445312 -29.46875 50.484375 -24.484375 50.484375 -18.421875 C 50.484375 -12.203125 48.445312 -7.140625 44.375 -3.234375 C 40.3125 0.671875 35.09375 2.625 28.71875 2.625 Z M 28.71875 2.625 "/></g></g></g></g></g><path stroke-linecap="butt" transform="matrix(0.53033, -0.53033, 0.53033, 0.53033, 1135.6394, 404.759705)" fill="none" stroke-linejoin="miter" d="M -0.000743072 22.49789 L 122.932727 22.49789 " stroke="#ffffff" stroke-width="45" stroke-opacity="1" stroke-miterlimit="4"/></svg>