<svg xmlns="http://www.w3.org/2000/svg" xmlns:xlink="http://www.w3.org/1999/xlink" width="66" zoomAndPan="magnify" viewBox="0 0 49.5 49.499998" height="66" preserveAspectRatio="xMidYMid meet" version="1.0"><defs><clipPath id="e8bd3f7252"><path d="M 2.480469 11.648438 L 46.289062 11.648438 L 46.289062 29 L 2.480469 29 Z M 2.480469 11.648438 " clip-rule="nonzero"/></clipPath><clipPath id="dbf65f831a"><path d="M 25 28 L 35 28 L 35 37.636719 L 25 37.636719 Z M 25 28 " clip-rule="nonzero"/></clipPath><clipPath id="7b6a67f186"><path d="M 14 28 L 24 28 L 24 37.636719 L 14 37.636719 Z M 14 28 " clip-rule="nonzero"/></clipPath></defs><path fill="#bbab99" d="M 20.316406 20.777344 L 20.222656 20.777344 C 19.992188 20.777344 19.800781 20.855469 19.636719 21.019531 C 19.476562 21.179688 19.398438 21.375 19.398438 21.601562 C 19.398438 21.828125 19.476562 22.023438 19.636719 22.183594 C 19.800781 22.347656 19.992188 22.425781 20.222656 22.425781 L 20.316406 22.425781 C 20.542969 22.425781 20.738281 22.347656 20.902344 22.183594 C 21.0625 22.023438 21.140625 21.828125 21.140625 21.601562 C 21.140625 21.375 21.0625 21.179688 20.902344 21.019531 C 20.738281 20.855469 20.542969 20.777344 20.316406 20.777344 Z M 20.316406 20.777344 " fill-opacity="1" fill-rule="nonzero"/><path fill="#bbab99" d="M 24.457031 20.777344 L 24.363281 20.777344 C 24.136719 20.777344 23.941406 20.855469 23.777344 21.019531 C 23.617188 21.179688 23.539062 21.375 23.539062 21.601562 C 23.539062 21.828125 23.617188 22.023438 23.777344 22.183594 C 23.941406 22.347656 24.136719 22.425781 24.363281 22.425781 L 24.457031 22.425781 C 24.6875 22.425781 24.878906 22.347656 25.042969 22.183594 C 25.203125 22.023438 25.28125 21.828125 25.28125 21.601562 C 25.28125 21.375 25.203125 21.179688 25.042969 21.019531 C 24.878906 20.855469 24.6875 20.777344 24.457031 20.777344 Z M 24.457031 20.777344 " fill-opacity="1" fill-rule="nonzero"/><path fill="#bbab99" d="M 28.773438 20.777344 L 28.679688 20.777344 C 28.453125 20.777344 28.257812 20.855469 28.097656 21.019531 C 27.933594 21.179688 27.855469 21.375 27.855469 21.601562 C 27.855469 21.828125 27.933594 22.023438 28.097656 22.183594 C 28.257812 22.347656 28.453125 22.425781 28.679688 22.425781 L 28.773438 22.425781 C 29.003906 22.425781 29.199219 22.347656 29.359375 22.183594 C 29.519531 22.023438 29.601562 21.828125 29.601562 21.601562 C 29.601562 21.375 29.519531 21.179688 29.359375 21.019531 C 29.199219 20.855469 29.003906 20.777344 28.773438 20.777344 Z M 28.773438 20.777344 " fill-opacity="1" fill-rule="nonzero"/><g clip-path="url(#e8bd3f7252)"><path fill="#bbab99" d="M 43.332031 11.652344 L 5.671875 11.652344 C 5.25 11.652344 4.84375 11.734375 4.453125 11.898438 C 4.066406 12.058594 3.722656 12.289062 3.421875 12.585938 C 3.125 12.882812 2.894531 13.226562 2.734375 13.617188 C 2.574219 14.007812 2.492188 14.410156 2.492188 14.832031 L 2.492188 25.117188 C 2.492188 25.539062 2.574219 25.941406 2.734375 26.332031 C 2.894531 26.722656 3.125 27.066406 3.421875 27.363281 C 3.722656 27.660156 4.066406 27.890625 4.453125 28.054688 C 4.84375 28.214844 5.25 28.296875 5.671875 28.296875 L 43.332031 28.296875 C 43.75 28.296875 44.15625 28.214844 44.546875 28.054688 C 44.9375 27.890625 45.28125 27.660156 45.578125 27.363281 C 45.875 27.066406 46.105469 26.722656 46.269531 26.332031 C 46.429688 25.941406 46.511719 25.539062 46.511719 25.117188 L 46.511719 14.832031 C 46.511719 14.410156 46.429688 14.007812 46.269531 13.617188 C 46.105469 13.226562 45.875 12.882812 45.578125 12.585938 C 45.28125 12.289062 44.9375 12.058594 44.546875 11.898438 C 44.15625 11.734375 43.75 11.652344 43.332031 11.652344 Z M 13.316406 26.644531 L 13.316406 25.621094 C 13.316406 25.378906 13.402344 25.175781 13.570312 25.003906 C 13.742188 24.835938 13.945312 24.75 14.1875 24.75 L 34.816406 24.75 C 35.058594 24.75 35.261719 24.835938 35.433594 25.003906 C 35.601562 25.175781 35.6875 25.378906 35.6875 25.621094 L 35.6875 26.644531 Z M 44.863281 25.121094 C 44.863281 25.320312 44.824219 25.515625 44.746094 25.703125 C 44.667969 25.890625 44.558594 26.054688 44.414062 26.195312 C 44.273438 26.339844 44.109375 26.449219 43.921875 26.527344 C 43.734375 26.605469 43.539062 26.644531 43.339844 26.644531 L 37.339844 26.644531 L 37.339844 25.621094 C 37.339844 25.285156 37.273438 24.964844 37.148438 24.65625 C 37.019531 24.347656 36.835938 24.074219 36.601562 23.835938 C 36.363281 23.601562 36.089844 23.417969 35.78125 23.289062 C 35.472656 23.164062 35.152344 23.097656 34.816406 23.097656 L 14.183594 23.097656 C 13.847656 23.097656 13.527344 23.164062 13.21875 23.289062 C 12.910156 23.417969 12.636719 23.601562 12.402344 23.835938 C 12.164062 24.074219 11.984375 24.347656 11.855469 24.65625 C 11.726562 24.964844 11.660156 25.285156 11.660156 25.621094 L 11.660156 26.644531 L 5.671875 26.644531 C 5.46875 26.644531 5.273438 26.605469 5.089844 26.527344 C 4.902344 26.449219 4.738281 26.339844 4.59375 26.195312 C 4.453125 26.054688 4.34375 25.890625 4.265625 25.703125 C 4.1875 25.515625 4.148438 25.320312 4.148438 25.121094 L 4.148438 14.832031 C 4.148438 14.632812 4.1875 14.4375 4.265625 14.25 C 4.34375 14.0625 4.453125 13.898438 4.59375 13.757812 C 4.738281 13.613281 4.902344 13.503906 5.089844 13.425781 C 5.273438 13.347656 5.46875 13.308594 5.671875 13.308594 L 43.332031 13.308594 C 43.53125 13.308594 43.726562 13.347656 43.914062 13.425781 C 44.097656 13.503906 44.265625 13.613281 44.40625 13.757812 C 44.550781 13.898438 44.660156 14.0625 44.738281 14.25 C 44.816406 14.4375 44.855469 14.632812 44.855469 14.832031 Z M 44.863281 25.121094 " fill-opacity="1" fill-rule="nonzero"/></g><path fill="#bbab99" d="M 40.367188 14.261719 L 8.636719 14.261719 C 8.410156 14.261719 8.214844 14.34375 8.054688 14.503906 C 7.894531 14.667969 7.8125 14.859375 7.8125 15.089844 C 7.8125 15.316406 7.894531 15.511719 8.054688 15.671875 C 8.214844 15.832031 8.410156 15.914062 8.636719 15.914062 L 40.367188 15.914062 C 40.59375 15.914062 40.789062 15.832031 40.949219 15.671875 C 41.109375 15.511719 41.191406 15.316406 41.191406 15.089844 C 41.191406 14.859375 41.109375 14.667969 40.949219 14.503906 C 40.789062 14.34375 40.59375 14.261719 40.367188 14.261719 Z M 40.367188 14.261719 " fill-opacity="1" fill-rule="nonzero"/><path fill="#bbab99" d="M 40.367188 17.519531 L 8.636719 17.519531 C 8.410156 17.519531 8.214844 17.597656 8.054688 17.761719 C 7.890625 17.921875 7.8125 18.117188 7.8125 18.34375 C 7.8125 18.574219 7.890625 18.765625 8.054688 18.929688 C 8.214844 19.089844 8.410156 19.167969 8.636719 19.167969 L 40.367188 19.167969 C 40.59375 19.167969 40.789062 19.089844 40.949219 18.929688 C 41.109375 18.765625 41.191406 18.574219 41.191406 18.34375 C 41.191406 18.117188 41.109375 17.921875 40.949219 17.761719 C 40.789062 17.601562 40.59375 17.519531 40.367188 17.519531 Z M 40.367188 17.519531 " fill-opacity="1" fill-rule="nonzero"/><g clip-path="url(#dbf65f831a)"><path fill="#bbab99" d="M 33.742188 35.703125 C 33.335938 35.703125 32.933594 35.664062 32.535156 35.582031 C 32.136719 35.503906 31.75 35.386719 31.375 35.230469 C 31 35.074219 30.644531 34.886719 30.304688 34.660156 C 29.964844 34.433594 29.652344 34.179688 29.367188 33.890625 C 29.078125 33.601562 28.820312 33.292969 28.597656 32.953125 C 28.371094 32.617188 28.179688 32.257812 28.023438 31.882812 C 27.867188 31.507812 27.75 31.121094 27.671875 30.722656 C 27.589844 30.324219 27.550781 29.921875 27.550781 29.515625 C 27.550781 29.289062 27.46875 29.09375 27.308594 28.933594 C 27.148438 28.773438 26.953125 28.691406 26.726562 28.691406 C 26.496094 28.691406 26.300781 28.773438 26.140625 28.933594 C 25.980469 29.09375 25.898438 29.289062 25.898438 29.515625 C 25.898438 30.03125 25.949219 30.539062 26.050781 31.046875 C 26.152344 31.550781 26.300781 32.039062 26.5 32.515625 C 26.695312 32.992188 26.9375 33.441406 27.222656 33.871094 C 27.511719 34.296875 27.835938 34.695312 28.199219 35.058594 C 28.5625 35.421875 28.960938 35.746094 29.386719 36.03125 C 29.816406 36.316406 30.269531 36.558594 30.742188 36.757812 C 31.21875 36.953125 31.710938 37.101562 32.214844 37.203125 C 32.71875 37.300781 33.226562 37.351562 33.742188 37.351562 C 33.972656 37.351562 34.164062 37.273438 34.328125 37.113281 C 34.488281 36.949219 34.566406 36.753906 34.566406 36.527344 C 34.566406 36.300781 34.488281 36.105469 34.328125 35.945312 C 34.164062 35.785156 33.972656 35.703125 33.742188 35.703125 Z M 33.742188 35.703125 " fill-opacity="1" fill-rule="nonzero"/></g><path fill="#bbab99" d="M 37.890625 33.410156 C 37.375 33.410156 36.878906 33.308594 36.398438 33.113281 C 35.921875 32.914062 35.503906 32.632812 35.136719 32.269531 C 34.773438 31.902344 34.492188 31.480469 34.292969 31.003906 C 34.09375 30.527344 33.996094 30.03125 33.996094 29.515625 C 33.996094 29.289062 33.914062 29.09375 33.753906 28.933594 C 33.59375 28.769531 33.398438 28.691406 33.171875 28.691406 C 32.941406 28.691406 32.75 28.769531 32.585938 28.933594 C 32.425781 29.09375 32.34375 29.289062 32.34375 29.515625 C 32.347656 29.878906 32.382812 30.238281 32.453125 30.597656 C 32.523438 30.953125 32.628906 31.300781 32.769531 31.636719 C 32.910156 31.972656 33.078125 32.292969 33.28125 32.59375 C 33.484375 32.898438 33.714844 33.175781 33.972656 33.433594 C 34.230469 33.691406 34.507812 33.921875 34.8125 34.125 C 35.113281 34.324219 35.433594 34.496094 35.769531 34.636719 C 36.105469 34.773438 36.453125 34.878906 36.808594 34.953125 C 37.164062 35.023438 37.527344 35.058594 37.890625 35.058594 C 38.117188 35.058594 38.3125 34.980469 38.472656 34.816406 C 38.632812 34.65625 38.714844 34.460938 38.714844 34.234375 C 38.714844 34.007812 38.632812 33.8125 38.472656 33.652344 C 38.3125 33.488281 38.117188 33.410156 37.890625 33.410156 Z M 37.890625 33.410156 " fill-opacity="1" fill-rule="nonzero"/><g clip-path="url(#7b6a67f186)"><path fill="#bbab99" d="M 22.457031 28.691406 C 22.226562 28.691406 22.035156 28.769531 21.871094 28.933594 C 21.710938 29.09375 21.632812 29.289062 21.632812 29.515625 C 21.628906 29.921875 21.589844 30.324219 21.511719 30.722656 C 21.429688 31.121094 21.3125 31.503906 21.160156 31.878906 C 21.003906 32.253906 20.8125 32.613281 20.585938 32.949219 C 20.363281 33.285156 20.105469 33.597656 19.820312 33.886719 C 19.53125 34.171875 19.21875 34.429688 18.882812 34.65625 C 18.546875 34.882812 18.1875 35.070312 17.8125 35.226562 C 17.4375 35.382812 17.054688 35.5 16.65625 35.582031 C 16.257812 35.660156 15.855469 35.699219 15.449219 35.703125 C 15.222656 35.703125 15.027344 35.78125 14.867188 35.945312 C 14.703125 36.105469 14.625 36.300781 14.625 36.527344 C 14.625 36.753906 14.703125 36.949219 14.867188 37.109375 C 15.027344 37.273438 15.222656 37.351562 15.449219 37.351562 C 15.964844 37.351562 16.472656 37.300781 16.976562 37.199219 C 17.480469 37.097656 17.972656 36.949219 18.445312 36.753906 C 18.921875 36.554688 19.375 36.3125 19.800781 36.027344 C 20.226562 35.742188 20.625 35.417969 20.988281 35.054688 C 21.351562 34.691406 21.675781 34.292969 21.960938 33.867188 C 22.25 33.4375 22.488281 32.988281 22.6875 32.511719 C 22.882812 32.039062 23.03125 31.546875 23.132812 31.042969 C 23.234375 30.539062 23.285156 30.03125 23.285156 29.515625 C 23.285156 29.285156 23.203125 29.089844 23.042969 28.929688 C 22.878906 28.769531 22.683594 28.6875 22.457031 28.691406 Z M 22.457031 28.691406 " fill-opacity="1" fill-rule="nonzero"/></g><path fill="#bbab99" d="M 16.839844 29.515625 C 16.839844 29.289062 16.757812 29.09375 16.597656 28.933594 C 16.4375 28.773438 16.242188 28.691406 16.015625 28.691406 C 15.785156 28.691406 15.589844 28.773438 15.429688 28.933594 C 15.269531 29.09375 15.1875 29.289062 15.1875 29.515625 C 15.1875 30.03125 15.089844 30.527344 14.890625 31.007812 C 14.695312 31.484375 14.414062 31.902344 14.046875 32.269531 C 13.683594 32.632812 13.261719 32.914062 12.785156 33.113281 C 12.308594 33.3125 11.8125 33.410156 11.292969 33.410156 C 11.066406 33.410156 10.871094 33.492188 10.710938 33.652344 C 10.550781 33.8125 10.46875 34.007812 10.46875 34.234375 C 10.46875 34.464844 10.550781 34.65625 10.710938 34.820312 C 10.871094 34.980469 11.066406 35.0625 11.292969 35.0625 C 11.660156 35.058594 12.019531 35.023438 12.375 34.953125 C 12.734375 34.882812 13.078125 34.777344 13.414062 34.636719 C 13.75 34.496094 14.070312 34.328125 14.375 34.125 C 14.675781 33.921875 14.957031 33.691406 15.214844 33.433594 C 15.46875 33.175781 15.699219 32.898438 15.902344 32.59375 C 16.105469 32.292969 16.277344 31.972656 16.414062 31.636719 C 16.554688 31.300781 16.660156 30.953125 16.730469 30.597656 C 16.804688 30.242188 16.839844 29.878906 16.839844 29.515625 Z M 16.839844 29.515625 " fill-opacity="1" fill-rule="nonzero"/></svg>