<svg xmlns="http://www.w3.org/2000/svg" xmlns:xlink="http://www.w3.org/1999/xlink" width="66" zoomAndPan="magnify" viewBox="0 0 49.5 49.499998" height="66" preserveAspectRatio="xMidYMid meet" version="1.0"><defs><clipPath id="3473e64599"><path d="M 1.816406 1.816406 L 47.109375 1.816406 L 47.109375 47.109375 L 1.816406 47.109375 Z M 1.816406 1.816406 " clip-rule="nonzero"/></clipPath></defs><g clip-path="url(#3473e64599)"><path fill="#bbab99" d="M 37.949219 9.316406 C 37.941406 9.3125 37.9375 9.304688 37.933594 9.300781 C 37.828125 9.210938 37.726562 9.121094 37.621094 9.03125 C 37.613281 9.023438 37.605469 9.015625 37.597656 9.011719 C 37.089844 8.582031 36.5625 8.175781 36.027344 7.808594 C 36.019531 7.804688 36.015625 7.796875 36.007812 7.792969 L 35.980469 7.777344 C 35.871094 7.703125 35.765625 7.628906 35.65625 7.558594 L 35.601562 7.523438 C 35.5 7.453125 35.398438 7.390625 35.289062 7.320312 C 35.253906 7.300781 35.222656 7.277344 35.195312 7.261719 L 34.890625 7.074219 C 34.886719 7.070312 34.882812 7.070312 34.878906 7.066406 L 34.855469 7.054688 C 34.828125 7.039062 34.800781 7.023438 34.777344 7.007812 C 34.683594 6.953125 34.585938 6.898438 34.492188 6.84375 C 34.488281 6.839844 34.480469 6.835938 34.480469 6.835938 L 34.425781 6.804688 C 34.375 6.777344 34.324219 6.75 34.273438 6.722656 C 34.21875 6.691406 34.167969 6.664062 34.113281 6.636719 L 34.0625 6.609375 C 33.992188 6.570312 33.917969 6.53125 33.851562 6.496094 C 33.8125 6.476562 33.769531 6.453125 33.726562 6.433594 C 33.691406 6.414062 33.65625 6.394531 33.617188 6.375 C 33.613281 6.371094 33.609375 6.371094 33.605469 6.367188 C 33.574219 6.355469 33.546875 6.339844 33.519531 6.328125 C 33.488281 6.3125 33.457031 6.296875 33.429688 6.28125 C 33.425781 6.28125 33.421875 6.277344 33.417969 6.277344 C 33.375 6.253906 33.332031 6.234375 33.289062 6.214844 C 33.253906 6.195312 33.214844 6.179688 33.183594 6.164062 C 33.179688 6.160156 33.175781 6.160156 33.171875 6.15625 C 33.136719 6.140625 33.097656 6.121094 33.058594 6.105469 C 33.03125 6.09375 33.003906 6.078125 32.96875 6.0625 C 32.890625 6.027344 32.816406 5.992188 32.730469 5.953125 L 32.652344 5.921875 C 32.597656 5.894531 32.539062 5.871094 32.484375 5.847656 L 32.300781 5.773438 C 32.207031 5.730469 32.109375 5.691406 32.011719 5.652344 C 31.984375 5.640625 31.957031 5.628906 31.929688 5.621094 C 31.910156 5.613281 31.890625 5.605469 31.871094 5.59375 C 31.863281 5.589844 31.851562 5.589844 31.84375 5.585938 L 31.53125 5.46875 C 31.488281 5.449219 31.445312 5.433594 31.398438 5.417969 L 31.3125 5.386719 C 31.238281 5.359375 31.160156 5.335938 31.085938 5.308594 C 31.066406 5.300781 31.046875 5.296875 31.027344 5.289062 C 31.011719 5.285156 30.996094 5.277344 30.976562 5.269531 C 30.96875 5.265625 30.957031 5.265625 30.949219 5.261719 L 30.839844 5.226562 C 30.757812 5.199219 30.675781 5.171875 30.59375 5.148438 L 30.484375 5.113281 C 30.386719 5.082031 30.292969 5.054688 30.195312 5.027344 L 29.984375 4.964844 C 29.859375 4.929688 29.730469 4.894531 29.601562 4.863281 L 29.445312 4.824219 C 29.339844 4.796875 29.234375 4.769531 29.128906 4.746094 C 29.105469 4.738281 29.085938 4.734375 29.0625 4.730469 L 29.042969 4.726562 C 29.035156 4.726562 29.03125 4.722656 29.027344 4.722656 L 28.964844 4.707031 C 28.855469 4.683594 28.746094 4.660156 28.636719 4.636719 C 28.628906 4.636719 28.628906 4.636719 28.621094 4.632812 L 28.605469 4.628906 C 28.582031 4.625 28.558594 4.621094 28.542969 4.617188 L 28.484375 4.605469 C 28.371094 4.585938 28.257812 4.5625 28.140625 4.542969 C 28.125 4.539062 28.109375 4.535156 28.089844 4.53125 C 28.082031 4.53125 28.074219 4.527344 28.066406 4.527344 C 27.917969 4.5 27.769531 4.476562 27.617188 4.453125 C 27.613281 4.449219 27.605469 4.449219 27.597656 4.449219 L 27.5625 4.445312 C 27.410156 4.421875 27.253906 4.402344 27.09375 4.378906 L 27.050781 4.375 C 26.902344 4.355469 26.75 4.339844 26.589844 4.320312 L 26.539062 4.316406 C 26.390625 4.300781 26.242188 4.289062 26.089844 4.277344 L 26.039062 4.273438 C 26.035156 4.273438 26.03125 4.273438 26.027344 4.269531 L 26 4.269531 C 25.855469 4.257812 25.714844 4.25 25.570312 4.242188 L 25.519531 4.238281 C 25.367188 4.230469 25.207031 4.226562 25.050781 4.21875 C 25.042969 4.21875 25.035156 4.21875 25.027344 4.21875 L 24.996094 4.21875 C 24.832031 4.21875 24.664062 4.214844 24.496094 4.214844 C 19.082031 4.214844 13.988281 6.324219 10.15625 10.15625 C 6.324219 13.988281 4.214844 19.082031 4.214844 24.5 C 4.214844 24.667969 4.214844 24.835938 4.222656 25.003906 L 4.222656 25.027344 C 4.222656 25.035156 4.222656 25.042969 4.222656 25.050781 C 4.226562 25.207031 4.234375 25.363281 4.242188 25.519531 L 4.246094 25.589844 C 4.253906 25.734375 4.261719 25.882812 4.269531 26.027344 C 4.269531 26.027344 4.269531 26.03125 4.269531 26.035156 L 4.277344 26.089844 C 4.285156 26.238281 4.300781 26.386719 4.316406 26.542969 C 4.316406 26.546875 4.316406 26.546875 4.316406 26.546875 C 4.316406 26.566406 4.320312 26.585938 4.320312 26.605469 L 4.324219 26.617188 C 4.339844 26.753906 4.351562 26.894531 4.371094 27.039062 L 4.375 27.054688 C 4.375 27.070312 4.375 27.085938 4.378906 27.097656 C 4.398438 27.257812 4.421875 27.414062 4.445312 27.574219 C 4.445312 27.582031 4.449219 27.59375 4.449219 27.601562 L 4.453125 27.625 C 4.46875 27.722656 4.484375 27.816406 4.5 27.914062 L 4.523438 28.054688 C 4.527344 28.074219 4.53125 28.089844 4.535156 28.109375 L 4.535156 28.113281 C 4.535156 28.117188 4.539062 28.125 4.539062 28.128906 C 4.5625 28.277344 4.589844 28.414062 4.617188 28.542969 L 4.632812 28.621094 C 4.632812 28.628906 4.636719 28.636719 4.636719 28.644531 C 4.652344 28.707031 4.664062 28.769531 4.679688 28.828125 C 4.691406 28.894531 4.707031 28.960938 4.722656 29.027344 C 4.722656 29.03125 4.722656 29.039062 4.726562 29.042969 L 4.746094 29.128906 C 4.777344 29.257812 4.804688 29.382812 4.835938 29.507812 C 4.847656 29.542969 4.855469 29.582031 4.867188 29.621094 C 4.898438 29.742188 4.933594 29.863281 4.96875 29.992188 L 5 30.097656 C 5.03125 30.222656 5.070312 30.347656 5.109375 30.476562 L 5.148438 30.605469 C 5.1875 30.722656 5.226562 30.84375 5.265625 30.957031 L 5.285156 31.011719 C 5.289062 31.03125 5.296875 31.050781 5.300781 31.066406 C 5.304688 31.074219 5.308594 31.082031 5.308594 31.089844 L 5.417969 31.402344 C 5.421875 31.40625 5.421875 31.414062 5.425781 31.421875 C 5.433594 31.4375 5.4375 31.453125 5.445312 31.46875 C 5.453125 31.5 5.464844 31.527344 5.476562 31.558594 C 5.515625 31.65625 5.550781 31.757812 5.589844 31.851562 C 5.601562 31.878906 5.609375 31.90625 5.621094 31.929688 C 5.628906 31.949219 5.636719 31.972656 5.644531 31.992188 C 5.648438 32 5.648438 32.007812 5.652344 32.015625 C 5.671875 32.058594 5.691406 32.105469 5.707031 32.148438 C 5.726562 32.199219 5.746094 32.246094 5.769531 32.296875 C 5.796875 32.363281 5.824219 32.429688 5.855469 32.5 L 5.882812 32.5625 C 5.90625 32.617188 5.929688 32.675781 5.957031 32.734375 C 5.980469 32.789062 6.003906 32.839844 6.027344 32.894531 L 6.058594 32.960938 C 6.0625 32.964844 6.0625 32.972656 6.066406 32.976562 C 6.09375 33.039062 6.125 33.101562 6.15625 33.167969 C 6.175781 33.210938 6.195312 33.25 6.214844 33.292969 C 6.234375 33.328125 6.25 33.363281 6.269531 33.402344 C 6.269531 33.40625 6.273438 33.410156 6.273438 33.417969 C 6.308594 33.480469 6.339844 33.542969 6.371094 33.601562 C 6.410156 33.6875 6.453125 33.769531 6.492188 33.847656 C 6.511719 33.882812 6.53125 33.921875 6.550781 33.957031 L 6.601562 34.054688 C 6.605469 34.058594 6.605469 34.0625 6.605469 34.066406 C 6.625 34.101562 6.644531 34.132812 6.664062 34.167969 L 6.714844 34.265625 C 6.71875 34.269531 6.722656 34.277344 6.726562 34.28125 C 6.746094 34.3125 6.761719 34.347656 6.78125 34.378906 C 6.800781 34.414062 6.824219 34.453125 6.839844 34.484375 L 7.003906 34.773438 C 7.007812 34.777344 7.011719 34.785156 7.015625 34.792969 L 7.070312 34.882812 C 7.132812 34.988281 7.195312 35.089844 7.257812 35.191406 C 7.269531 35.207031 7.28125 35.226562 7.292969 35.246094 L 7.304688 35.265625 C 7.308594 35.269531 7.308594 35.273438 7.3125 35.277344 C 7.347656 35.332031 7.382812 35.386719 7.417969 35.441406 C 7.449219 35.488281 7.480469 35.539062 7.511719 35.585938 C 7.515625 35.597656 7.523438 35.605469 7.527344 35.613281 L 7.566406 35.667969 C 7.636719 35.777344 7.710938 35.886719 7.789062 35.996094 L 7.8125 36.03125 C 8.183594 36.570312 8.582031 37.089844 8.996094 37.578125 C 9.003906 37.585938 9.011719 37.597656 9.019531 37.609375 C 9.113281 37.714844 9.207031 37.828125 9.304688 37.9375 C 9.308594 37.941406 9.3125 37.949219 9.316406 37.953125 C 9.871094 38.574219 10.453125 39.15625 11.046875 39.679688 C 11.050781 39.683594 11.058594 39.6875 11.0625 39.691406 C 11.171875 39.789062 11.28125 39.882812 11.390625 39.976562 C 11.394531 39.980469 11.398438 39.984375 11.402344 39.988281 L 11.410156 39.992188 C 11.519531 40.085938 11.628906 40.179688 11.742188 40.269531 C 11.75 40.277344 11.761719 40.289062 11.777344 40.296875 C 12.035156 40.503906 12.304688 40.710938 12.59375 40.921875 C 12.605469 40.933594 12.621094 40.945312 12.632812 40.953125 C 12.6875 40.992188 12.738281 41.027344 12.792969 41.066406 C 12.839844 41.101562 12.890625 41.132812 12.9375 41.167969 C 12.945312 41.171875 12.949219 41.179688 12.957031 41.183594 L 13.023438 41.226562 C 13.058594 41.25 13.09375 41.273438 13.128906 41.300781 C 13.191406 41.34375 13.257812 41.386719 13.320312 41.429688 C 13.332031 41.433594 13.339844 41.441406 13.351562 41.445312 C 13.363281 41.453125 13.375 41.464844 13.386719 41.472656 C 13.398438 41.480469 13.410156 41.484375 13.421875 41.492188 L 13.695312 41.667969 C 13.738281 41.699219 13.785156 41.726562 13.835938 41.753906 C 13.921875 41.808594 14.011719 41.863281 14.101562 41.917969 C 14.128906 41.9375 14.15625 41.953125 14.183594 41.96875 C 14.210938 41.984375 14.234375 41.996094 14.261719 42.011719 C 14.265625 42.015625 14.269531 42.019531 14.273438 42.019531 C 14.3125 42.042969 14.347656 42.0625 14.386719 42.085938 C 14.425781 42.109375 14.464844 42.132812 14.503906 42.152344 C 14.578125 42.195312 14.65625 42.238281 14.738281 42.285156 L 14.910156 42.375 C 14.996094 42.421875 15.078125 42.46875 15.160156 42.511719 L 15.355469 42.609375 C 15.398438 42.632812 15.4375 42.652344 15.480469 42.671875 C 15.515625 42.691406 15.550781 42.707031 15.585938 42.726562 C 15.59375 42.730469 15.601562 42.734375 15.609375 42.738281 C 15.636719 42.75 15.660156 42.761719 15.6875 42.773438 C 15.726562 42.792969 15.769531 42.8125 15.8125 42.832031 C 15.890625 42.871094 15.96875 42.90625 16.050781 42.945312 L 16.25 43.035156 C 16.296875 43.058594 16.347656 43.078125 16.394531 43.101562 C 16.441406 43.117188 16.484375 43.136719 16.53125 43.15625 C 16.535156 43.160156 16.539062 43.160156 16.542969 43.164062 L 16.6875 43.226562 C 16.691406 43.226562 16.695312 43.230469 16.699219 43.230469 C 16.75 43.25 16.796875 43.269531 16.847656 43.289062 C 16.894531 43.308594 16.945312 43.328125 16.996094 43.347656 L 17.121094 43.402344 C 17.128906 43.402344 17.136719 43.40625 17.144531 43.410156 L 17.453125 43.527344 C 17.480469 43.535156 17.503906 43.546875 17.53125 43.554688 C 17.546875 43.558594 17.5625 43.566406 17.582031 43.570312 C 17.691406 43.613281 17.800781 43.652344 17.914062 43.691406 C 17.929688 43.695312 17.945312 43.703125 17.960938 43.707031 C 17.984375 43.710938 18.003906 43.71875 18.03125 43.730469 C 18.113281 43.757812 18.199219 43.785156 18.285156 43.8125 L 18.402344 43.851562 C 18.402344 43.851562 18.40625 43.851562 18.410156 43.855469 C 18.441406 43.863281 18.46875 43.871094 18.496094 43.878906 C 18.5 43.882812 18.507812 43.882812 18.511719 43.886719 L 18.582031 43.90625 C 18.691406 43.941406 18.800781 43.972656 18.914062 44.003906 C 18.917969 44.003906 18.921875 44.007812 18.929688 44.007812 L 18.945312 44.011719 C 18.96875 44.019531 18.988281 44.027344 19.011719 44.03125 L 19.121094 44.0625 C 19.210938 44.085938 19.300781 44.113281 19.390625 44.132812 L 19.472656 44.15625 C 19.476562 44.15625 19.484375 44.160156 19.488281 44.160156 L 19.5 44.164062 C 19.621094 44.195312 19.746094 44.222656 19.871094 44.25 C 19.886719 44.253906 19.902344 44.257812 19.917969 44.261719 L 19.9375 44.269531 C 19.949219 44.269531 19.957031 44.273438 19.96875 44.277344 L 20.359375 44.363281 C 20.363281 44.363281 20.367188 44.363281 20.371094 44.363281 L 20.453125 44.378906 C 20.589844 44.40625 20.726562 44.433594 20.863281 44.460938 C 20.871094 44.460938 20.878906 44.460938 20.890625 44.464844 C 20.90625 44.46875 20.921875 44.46875 20.941406 44.472656 C 21.089844 44.5 21.238281 44.523438 21.378906 44.546875 L 21.410156 44.550781 C 21.414062 44.550781 21.417969 44.550781 21.421875 44.550781 C 21.582031 44.574219 21.738281 44.597656 21.902344 44.617188 L 21.945312 44.625 C 22.097656 44.644531 22.242188 44.660156 22.394531 44.675781 L 22.429688 44.679688 C 22.441406 44.683594 22.453125 44.683594 22.464844 44.683594 L 22.480469 44.683594 C 22.621094 44.699219 22.765625 44.710938 22.90625 44.722656 L 22.957031 44.726562 C 22.960938 44.726562 22.964844 44.726562 22.972656 44.726562 C 23.121094 44.738281 23.273438 44.746094 23.425781 44.757812 L 23.476562 44.757812 C 23.632812 44.765625 23.789062 44.773438 23.949219 44.777344 C 23.953125 44.777344 23.960938 44.777344 23.96875 44.777344 L 23.992188 44.777344 C 24.167969 44.78125 24.335938 44.78125 24.496094 44.78125 C 29.917969 44.78125 35.011719 42.671875 38.84375 38.84375 C 42.675781 35.011719 44.785156 29.917969 44.785156 24.5 C 44.785156 24.328125 44.78125 24.164062 44.777344 23.996094 L 44.777344 23.96875 C 44.777344 23.964844 44.777344 23.957031 44.777344 23.949219 C 44.769531 23.792969 44.765625 23.632812 44.757812 23.476562 L 44.753906 23.425781 C 44.746094 23.273438 44.738281 23.121094 44.726562 22.96875 C 44.726562 22.964844 44.726562 22.960938 44.726562 22.953125 L 44.722656 22.90625 C 44.710938 22.757812 44.699219 22.605469 44.683594 22.453125 C 44.679688 22.453125 44.679688 22.449219 44.679688 22.449219 C 44.679688 22.429688 44.679688 22.414062 44.675781 22.394531 C 44.660156 22.246094 44.644531 22.089844 44.621094 21.9375 L 44.617188 21.90625 C 44.597656 21.71875 44.574219 21.5625 44.550781 21.414062 L 44.546875 21.394531 C 44.523438 21.242188 44.5 21.09375 44.472656 20.949219 C 44.46875 20.921875 44.464844 20.890625 44.457031 20.855469 C 44.433594 20.710938 44.40625 20.574219 44.378906 20.445312 L 44.363281 20.371094 C 44.335938 20.238281 44.308594 20.105469 44.273438 19.972656 C 44.273438 19.957031 44.269531 19.9375 44.265625 19.921875 L 44.261719 19.90625 C 44.257812 19.894531 44.257812 19.882812 44.253906 19.871094 C 44.222656 19.742188 44.191406 19.613281 44.160156 19.484375 C 44.15625 19.480469 44.15625 19.476562 44.15625 19.472656 L 44.152344 19.457031 C 44.144531 19.433594 44.140625 19.410156 44.136719 19.390625 C 44.101562 19.257812 44.066406 19.132812 44.03125 19.007812 L 44.007812 18.917969 C 44.003906 18.914062 44.003906 18.90625 44.003906 18.902344 L 43.96875 18.789062 C 43.941406 18.691406 43.910156 18.597656 43.878906 18.5 L 43.851562 18.414062 C 43.816406 18.289062 43.773438 18.167969 43.734375 18.042969 C 43.734375 18.035156 43.730469 18.03125 43.730469 18.027344 L 43.691406 17.914062 C 43.671875 17.859375 43.652344 17.808594 43.636719 17.757812 C 43.617188 17.699219 43.597656 17.640625 43.574219 17.585938 C 43.574219 17.582031 43.570312 17.574219 43.570312 17.570312 C 43.554688 17.527344 43.539062 17.488281 43.523438 17.449219 C 43.484375 17.34375 43.445312 17.238281 43.40625 17.140625 C 43.402344 17.132812 43.402344 17.128906 43.402344 17.125 C 43.394531 17.109375 43.390625 17.09375 43.382812 17.078125 C 43.371094 17.050781 43.363281 17.023438 43.351562 16.996094 C 43.308594 16.890625 43.265625 16.789062 43.222656 16.6875 L 43.164062 16.542969 C 43.121094 16.441406 43.078125 16.339844 43.035156 16.25 C 43.003906 16.183594 42.976562 16.117188 42.945312 16.050781 L 42.890625 15.9375 C 42.875 15.894531 42.855469 15.855469 42.835938 15.8125 C 42.832031 15.808594 42.828125 15.800781 42.828125 15.796875 C 42.8125 15.765625 42.796875 15.734375 42.78125 15.703125 C 42.765625 15.671875 42.75 15.636719 42.730469 15.601562 C 42.695312 15.519531 42.65625 15.445312 42.613281 15.363281 C 42.578125 15.296875 42.542969 15.226562 42.507812 15.160156 L 42.386719 14.921875 C 42.382812 14.917969 42.382812 14.914062 42.378906 14.910156 L 42.285156 14.734375 C 42.242188 14.65625 42.199219 14.582031 42.152344 14.503906 C 42.109375 14.425781 42.0625 14.34375 42.019531 14.273438 C 42.003906 14.242188 41.984375 14.210938 41.964844 14.175781 C 41.949219 14.15625 41.9375 14.132812 41.921875 14.105469 C 41.867188 14.011719 41.808594 13.921875 41.753906 13.828125 C 41.75 13.820312 41.746094 13.816406 41.738281 13.808594 C 41.730469 13.792969 41.71875 13.777344 41.710938 13.761719 C 41.699219 13.742188 41.683594 13.722656 41.671875 13.703125 C 41.617188 13.609375 41.554688 13.515625 41.496094 13.425781 C 41.472656 13.390625 41.449219 13.351562 41.421875 13.3125 L 41.367188 13.234375 C 41.320312 13.160156 41.273438 13.089844 41.222656 13.019531 C 41.214844 13.003906 41.203125 12.992188 41.195312 12.976562 L 41.179688 12.957031 C 41.179688 12.953125 41.175781 12.953125 41.175781 12.949219 C 41.109375 12.855469 41.042969 12.761719 40.972656 12.664062 C 40.964844 12.648438 40.953125 12.636719 40.945312 12.621094 C 40.722656 12.316406 40.496094 12.023438 40.273438 11.742188 C 40.261719 11.730469 40.25 11.714844 40.238281 11.703125 C 40.15625 11.605469 40.074219 11.503906 39.992188 11.40625 C 39.984375 11.394531 39.972656 11.386719 39.964844 11.375 C 39.859375 11.253906 39.773438 11.152344 39.691406 11.058594 C 39.6875 11.054688 39.683594 11.050781 39.679688 11.046875 C 39.128906 10.425781 38.546875 9.84375 37.949219 9.316406 Z M 39.019531 12.25 C 39.105469 12.351562 39.1875 12.449219 39.269531 12.550781 C 39.277344 12.5625 39.289062 12.574219 39.300781 12.585938 C 39.496094 12.832031 39.691406 13.085938 39.886719 13.351562 C 39.894531 13.363281 39.902344 13.378906 39.910156 13.390625 C 39.980469 13.484375 40.046875 13.582031 40.113281 13.675781 C 40.125 13.691406 40.132812 13.703125 40.144531 13.71875 L 40.15625 13.738281 C 40.160156 13.742188 40.164062 13.746094 40.167969 13.75 C 40.210938 13.816406 40.257812 13.882812 40.300781 13.949219 L 40.355469 14.03125 C 40.371094 14.050781 40.382812 14.070312 40.394531 14.089844 C 40.402344 14.101562 40.410156 14.113281 40.414062 14.125 C 40.472656 14.210938 40.527344 14.296875 40.582031 14.382812 C 40.585938 14.390625 40.589844 14.398438 40.59375 14.40625 C 40.605469 14.421875 40.613281 14.4375 40.625 14.449219 C 40.636719 14.472656 40.652344 14.492188 40.664062 14.511719 C 40.714844 14.59375 40.765625 14.675781 40.808594 14.75 C 40.828125 14.78125 40.847656 14.816406 40.867188 14.847656 C 40.878906 14.867188 40.894531 14.890625 40.910156 14.917969 C 40.949219 14.988281 40.992188 15.0625 41.03125 15.132812 C 41.03125 15.136719 41.035156 15.140625 41.039062 15.148438 C 41.082031 15.21875 41.117188 15.285156 41.15625 15.351562 L 41.367188 15.753906 C 41.371094 15.757812 41.371094 15.761719 41.375 15.765625 C 41.402344 15.820312 41.433594 15.875 41.460938 15.929688 C 41.460938 15.9375 41.464844 15.945312 41.46875 15.949219 C 41.503906 16.015625 41.539062 16.082031 41.570312 16.152344 C 41.574219 16.15625 41.574219 16.164062 41.578125 16.167969 C 41.59375 16.199219 41.609375 16.230469 41.625 16.261719 C 41.640625 16.296875 41.65625 16.328125 41.671875 16.363281 L 41.777344 16.589844 C 41.804688 16.648438 41.832031 16.707031 41.863281 16.777344 C 41.902344 16.863281 41.941406 16.949219 41.976562 17.039062 L 42.039062 17.1875 C 42.078125 17.28125 42.117188 17.375 42.15625 17.46875 C 42.15625 17.472656 42.160156 17.476562 42.160156 17.480469 C 42.167969 17.496094 42.171875 17.511719 42.179688 17.527344 C 42.1875 17.554688 42.199219 17.578125 42.207031 17.605469 C 42.246094 17.703125 42.285156 17.804688 42.320312 17.90625 C 42.324219 17.910156 42.324219 17.914062 42.328125 17.917969 C 42.339844 17.949219 42.351562 17.984375 42.367188 18.023438 C 42.382812 18.074219 42.402344 18.125 42.417969 18.175781 C 42.4375 18.230469 42.460938 18.289062 42.480469 18.347656 L 42.515625 18.445312 C 42.550781 18.558594 42.589844 18.675781 42.625 18.789062 L 42.65625 18.886719 C 42.65625 18.890625 42.65625 18.894531 42.660156 18.898438 C 42.6875 18.984375 42.710938 19.066406 42.734375 19.152344 L 42.792969 19.351562 C 42.828125 19.476562 42.859375 19.597656 42.894531 19.722656 L 42.898438 19.742188 C 42.902344 19.761719 42.90625 19.78125 42.914062 19.804688 C 42.941406 19.921875 42.972656 20.039062 43 20.160156 C 43.003906 20.175781 43.007812 20.191406 43.011719 20.207031 L 43.015625 20.222656 C 43.015625 20.234375 43.019531 20.246094 43.023438 20.257812 C 43.050781 20.378906 43.078125 20.503906 43.101562 20.628906 L 43.121094 20.707031 C 43.144531 20.832031 43.171875 20.960938 43.191406 21.09375 C 43.195312 21.105469 43.195312 21.113281 43.199219 21.125 C 43.199219 21.136719 43.203125 21.148438 43.203125 21.160156 C 43.230469 21.304688 43.253906 21.4375 43.273438 21.582031 L 43.28125 21.617188 C 43.28125 21.621094 43.28125 21.621094 43.28125 21.625 C 43.304688 21.753906 43.320312 21.890625 43.339844 22.058594 C 43.34375 22.0625 43.34375 22.066406 43.34375 22.070312 L 43.347656 22.113281 C 43.367188 22.25 43.382812 22.386719 43.398438 22.535156 C 43.398438 22.539062 43.398438 22.539062 43.398438 22.542969 C 43.398438 22.5625 43.402344 22.578125 43.402344 22.597656 C 43.417969 22.734375 43.429688 22.871094 43.441406 23.007812 C 43.441406 23.011719 43.441406 23.015625 43.441406 23.023438 L 43.445312 23.066406 C 43.457031 23.210938 43.464844 23.351562 43.472656 23.496094 L 43.472656 23.542969 C 43.480469 23.6875 43.484375 23.835938 43.492188 23.980469 L 43.492188 24.003906 C 43.492188 24.011719 43.492188 24.019531 43.492188 24.023438 C 43.496094 24.183594 43.5 24.339844 43.5 24.5 C 43.5 34.976562 34.976562 43.496094 24.496094 43.496094 C 24.335938 43.496094 24.179688 43.496094 24.023438 43.492188 C 24.015625 43.492188 24.011719 43.492188 24.003906 43.492188 L 23.980469 43.492188 C 23.835938 43.488281 23.6875 43.480469 23.542969 43.476562 L 23.492188 43.472656 C 23.351562 43.464844 23.207031 43.453125 23.070312 43.445312 L 23.019531 43.441406 C 23.011719 43.441406 23.007812 43.4375 23.003906 43.4375 C 22.867188 43.429688 22.734375 43.417969 22.597656 43.40625 L 22.558594 43.398438 C 22.546875 43.398438 22.535156 43.398438 22.523438 43.394531 C 22.390625 43.382812 22.253906 43.367188 22.105469 43.347656 L 22.070312 43.34375 C 21.917969 43.324219 21.769531 43.304688 21.617188 43.28125 L 21.585938 43.277344 C 21.441406 43.253906 21.296875 43.230469 21.15625 43.207031 C 21.152344 43.203125 21.144531 43.203125 21.140625 43.203125 C 21.121094 43.199219 21.105469 43.195312 21.089844 43.195312 C 20.957031 43.167969 20.828125 43.144531 20.699219 43.121094 L 20.257812 43.023438 C 20.242188 43.019531 20.226562 43.015625 20.214844 43.011719 L 20.191406 43.007812 C 20.183594 43.003906 20.171875 43.003906 20.164062 43 C 20.042969 42.972656 19.925781 42.945312 19.804688 42.914062 L 19.722656 42.894531 C 19.71875 42.890625 19.714844 42.890625 19.710938 42.890625 C 19.628906 42.867188 19.542969 42.84375 19.460938 42.824219 L 19.34375 42.789062 C 19.339844 42.789062 19.339844 42.789062 19.335938 42.789062 L 19.320312 42.785156 C 19.296875 42.777344 19.277344 42.769531 19.253906 42.765625 C 19.152344 42.734375 19.050781 42.707031 18.953125 42.675781 L 18.890625 42.65625 C 18.859375 42.648438 18.824219 42.636719 18.792969 42.625 L 18.675781 42.589844 C 18.601562 42.566406 18.527344 42.542969 18.457031 42.515625 C 18.417969 42.503906 18.375 42.488281 18.324219 42.472656 C 18.222656 42.4375 18.121094 42.402344 18.027344 42.367188 C 18.003906 42.355469 17.976562 42.347656 17.949219 42.339844 C 17.933594 42.332031 17.917969 42.328125 17.902344 42.324219 L 17.605469 42.210938 L 17.480469 42.160156 C 17.476562 42.15625 17.472656 42.15625 17.472656 42.15625 C 17.421875 42.136719 17.375 42.117188 17.328125 42.097656 C 17.277344 42.078125 17.230469 42.058594 17.179688 42.039062 L 17.046875 41.980469 C 17 41.960938 16.953125 41.941406 16.90625 41.917969 C 16.859375 41.898438 16.816406 41.878906 16.777344 41.863281 L 16.589844 41.78125 C 16.519531 41.746094 16.445312 41.710938 16.371094 41.675781 C 16.363281 41.671875 16.355469 41.667969 16.347656 41.664062 C 16.308594 41.648438 16.273438 41.628906 16.238281 41.613281 C 16.214844 41.601562 16.1875 41.589844 16.160156 41.578125 C 16.125 41.558594 16.085938 41.539062 16.046875 41.519531 C 16.011719 41.503906 15.980469 41.484375 15.949219 41.46875 C 15.914062 41.453125 15.878906 41.433594 15.84375 41.417969 L 15.753906 41.371094 C 15.675781 41.332031 15.605469 41.292969 15.527344 41.25 L 15.355469 41.15625 C 15.28125 41.117188 15.210938 41.074219 15.140625 41.035156 C 15.101562 41.015625 15.066406 40.992188 15.027344 40.972656 C 14.992188 40.949219 14.953125 40.929688 14.914062 40.90625 C 14.886719 40.890625 14.863281 40.875 14.835938 40.859375 L 14.761719 40.816406 C 14.675781 40.765625 14.59375 40.714844 14.511719 40.660156 C 14.503906 40.65625 14.492188 40.648438 14.480469 40.644531 C 14.453125 40.628906 14.429688 40.613281 14.40625 40.597656 C 14.402344 40.59375 14.398438 40.589844 14.394531 40.589844 L 14.125 40.417969 C 14.089844 40.394531 14.054688 40.367188 14.015625 40.347656 C 13.960938 40.3125 13.910156 40.273438 13.855469 40.238281 C 13.820312 40.210938 13.78125 40.1875 13.738281 40.160156 L 13.679688 40.117188 C 13.628906 40.082031 13.582031 40.050781 13.53125 40.015625 C 13.492188 39.988281 13.453125 39.957031 13.414062 39.929688 C 13.402344 39.921875 13.390625 39.910156 13.378906 39.902344 C 13.082031 39.6875 12.8125 39.480469 12.554688 39.269531 C 12.539062 39.261719 12.527344 39.253906 12.515625 39.242188 C 12.421875 39.167969 12.328125 39.089844 12.238281 39.011719 C 12.230469 39.007812 12.226562 39.003906 12.222656 39 L 12.21875 38.992188 C 12.117188 38.910156 12.019531 38.824219 11.921875 38.738281 C 11.917969 38.734375 11.914062 38.730469 11.910156 38.726562 C 11.347656 38.230469 10.792969 37.679688 10.269531 37.089844 C 10.265625 37.085938 10.265625 37.082031 10.261719 37.078125 C 10.179688 36.984375 10.097656 36.890625 10.015625 36.792969 C 10.007812 36.785156 10 36.777344 9.992188 36.765625 C 9.597656 36.304688 9.21875 35.808594 8.867188 35.296875 L 8.859375 35.285156 L 8.835938 35.253906 C 8.769531 35.15625 8.703125 35.058594 8.632812 34.953125 C 8.632812 34.949219 8.628906 34.941406 8.625 34.9375 L 8.59375 34.890625 C 8.558594 34.839844 8.527344 34.792969 8.496094 34.742188 C 8.464844 34.695312 8.433594 34.648438 8.40625 34.601562 C 8.394531 34.582031 8.382812 34.5625 8.371094 34.546875 L 8.355469 34.523438 C 8.296875 34.421875 8.234375 34.324219 8.175781 34.226562 C 8.175781 34.222656 8.171875 34.21875 8.171875 34.21875 L 7.957031 33.84375 C 7.9375 33.8125 7.917969 33.78125 7.902344 33.746094 C 7.882812 33.714844 7.863281 33.679688 7.84375 33.648438 C 7.828125 33.613281 7.808594 33.582031 7.792969 33.550781 L 7.742188 33.457031 C 7.722656 33.421875 7.703125 33.390625 7.6875 33.355469 L 7.628906 33.25 C 7.59375 33.179688 7.558594 33.109375 7.523438 33.035156 C 7.519531 33.027344 7.515625 33.023438 7.515625 33.015625 C 7.484375 32.964844 7.457031 32.90625 7.429688 32.851562 C 7.410156 32.8125 7.390625 32.769531 7.371094 32.730469 C 7.355469 32.695312 7.335938 32.660156 7.320312 32.625 C 7.289062 32.558594 7.257812 32.492188 7.226562 32.425781 L 7.199219 32.363281 C 7.175781 32.316406 7.15625 32.269531 7.136719 32.222656 C 7.136719 32.21875 7.132812 32.214844 7.132812 32.210938 C 7.109375 32.160156 7.085938 32.105469 7.0625 32.054688 L 7.03125 31.980469 C 7.03125 31.976562 7.027344 31.972656 7.027344 31.96875 C 7 31.914062 6.976562 31.859375 6.953125 31.800781 C 6.9375 31.757812 6.917969 31.714844 6.898438 31.667969 C 6.882812 31.625 6.863281 31.578125 6.84375 31.53125 C 6.835938 31.507812 6.824219 31.484375 6.816406 31.457031 C 6.808594 31.4375 6.800781 31.417969 6.792969 31.398438 C 6.789062 31.390625 6.789062 31.386719 6.785156 31.378906 C 6.75 31.289062 6.714844 31.199219 6.679688 31.105469 C 6.675781 31.097656 6.675781 31.089844 6.671875 31.082031 C 6.664062 31.0625 6.65625 31.042969 6.652344 31.027344 C 6.644531 31.007812 6.636719 30.988281 6.628906 30.964844 L 6.527344 30.671875 C 6.515625 30.644531 6.507812 30.617188 6.496094 30.589844 L 6.484375 30.546875 C 6.445312 30.4375 6.410156 30.324219 6.375 30.21875 L 6.339844 30.097656 C 6.304688 29.980469 6.269531 29.863281 6.234375 29.746094 L 6.203125 29.640625 C 6.171875 29.523438 6.140625 29.40625 6.109375 29.289062 C 6.105469 29.277344 6.105469 29.265625 6.101562 29.257812 C 6.09375 29.234375 6.089844 29.214844 6.082031 29.191406 C 6.054688 29.074219 6.027344 28.953125 6 28.835938 C 5.996094 28.832031 5.996094 28.828125 5.996094 28.824219 L 5.972656 28.738281 C 5.960938 28.679688 5.949219 28.621094 5.933594 28.5625 C 5.921875 28.5 5.910156 28.4375 5.894531 28.375 L 5.882812 28.304688 C 5.878906 28.296875 5.878906 28.289062 5.878906 28.285156 C 5.855469 28.171875 5.828125 28.050781 5.808594 27.921875 C 5.800781 27.882812 5.792969 27.847656 5.789062 27.824219 L 5.769531 27.703125 C 5.753906 27.609375 5.738281 27.515625 5.722656 27.425781 C 5.722656 27.414062 5.722656 27.402344 5.71875 27.390625 L 5.714844 27.367188 C 5.691406 27.226562 5.675781 27.089844 5.65625 26.949219 L 5.652344 26.929688 C 5.652344 26.917969 5.652344 26.902344 5.648438 26.886719 C 5.632812 26.753906 5.617188 26.613281 5.601562 26.480469 L 5.601562 26.464844 C 5.597656 26.460938 5.597656 26.457031 5.597656 26.453125 L 5.597656 26.460938 C 5.597656 26.4375 5.597656 26.417969 5.59375 26.398438 C 5.578125 26.257812 5.566406 26.125 5.558594 25.992188 C 5.558594 25.992188 5.558594 25.988281 5.558594 25.984375 L 5.550781 25.929688 C 5.542969 25.792969 5.535156 25.65625 5.527344 25.519531 L 5.523438 25.457031 C 5.515625 25.308594 5.511719 25.164062 5.507812 25.015625 L 5.507812 24.992188 C 5.507812 24.988281 5.507812 24.980469 5.507812 24.972656 C 5.5 24.816406 5.5 24.660156 5.5 24.5 C 5.5 14.023438 14.023438 5.5 24.496094 5.5 C 24.660156 5.5 24.816406 5.503906 24.984375 5.503906 C 24.988281 5.503906 24.992188 5.503906 24.996094 5.503906 L 25.019531 5.503906 C 25.164062 5.511719 25.308594 5.515625 25.453125 5.523438 L 25.503906 5.527344 C 25.640625 5.53125 25.773438 5.542969 25.90625 5.550781 L 25.980469 5.558594 C 25.984375 5.558594 25.988281 5.558594 25.992188 5.558594 C 26.132812 5.570312 26.269531 5.582031 26.402344 5.597656 C 26.40625 5.597656 26.410156 5.597656 26.414062 5.597656 L 26.464844 5.601562 C 26.609375 5.617188 26.75 5.632812 26.894531 5.648438 L 26.929688 5.652344 C 27.078125 5.675781 27.226562 5.695312 27.378906 5.71875 C 27.382812 5.71875 27.390625 5.71875 27.394531 5.71875 L 27.425781 5.722656 C 27.5625 5.746094 27.695312 5.765625 27.828125 5.789062 C 27.839844 5.792969 27.855469 5.796875 27.871094 5.800781 C 27.882812 5.800781 27.894531 5.804688 27.90625 5.804688 C 28.019531 5.824219 28.128906 5.847656 28.242188 5.867188 L 28.320312 5.882812 C 28.339844 5.890625 28.363281 5.894531 28.382812 5.898438 C 28.484375 5.917969 28.582031 5.941406 28.683594 5.964844 L 28.738281 5.976562 C 28.757812 5.980469 28.78125 5.984375 28.800781 5.988281 L 28.824219 5.992188 C 28.828125 5.996094 28.832031 5.996094 28.835938 5.996094 C 28.9375 6.019531 29.035156 6.042969 29.132812 6.070312 L 29.285156 6.109375 C 29.40625 6.136719 29.523438 6.171875 29.636719 6.203125 L 29.832031 6.257812 C 29.917969 6.285156 30 6.308594 30.09375 6.339844 L 30.214844 6.375 C 30.21875 6.378906 30.222656 6.378906 30.226562 6.378906 C 30.296875 6.402344 30.371094 6.425781 30.441406 6.449219 L 30.542969 6.480469 C 30.5625 6.488281 30.578125 6.496094 30.597656 6.5 C 30.617188 6.507812 30.632812 6.511719 30.648438 6.519531 C 30.660156 6.523438 30.671875 6.527344 30.679688 6.53125 C 30.746094 6.550781 30.8125 6.574219 30.878906 6.597656 L 30.976562 6.632812 C 30.980469 6.632812 30.984375 6.636719 30.988281 6.636719 C 31.011719 6.644531 31.035156 6.65625 31.058594 6.664062 L 31.09375 6.679688 C 31.097656 6.679688 31.101562 6.679688 31.105469 6.683594 L 31.386719 6.785156 C 31.410156 6.796875 31.433594 6.804688 31.457031 6.816406 C 31.480469 6.824219 31.5 6.832031 31.519531 6.839844 C 31.527344 6.84375 31.53125 6.84375 31.539062 6.847656 C 31.625 6.878906 31.710938 6.917969 31.800781 6.957031 L 31.988281 7.035156 C 32.035156 7.054688 32.085938 7.074219 32.132812 7.097656 L 32.210938 7.132812 C 32.285156 7.164062 32.355469 7.195312 32.417969 7.226562 C 32.457031 7.242188 32.492188 7.261719 32.53125 7.277344 C 32.558594 7.289062 32.585938 7.300781 32.613281 7.316406 C 32.652344 7.335938 32.695312 7.355469 32.734375 7.375 C 32.769531 7.390625 32.804688 7.40625 32.839844 7.425781 C 32.878906 7.445312 32.917969 7.464844 32.960938 7.484375 C 32.980469 7.492188 33 7.503906 33.023438 7.515625 C 33.058594 7.535156 33.097656 7.554688 33.136719 7.574219 C 33.175781 7.59375 33.210938 7.613281 33.253906 7.636719 C 33.320312 7.671875 33.390625 7.707031 33.453125 7.742188 L 33.515625 7.773438 C 33.554688 7.792969 33.589844 7.8125 33.628906 7.835938 C 33.640625 7.839844 33.652344 7.847656 33.664062 7.855469 C 33.707031 7.878906 33.75 7.902344 33.796875 7.925781 L 33.855469 7.960938 C 33.945312 8.011719 34.03125 8.0625 34.117188 8.113281 C 34.128906 8.121094 34.136719 8.125 34.148438 8.128906 C 34.164062 8.140625 34.183594 8.148438 34.199219 8.160156 L 34.527344 8.359375 C 34.539062 8.367188 34.554688 8.375 34.566406 8.386719 C 34.574219 8.390625 34.589844 8.402344 34.601562 8.40625 C 34.699219 8.46875 34.792969 8.527344 34.894531 8.59375 L 34.953125 8.632812 C 35.054688 8.699219 35.160156 8.773438 35.261719 8.84375 C 35.265625 8.847656 35.273438 8.847656 35.277344 8.851562 L 35.304688 8.871094 C 35.796875 9.210938 36.28125 9.582031 36.75 9.976562 C 36.757812 9.984375 36.769531 9.996094 36.777344 10.003906 C 36.878906 10.085938 36.976562 10.171875 37.078125 10.261719 C 37.082031 10.265625 37.085938 10.269531 37.089844 10.273438 C 37.65625 10.769531 38.207031 11.324219 38.726562 11.910156 C 38.730469 11.914062 38.738281 11.921875 38.742188 11.925781 C 38.816406 12.007812 38.898438 12.101562 38.992188 12.21875 C 39.003906 12.230469 39.011719 12.238281 39.019531 12.25 Z M 24.496094 1.816406 C 18.441406 1.816406 12.746094 4.175781 8.460938 8.460938 C 4.179688 12.746094 1.820312 18.441406 1.820312 24.5 C 1.820312 30.558594 4.179688 36.253906 8.460938 40.535156 C 12.746094 44.820312 18.441406 47.179688 24.496094 47.179688 C 30.558594 47.179688 36.253906 44.820312 40.535156 40.535156 C 44.820312 36.253906 47.179688 30.558594 47.179688 24.5 C 47.179688 18.441406 44.820312 12.746094 40.535156 8.460938 C 36.253906 4.175781 30.558594 1.816406 24.496094 1.816406 Z M 24.496094 45.894531 C 12.703125 45.894531 3.105469 36.296875 3.105469 24.5 C 3.105469 12.703125 12.703125 3.101562 24.496094 3.101562 C 36.296875 3.101562 45.894531 12.703125 45.894531 24.5 C 45.894531 36.296875 36.296875 45.894531 24.496094 45.894531 Z M 33.042969 9.359375 C 32.554688 9.25 32.0625 9.484375 31.839844 9.9375 L 25.054688 24.074219 C 24.695312 24.8125 24.742188 25.636719 25.179688 26.339844 C 25.621094 27.035156 26.34375 27.433594 27.164062 27.433594 L 30.203125 27.433594 L 30.203125 37.832031 C 30.203125 38.84375 31.027344 39.664062 32.039062 39.664062 L 32.375 39.664062 C 33.199219 39.664062 33.871094 38.992188 33.871094 38.167969 L 33.871094 10.398438 C 33.871094 9.898438 33.53125 9.46875 33.042969 9.359375 Z M 32.585938 38.167969 C 32.585938 38.28125 32.488281 38.378906 32.375 38.378906 L 32.039062 38.378906 C 31.734375 38.378906 31.488281 38.132812 31.488281 37.832031 L 31.488281 26.789062 C 31.488281 26.433594 31.199219 26.148438 30.847656 26.148438 L 27.164062 26.148438 C 26.78125 26.148438 26.472656 25.976562 26.269531 25.652344 C 26.0625 25.328125 26.042969 24.976562 26.210938 24.632812 L 32.585938 11.355469 Z M 25.832031 9.976562 C 25.832031 9.621094 25.542969 9.332031 25.1875 9.332031 L 23.167969 9.332031 C 22.8125 9.332031 22.523438 9.621094 22.523438 9.976562 L 22.523438 16.148438 L 22.128906 16.148438 L 22.128906 9.976562 C 22.128906 9.621094 21.839844 9.332031 21.484375 9.332031 L 19.46875 9.332031 C 19.113281 9.332031 18.828125 9.621094 18.828125 9.976562 L 18.828125 16.148438 L 18.429688 16.148438 L 18.429688 9.976562 C 18.429688 9.621094 18.140625 9.332031 17.785156 9.332031 L 15.769531 9.332031 C 15.414062 9.332031 15.125 9.621094 15.125 9.976562 L 15.125 17.128906 C 15.125 19.390625 16.546875 21.390625 18.640625 22.160156 L 18.640625 37.832031 C 18.640625 38.84375 19.464844 39.664062 20.476562 39.664062 L 20.816406 39.664062 C 21.640625 39.664062 22.3125 38.992188 22.3125 38.167969 L 22.3125 22.160156 C 24.40625 21.390625 25.832031 19.390625 25.832031 17.128906 Z M 24.542969 17.128906 C 24.542969 18.976562 23.296875 20.59375 21.507812 21.066406 C 21.226562 21.140625 21.027344 21.394531 21.027344 21.6875 L 21.027344 38.167969 C 21.027344 38.28125 20.929688 38.378906 20.816406 38.378906 L 20.476562 38.378906 C 20.171875 38.378906 19.925781 38.132812 19.925781 37.832031 L 19.925781 21.6875 C 19.925781 21.394531 19.730469 21.140625 19.449219 21.066406 C 17.660156 20.59375 16.410156 18.976562 16.410156 17.128906 L 16.410156 10.617188 L 17.140625 10.617188 L 17.140625 16.789062 C 17.140625 17.144531 17.429688 17.433594 17.785156 17.433594 L 19.46875 17.433594 C 19.824219 17.433594 20.113281 17.144531 20.113281 16.789062 L 20.113281 10.617188 L 20.84375 10.617188 L 20.84375 16.789062 C 20.84375 17.144531 21.132812 17.433594 21.484375 17.433594 L 23.167969 17.433594 C 23.523438 17.433594 23.808594 17.144531 23.808594 16.789062 L 23.808594 10.617188 L 24.542969 10.617188 Z M 24.542969 17.128906 " fill-opacity="1" fill-rule="nonzero"/></g></svg>