<svg xmlns="http://www.w3.org/2000/svg" xmlns:xlink="http://www.w3.org/1999/xlink" width="66" zoomAndPan="magnify" viewBox="0 0 49.5 49.499998" height="66" preserveAspectRatio="xMidYMid meet" version="1.0"><defs><clipPath id="53b3b62841"><path d="M 2.449219 7.742188 L 46.257812 7.742188 L 46.257812 41 L 2.449219 41 Z M 2.449219 7.742188 " clip-rule="nonzero"/></clipPath></defs><g clip-path="url(#53b3b62841)"><path fill="#bbab99" d="M 46.40625 32.335938 C 46.417969 30.324219 46.546875 28.292969 45.554688 26.453125 C 44.699219 24.863281 43.257812 23.707031 41.597656 23.144531 L 41.597656 13.859375 C 41.597656 13.113281 41.46875 12.390625 41.117188 11.722656 C 40.429688 10.421875 39.0625 9.636719 37.613281 9.582031 C 37.589844 9.582031 37.5625 9.582031 37.535156 9.578125 L 31.175781 9.578125 C 30.5625 8.945312 29.710938 8.582031 28.875 8.324219 C 27.488281 7.894531 26 7.742188 24.550781 7.742188 C 23.101562 7.742188 21.613281 7.894531 20.226562 8.324219 C 19.390625 8.582031 18.539062 8.945312 17.925781 9.578125 L 12.628906 9.578125 C 11.769531 9.578125 10.863281 9.511719 10.039062 9.808594 C 8.414062 10.394531 7.34375 11.917969 7.320312 13.640625 C 7.273438 16.8125 7.304688 19.984375 7.316406 23.15625 C 6.359375 23.46875 5.46875 23.976562 4.699219 24.707031 C 3.59375 25.757812 2.835938 27.179688 2.601562 28.6875 C 2.453125 29.667969 2.507812 30.683594 2.507812 31.675781 L 2.507812 32.351562 C 2.476562 32.425781 2.460938 32.507812 2.460938 32.59375 L 2.460938 35.398438 C 2.460938 35.753906 2.757812 36.050781 3.109375 36.050781 C 4.273438 36.050781 5.355469 36.761719 5.8125 37.835938 C 6.050781 38.398438 5.949219 38.972656 6.117188 39.539062 C 6.308594 40.199219 6.894531 40.699219 7.566406 40.808594 C 8.179688 40.90625 8.835938 40.796875 9.3125 40.378906 C 9.875 39.886719 9.859375 39.296875 9.949219 38.625 C 10.109375 37.425781 11.015625 36.433594 12.179688 36.136719 C 12.839844 35.972656 13.605469 36.050781 14.277344 36.050781 L 29.347656 36.050781 C 31.558594 36.050781 33.769531 36.027344 35.980469 36.050781 C 36.871094 36.058594 37.683594 36.414062 38.273438 37.085938 C 38.652344 37.519531 38.898438 38.082031 38.96875 38.65625 C 39.054688 39.355469 39.070312 39.949219 39.667969 40.429688 C 40.699219 41.257812 42.476562 40.816406 42.8125 39.484375 C 42.953125 38.929688 42.871094 38.382812 43.101562 37.835938 C 43.328125 37.304688 43.726562 36.828125 44.214844 36.519531 C 44.691406 36.214844 45.234375 36.050781 45.804688 36.050781 C 46.15625 36.050781 46.457031 35.753906 46.457031 35.398438 L 46.457031 32.59375 C 46.457031 32.496094 46.4375 32.410156 46.40625 32.335938 Z M 42.480469 36.367188 C 42.058594 36.90625 41.761719 37.539062 41.644531 38.214844 C 41.578125 38.605469 41.710938 39.335938 41.230469 39.503906 C 40.824219 39.648438 40.335938 39.476562 40.289062 39.019531 C 40.226562 38.351562 40.148438 37.761719 39.859375 37.148438 C 39.296875 35.96875 38.136719 35.066406 36.851562 34.832031 C 36.128906 34.699219 35.367188 34.75 34.636719 34.75 L 19.570312 34.75 C 17.355469 34.75 15.144531 34.726562 12.933594 34.75 C 11.9375 34.757812 10.996094 35.074219 10.214844 35.699219 C 9.714844 36.101562 9.300781 36.617188 9.03125 37.203125 C 8.75 37.820312 8.722656 38.390625 8.625 39.050781 C 8.558594 39.488281 8.074219 39.644531 7.6875 39.503906 C 7.195312 39.332031 7.332031 38.554688 7.261719 38.15625 C 7.027344 36.882812 6.132812 35.734375 4.964844 35.175781 C 4.582031 34.996094 4.175781 34.867188 3.761719 34.800781 L 3.761719 33.246094 L 40.535156 33.246094 C 42.070312 33.246094 43.617188 33.292969 45.152344 33.261719 L 45.152344 34.800781 C 44.105469 34.96875 43.140625 35.527344 42.480469 36.367188 Z M 8.621094 13.769531 C 8.628906 12.117188 9.847656 10.886719 11.503906 10.882812 C 13.007812 10.878906 14.515625 10.882812 16.023438 10.882812 L 17.992188 10.882812 C 18.246094 10.882812 18.46875 10.882812 18.679688 10.691406 C 18.796875 10.585938 18.867188 10.445312 19.035156 10.308594 C 19.230469 10.152344 19.457031 10.03125 19.679688 9.921875 C 20.917969 9.316406 22.390625 9.125 23.75 9.0625 C 25.308594 8.992188 26.90625 9.101562 28.410156 9.542969 C 28.941406 9.699219 29.460938 9.898438 29.921875 10.207031 C 30.292969 10.453125 30.421875 10.851562 30.898438 10.882812 C 31.378906 10.914062 31.875 10.882812 32.359375 10.882812 L 37.535156 10.882812 C 38.65625 10.902344 39.683594 11.566406 40.101562 12.617188 C 40.269531 13.035156 40.292969 13.464844 40.292969 13.90625 L 40.292969 22.832031 C 40.003906 22.792969 39.714844 22.769531 39.421875 22.761719 C 39.421875 21.222656 39.425781 19.679688 39.421875 18.136719 C 39.414062 16.742188 38.582031 15.441406 37.15625 15.132812 C 36.554688 15.003906 35.898438 15.058594 35.292969 15.058594 L 28.617188 15.058594 C 27.992188 15.058594 27.367188 15.046875 26.746094 15.058594 C 25.8125 15.078125 24.996094 15.5 24.460938 16.160156 C 24.074219 15.65625 23.527344 15.28125 22.84375 15.132812 C 22.246094 15.003906 21.589844 15.058594 20.980469 15.058594 L 14.304688 15.058594 C 13.683594 15.058594 13.058594 15.046875 12.433594 15.058594 C 10.8125 15.089844 9.535156 16.339844 9.496094 17.96875 C 9.457031 19.566406 9.484375 21.171875 9.492188 22.769531 C 9.199219 22.785156 8.910156 22.8125 8.621094 22.851562 L 8.621094 22.085938 C 8.621094 19.3125 8.613281 16.542969 8.621094 13.769531 Z M 10.882812 17.449219 C 11.109375 16.792969 11.71875 16.378906 12.402344 16.363281 C 12.859375 16.351562 13.316406 16.363281 13.773438 16.363281 L 20.15625 16.363281 C 20.804688 16.363281 21.453125 16.359375 22.101562 16.363281 C 23.058594 16.367188 23.785156 17.035156 23.804688 18 C 23.769531 19.585938 23.796875 21.175781 23.804688 22.761719 L 10.796875 22.761719 L 10.796875 18.332031 C 10.796875 18.035156 10.78125 17.738281 10.882812 17.449219 Z M 25.109375 18.105469 C 25.109375 17.882812 25.121094 17.664062 25.195312 17.449219 C 25.417969 16.792969 26.03125 16.378906 26.714844 16.363281 C 27.171875 16.351562 27.628906 16.363281 28.085938 16.363281 L 34.46875 16.363281 C 35.117188 16.363281 35.765625 16.359375 36.414062 16.363281 C 37.371094 16.367188 38.101562 17.039062 38.117188 18.011719 C 38.144531 19.59375 38.125 21.175781 38.117188 22.757812 C 35.996094 22.753906 33.878906 22.761719 31.757812 22.761719 L 25.109375 22.761719 L 25.109375 18.332031 C 25.109375 18.257812 25.109375 18.179688 25.109375 18.105469 Z M 7.972656 24.308594 C 8.183594 24.246094 8.402344 24.199219 8.621094 24.160156 C 8.980469 24.097656 9.347656 24.0625 9.71875 24.0625 C 9.8125 24.0625 9.90625 24.0625 10 24.0625 C 12.460938 24.058594 14.925781 24.0625 17.390625 24.0625 L 38.839844 24.0625 C 38.867188 24.0625 38.898438 24.0625 38.925781 24.0625 C 39.390625 24.066406 39.847656 24.101562 40.292969 24.175781 C 40.511719 24.210938 40.730469 24.257812 40.945312 24.316406 C 41.164062 24.375 41.382812 24.445312 41.597656 24.53125 C 42.109375 24.734375 42.59375 25.019531 43.042969 25.402344 C 44.117188 26.316406 44.835938 27.578125 45.046875 28.972656 C 45.179688 29.851562 45.101562 30.789062 45.101562 31.675781 L 45.101562 31.941406 L 8.378906 31.941406 C 6.859375 31.941406 5.328125 31.890625 3.804688 31.925781 C 3.773438 30.207031 3.699219 28.441406 4.597656 26.914062 C 5.242188 25.8125 6.203125 25.007812 7.320312 24.539062 C 7.53125 24.449219 7.75 24.375 7.972656 24.308594 Z M 7.972656 24.308594 " fill-opacity="1" fill-rule="nonzero"/></g></svg>