<svg xmlns="http://www.w3.org/2000/svg" xmlns:xlink="http://www.w3.org/1999/xlink" width="66" zoomAndPan="magnify" viewBox="0 0 49.5 49.499998" height="66" preserveAspectRatio="xMidYMid meet" version="1.0"><defs><clipPath id="b2bb884ca7"><path d="M 2.203125 30 L 12 30 L 12 47.292969 L 2.203125 47.292969 Z M 2.203125 30 " clip-rule="nonzero"/></clipPath><clipPath id="8834b9a48d"><path d="M 19 30 L 30 30 L 30 47.292969 L 19 47.292969 Z M 19 30 " clip-rule="nonzero"/></clipPath><clipPath id="31e2822b61"><path d="M 37 30 L 46.753906 30 L 46.753906 47.292969 L 37 47.292969 Z M 37 30 " clip-rule="nonzero"/></clipPath><clipPath id="e12d63bfb9"><path d="M 2.203125 45 L 46.753906 45 L 46.753906 47.292969 L 2.203125 47.292969 Z M 2.203125 45 " clip-rule="nonzero"/></clipPath><clipPath id="af3a5c0dda"><path d="M 15 40 L 17 40 L 17 47.292969 L 15 47.292969 Z M 15 40 " clip-rule="nonzero"/></clipPath><clipPath id="54656c1a45"><path d="M 32 40 L 35 40 L 35 47.292969 L 32 47.292969 Z M 32 40 " clip-rule="nonzero"/></clipPath></defs><path fill="#bbab99" d="M 19.28125 15.796875 L 12.628906 15.796875 C 10.300781 15.796875 8.402344 13.335938 8.402344 10.3125 L 8.402344 3.496094 C 8.402344 2.871094 8.761719 2.332031 9.292969 2.160156 C 9.773438 2.003906 10.285156 2.183594 10.597656 2.613281 L 12.382812 5.070312 L 14.058594 3.058594 C 14.550781 2.472656 15.238281 2.136719 15.953125 2.136719 C 16.667969 2.136719 17.359375 2.472656 17.847656 3.058594 L 19.523438 5.066406 L 21.308594 2.613281 C 21.625 2.179688 22.136719 2.003906 22.617188 2.160156 C 23.148438 2.332031 23.503906 2.871094 23.503906 3.496094 L 23.503906 10.3125 C 23.503906 13.335938 21.609375 15.796875 19.28125 15.796875 Z M 9.980469 4.441406 L 9.980469 10.3125 C 9.980469 12.429688 11.191406 14.21875 12.628906 14.21875 L 19.28125 14.21875 C 20.71875 14.21875 21.929688 12.429688 21.929688 10.3125 L 21.929688 4.441406 L 20.792969 6 C 20.503906 6.398438 20.058594 6.636719 19.574219 6.652344 C 19.089844 6.667969 18.632812 6.460938 18.316406 6.082031 L 16.636719 4.066406 C 16.445312 3.839844 16.203125 3.710938 15.953125 3.710938 C 15.703125 3.710938 15.460938 3.839844 15.269531 4.066406 L 13.585938 6.085938 C 13.273438 6.460938 12.8125 6.671875 12.328125 6.652344 C 11.84375 6.636719 11.398438 6.398438 11.109375 6 L 9.980469 4.445312 Z M 19.53125 5.078125 Z M 19.53125 5.078125 " fill-opacity="1" fill-rule="nonzero"/><path fill="#bbab99" d="M 36.550781 15.796875 L 29.898438 15.796875 C 27.570312 15.796875 25.675781 13.335938 25.675781 10.3125 L 25.675781 3.496094 C 25.675781 2.871094 26.03125 2.332031 26.5625 2.160156 C 27.042969 2.007812 27.558594 2.183594 27.871094 2.613281 L 29.652344 5.070312 L 31.332031 3.058594 C 31.820312 2.472656 32.507812 2.136719 33.222656 2.136719 C 33.9375 2.136719 34.628906 2.472656 35.117188 3.058594 L 36.792969 5.070312 L 38.582031 2.613281 C 38.894531 2.179688 39.40625 2.003906 39.886719 2.160156 C 40.417969 2.335938 40.773438 2.871094 40.773438 3.496094 L 40.773438 10.3125 C 40.773438 13.335938 38.878906 15.796875 36.550781 15.796875 Z M 27.25 4.441406 L 27.25 10.3125 C 27.25 12.429688 28.464844 14.21875 29.898438 14.21875 L 36.550781 14.21875 C 37.988281 14.21875 39.203125 12.429688 39.203125 10.3125 L 39.203125 4.441406 L 38.066406 6 C 37.777344 6.398438 37.332031 6.636719 36.84375 6.652344 C 36.359375 6.667969 35.902344 6.460938 35.585938 6.082031 L 33.90625 4.066406 C 33.71875 3.839844 33.476562 3.710938 33.226562 3.710938 C 32.972656 3.710938 32.730469 3.839844 32.542969 4.066406 L 30.855469 6.085938 C 30.542969 6.460938 30.082031 6.667969 29.601562 6.652344 C 29.113281 6.636719 28.667969 6.398438 28.378906 6 L 27.25 4.445312 Z M 27.25 4.441406 " fill-opacity="1" fill-rule="nonzero"/><path fill="#bbab99" d="M 32.144531 27.902344 C 30.613281 27.902344 28.675781 27.273438 26.695312 26.121094 C 26.617188 26.074219 26.542969 26.011719 26.484375 25.941406 C 24.777344 23.855469 23.753906 21.699219 23.679688 20.019531 C 23.660156 19.613281 23.949219 19.265625 24.347656 19.203125 C 25.964844 18.957031 28.21875 19.585938 30.523438 20.933594 C 30.605469 20.980469 30.679688 21.042969 30.738281 21.113281 C 32.445312 23.195312 33.46875 25.355469 33.542969 27.035156 C 33.5625 27.4375 33.273438 27.789062 32.875 27.851562 C 32.644531 27.886719 32.398438 27.902344 32.144531 27.902344 Z M 27.613281 24.828125 C 29.164062 25.71875 30.679688 26.246094 31.851562 26.320312 C 31.558594 25.121094 30.761719 23.65625 29.609375 22.222656 C 28.054688 21.335938 26.542969 20.808594 25.371094 20.734375 C 25.664062 21.929688 26.460938 23.398438 27.613281 24.828125 Z M 27.613281 24.828125 " fill-opacity="1" fill-rule="nonzero"/><path fill="#bbab99" d="M 34.308594 27.902344 C 34.050781 27.902344 33.808594 27.882812 33.578125 27.851562 C 33.179688 27.789062 32.890625 27.4375 32.910156 27.035156 C 32.984375 25.355469 34.007812 23.195312 35.714844 21.113281 C 35.773438 21.042969 35.847656 20.980469 35.925781 20.933594 C 38.234375 19.585938 40.488281 18.957031 42.105469 19.203125 C 42.503906 19.265625 42.792969 19.613281 42.773438 20.019531 C 42.699219 21.695312 41.675781 23.855469 39.96875 25.941406 C 39.910156 26.011719 39.835938 26.074219 39.757812 26.121094 C 37.777344 27.273438 35.839844 27.902344 34.308594 27.902344 Z M 36.84375 22.222656 C 35.691406 23.652344 34.894531 25.121094 34.601562 26.320312 C 35.773438 26.246094 37.285156 25.71875 38.839844 24.828125 C 39.992188 23.398438 40.789062 21.929688 41.082031 20.734375 C 39.910156 20.808594 38.398438 21.335938 36.84375 22.222656 Z M 36.84375 22.222656 " fill-opacity="1" fill-rule="nonzero"/><path fill="#bbab99" d="M 14.6875 27.902344 C 13.15625 27.902344 11.21875 27.273438 9.242188 26.121094 C 9.160156 26.074219 9.085938 26.011719 9.027344 25.941406 C 7.320312 23.855469 6.296875 21.699219 6.222656 20.019531 C 6.203125 19.613281 6.492188 19.265625 6.890625 19.203125 C 8.507812 18.957031 10.761719 19.585938 13.070312 20.933594 C 13.152344 20.980469 13.222656 21.042969 13.28125 21.113281 C 14.988281 23.195312 16.011719 25.355469 16.089844 27.035156 C 16.105469 27.4375 15.820312 27.789062 15.421875 27.851562 C 15.1875 27.886719 14.945312 27.902344 14.6875 27.902344 Z M 10.15625 24.828125 C 11.710938 25.71875 13.222656 26.246094 14.394531 26.320312 C 14.105469 25.121094 13.304688 23.65625 12.152344 22.222656 C 10.601562 21.335938 9.085938 20.808594 7.914062 20.734375 C 8.207031 21.929688 9.003906 23.398438 10.15625 24.828125 Z M 10.15625 24.828125 " fill-opacity="1" fill-rule="nonzero"/><path fill="#bbab99" d="M 16.851562 27.902344 C 16.597656 27.902344 16.351562 27.882812 16.121094 27.851562 C 15.722656 27.789062 15.433594 27.4375 15.453125 27.035156 C 15.527344 25.355469 16.550781 23.195312 18.257812 21.113281 C 18.320312 21.042969 18.390625 20.980469 18.472656 20.933594 C 20.78125 19.585938 23.03125 18.957031 24.652344 19.203125 C 25.050781 19.265625 25.335938 19.613281 25.320312 20.019531 C 25.242188 21.695312 24.21875 23.855469 22.511719 25.941406 C 22.453125 26.011719 22.382812 26.074219 22.300781 26.121094 C 20.320312 27.273438 18.386719 27.902344 16.851562 27.902344 Z M 19.390625 22.222656 C 18.234375 23.652344 17.4375 25.121094 17.148438 26.320312 C 18.316406 26.246094 19.832031 25.71875 21.382812 24.828125 C 22.539062 23.398438 23.335938 21.929688 23.625 20.734375 C 22.457031 20.808594 20.941406 21.335938 19.390625 22.222656 Z M 19.390625 22.222656 " fill-opacity="1" fill-rule="nonzero"/><g clip-path="url(#b2bb884ca7)"><path fill="#bbab99" d="M 11.070312 47.007812 L 3.015625 47.007812 C 2.578125 47.007812 2.226562 46.65625 2.226562 46.21875 L 2.226562 33.636719 C 2.226562 33.363281 2.367188 33.109375 2.597656 32.964844 L 6.625 30.449219 C 6.882812 30.289062 7.207031 30.289062 7.460938 30.449219 L 11.488281 32.964844 C 11.71875 33.109375 11.859375 33.363281 11.859375 33.636719 L 11.859375 46.21875 C 11.859375 46.65625 11.507812 47.007812 11.074219 47.007812 Z M 3.800781 45.429688 L 10.28125 45.429688 L 10.28125 34.070312 L 7.042969 32.046875 L 3.800781 34.070312 Z M 3.800781 45.429688 " fill-opacity="1" fill-rule="nonzero"/></g><g clip-path="url(#8834b9a48d)"><path fill="#bbab99" d="M 28.527344 47.007812 L 20.46875 47.007812 C 20.035156 47.007812 19.683594 46.65625 19.683594 46.21875 L 19.683594 33.636719 C 19.683594 33.363281 19.820312 33.109375 20.054688 32.964844 L 24.082031 30.449219 C 24.335938 30.289062 24.660156 30.289062 24.917969 30.449219 L 28.945312 32.964844 C 29.175781 33.109375 29.316406 33.363281 29.316406 33.636719 L 29.316406 46.21875 C 29.316406 46.65625 28.964844 47.007812 28.527344 47.007812 Z M 21.257812 45.429688 L 27.738281 45.429688 L 27.738281 34.070312 L 24.5 32.046875 L 21.257812 34.070312 Z M 21.257812 45.429688 " fill-opacity="1" fill-rule="nonzero"/></g><g clip-path="url(#31e2822b61)"><path fill="#bbab99" d="M 45.984375 47.007812 L 37.925781 47.007812 C 37.492188 47.007812 37.136719 46.65625 37.136719 46.21875 L 37.136719 33.636719 C 37.136719 33.363281 37.277344 33.109375 37.507812 32.964844 L 41.539062 30.449219 C 41.792969 30.289062 42.117188 30.289062 42.375 30.449219 L 46.402344 32.964844 C 46.632812 33.109375 46.773438 33.363281 46.773438 33.636719 L 46.773438 46.21875 C 46.773438 46.65625 46.417969 47.007812 45.984375 47.007812 Z M 38.714844 45.429688 L 45.195312 45.429688 L 45.195312 34.070312 L 41.953125 32.046875 L 38.714844 34.070312 Z M 38.714844 45.429688 " fill-opacity="1" fill-rule="nonzero"/></g><path fill="#bbab99" d="M 20.46875 42.289062 L 11.070312 42.289062 C 10.636719 42.289062 10.28125 41.933594 10.28125 41.5 L 10.28125 36.136719 C 10.28125 35.699219 10.636719 35.347656 11.070312 35.347656 L 20.472656 35.347656 C 20.90625 35.347656 21.257812 35.699219 21.257812 36.136719 L 21.257812 41.5 C 21.257812 41.933594 20.90625 42.289062 20.472656 42.289062 Z M 11.859375 40.710938 L 19.683594 40.710938 L 19.683594 36.921875 L 11.859375 36.921875 Z M 11.859375 40.710938 " fill-opacity="1" fill-rule="nonzero"/><path fill="#bbab99" d="M 37.925781 42.289062 L 28.527344 42.289062 C 28.089844 42.289062 27.738281 41.933594 27.738281 41.5 L 27.738281 36.136719 C 27.738281 35.699219 28.089844 35.347656 28.527344 35.347656 L 37.925781 35.347656 C 38.359375 35.347656 38.714844 35.699219 38.714844 36.136719 L 38.714844 41.5 C 38.714844 41.933594 38.359375 42.289062 37.925781 42.289062 Z M 29.3125 40.710938 L 37.136719 40.710938 L 37.136719 36.921875 L 29.3125 36.921875 Z M 29.3125 40.710938 " fill-opacity="1" fill-rule="nonzero"/><g clip-path="url(#e12d63bfb9)"><path fill="#bbab99" d="M 45.984375 47.007812 L 3.015625 47.007812 C 2.578125 47.007812 2.226562 46.65625 2.226562 46.21875 C 2.226562 45.785156 2.578125 45.429688 3.015625 45.429688 L 45.984375 45.429688 C 46.417969 45.429688 46.769531 45.785156 46.769531 46.21875 C 46.769531 46.65625 46.417969 47.007812 45.984375 47.007812 Z M 45.984375 47.007812 " fill-opacity="1" fill-rule="nonzero"/></g><g clip-path="url(#af3a5c0dda)"><path fill="#bbab99" d="M 15.953125 47.007812 C 15.519531 47.007812 15.167969 46.65625 15.167969 46.21875 L 15.167969 41.5 C 15.167969 41.066406 15.519531 40.710938 15.953125 40.710938 C 16.390625 40.710938 16.742188 41.066406 16.742188 41.5 L 16.742188 46.21875 C 16.742188 46.65625 16.390625 47.007812 15.953125 47.007812 Z M 15.953125 47.007812 " fill-opacity="1" fill-rule="nonzero"/></g><g clip-path="url(#54656c1a45)"><path fill="#bbab99" d="M 33.226562 47.007812 C 32.789062 47.007812 32.4375 46.65625 32.4375 46.21875 L 32.4375 41.5 C 32.4375 41.066406 32.789062 40.710938 33.226562 40.710938 C 33.660156 40.710938 34.015625 41.066406 34.015625 41.5 L 34.015625 46.21875 C 34.015625 46.65625 33.660156 47.007812 33.226562 47.007812 Z M 33.226562 47.007812 " fill-opacity="1" fill-rule="nonzero"/></g><path fill="#bbab99" d="M 15.953125 36.925781 C 15.519531 36.925781 15.167969 36.570312 15.167969 36.136719 L 15.167969 15.261719 C 15.167969 14.828125 15.519531 14.472656 15.953125 14.472656 C 16.390625 14.472656 16.742188 14.828125 16.742188 15.261719 L 16.742188 36.136719 C 16.742188 36.570312 16.390625 36.925781 15.953125 36.925781 Z M 15.953125 36.925781 " fill-opacity="1" fill-rule="nonzero"/><path fill="#bbab99" d="M 33.226562 36.925781 C 32.789062 36.925781 32.4375 36.570312 32.4375 36.136719 L 32.4375 15.261719 C 32.4375 14.828125 32.789062 14.472656 33.226562 14.472656 C 33.660156 14.472656 34.015625 14.828125 34.015625 15.261719 L 34.015625 36.136719 C 34.015625 36.570312 33.660156 36.925781 33.226562 36.925781 Z M 33.226562 36.925781 " fill-opacity="1" fill-rule="nonzero"/></svg>