<svg xmlns="http://www.w3.org/2000/svg" xmlns:xlink="http://www.w3.org/1999/xlink" width="66" zoomAndPan="magnify" viewBox="0 0 49.5 49.499998" height="66" preserveAspectRatio="xMidYMid meet" version="1.0"><defs><clipPath id="46bea03979"><path d="M 16 8.507812 L 24 8.507812 L 24 15 L 16 15 Z M 16 8.507812 " clip-rule="nonzero"/></clipPath><clipPath id="8664c5db0e"><path d="M 24 8.507812 L 31 8.507812 L 31 15 L 24 15 Z M 24 8.507812 " clip-rule="nonzero"/></clipPath><clipPath id="666c68f529"><path d="M 13.277344 21 L 18 21 L 18 29.183594 L 13.277344 29.183594 Z M 13.277344 21 " clip-rule="nonzero"/></clipPath><clipPath id="a1e0325a19"><path d="M 21 21 L 26 21 L 26 29.183594 L 21 29.183594 Z M 21 21 " clip-rule="nonzero"/></clipPath><clipPath id="cc37ab7c6a"><path d="M 29 21 L 33.660156 21 L 33.660156 29.183594 L 29 29.183594 Z M 29 21 " clip-rule="nonzero"/></clipPath><clipPath id="03ddecb280"><path d="M 13.277344 28 L 33.660156 28 L 33.660156 29.183594 L 13.277344 29.183594 Z M 13.277344 28 " clip-rule="nonzero"/></clipPath><clipPath id="283e2b2a93"><path d="M 19 26 L 20 26 L 20 29.183594 L 19 29.183594 Z M 19 26 " clip-rule="nonzero"/></clipPath><clipPath id="4f65b4762c"><path d="M 27 26 L 28 26 L 28 29.183594 L 27 29.183594 Z M 27 26 " clip-rule="nonzero"/></clipPath><clipPath id="a4b6f65e35"><path d="M 0.714844 1.035156 L 46.222656 1.035156 L 46.222656 31 L 0.714844 31 Z M 0.714844 1.035156 " clip-rule="nonzero"/></clipPath><clipPath id="2a1274c111"><path d="M 6 30 L 42 30 L 42 31.898438 L 6 31.898438 Z M 6 30 " clip-rule="nonzero"/></clipPath><clipPath id="13c85efbc3"><rect x="0" width="47" y="0" height="33"/></clipPath></defs><g transform="matrix(1, 0, 0, 1, 1, 8)"><g clip-path="url(#13c85efbc3)"><g clip-path="url(#46bea03979)"><path fill="#bbab99" d="M 21.109375 14.835938 L 18.058594 14.835938 C 16.988281 14.835938 16.121094 13.710938 16.121094 12.324219 L 16.121094 9.195312 C 16.121094 8.910156 16.285156 8.664062 16.527344 8.585938 C 16.75 8.511719 16.984375 8.59375 17.125 8.792969 L 17.945312 9.917969 L 18.714844 8.996094 C 18.9375 8.726562 19.253906 8.574219 19.582031 8.574219 C 19.910156 8.574219 20.226562 8.726562 20.449219 8.996094 L 21.21875 9.917969 L 22.039062 8.789062 C 22.183594 8.59375 22.417969 8.511719 22.636719 8.582031 C 22.882812 8.664062 23.046875 8.910156 23.046875 9.195312 L 23.046875 12.324219 C 23.046875 13.710938 22.175781 14.835938 21.109375 14.835938 Z M 16.84375 9.628906 L 16.84375 12.320312 C 16.84375 13.292969 17.398438 14.113281 18.058594 14.113281 L 21.109375 14.113281 C 21.765625 14.113281 22.324219 13.292969 22.324219 12.320312 L 22.324219 9.628906 L 21.800781 10.34375 C 21.667969 10.527344 21.464844 10.636719 21.242188 10.644531 C 21.019531 10.652344 20.808594 10.554688 20.667969 10.382812 L 19.894531 9.457031 C 19.808594 9.351562 19.695312 9.296875 19.582031 9.296875 C 19.46875 9.296875 19.355469 9.351562 19.269531 9.457031 L 18.496094 10.382812 C 18.351562 10.554688 18.144531 10.652344 17.921875 10.644531 C 17.699219 10.636719 17.492188 10.527344 17.359375 10.34375 L 16.84375 9.632812 Z M 21.222656 9.921875 Z M 21.222656 9.921875 " fill-opacity="1" fill-rule="nonzero"/></g><g clip-path="url(#8664c5db0e)"><path fill="#bbab99" d="M 29.027344 14.835938 L 25.976562 14.835938 C 24.910156 14.835938 24.039062 13.710938 24.039062 12.324219 L 24.039062 9.195312 C 24.039062 8.910156 24.203125 8.664062 24.449219 8.585938 C 24.667969 8.511719 24.902344 8.59375 25.046875 8.792969 L 25.863281 9.917969 L 26.632812 8.996094 C 26.859375 8.726562 27.175781 8.574219 27.503906 8.574219 C 27.832031 8.574219 28.148438 8.726562 28.371094 8.996094 L 29.140625 9.917969 L 29.960938 8.792969 C 30.101562 8.59375 30.335938 8.511719 30.558594 8.585938 C 30.800781 8.664062 30.964844 8.910156 30.964844 9.195312 L 30.964844 12.324219 C 30.964844 13.710938 30.097656 14.835938 29.027344 14.835938 Z M 24.761719 9.628906 L 24.761719 12.320312 C 24.761719 13.292969 25.320312 14.113281 25.976562 14.113281 L 29.027344 14.113281 C 29.6875 14.113281 30.242188 13.292969 30.242188 12.320312 L 30.242188 9.628906 L 29.722656 10.34375 C 29.589844 10.527344 29.386719 10.636719 29.164062 10.644531 C 28.941406 10.652344 28.730469 10.554688 28.585938 10.382812 L 27.816406 9.457031 C 27.730469 9.351562 27.617188 9.296875 27.503906 9.296875 C 27.386719 9.296875 27.277344 9.351562 27.191406 9.457031 L 26.417969 10.382812 C 26.273438 10.554688 26.0625 10.652344 25.839844 10.644531 C 25.617188 10.636719 25.414062 10.527344 25.28125 10.34375 L 24.761719 9.632812 Z M 24.761719 9.628906 " fill-opacity="1" fill-rule="nonzero"/></g><path fill="#bbab99" d="M 27.007812 20.390625 C 26.304688 20.390625 25.417969 20.101562 24.507812 19.570312 C 24.472656 19.550781 24.4375 19.523438 24.410156 19.488281 C 23.628906 18.535156 23.160156 17.542969 23.125 16.773438 C 23.117188 16.589844 23.25 16.425781 23.429688 16.398438 C 24.171875 16.285156 25.207031 16.574219 26.265625 17.191406 C 26.300781 17.214844 26.335938 17.242188 26.363281 17.277344 C 27.144531 18.230469 27.613281 19.222656 27.648438 19.992188 C 27.65625 20.175781 27.527344 20.335938 27.34375 20.363281 C 27.238281 20.382812 27.125 20.390625 27.007812 20.390625 Z M 24.929688 18.980469 C 25.640625 19.386719 26.335938 19.628906 26.871094 19.664062 C 26.738281 19.113281 26.375 18.441406 25.84375 17.785156 C 25.132812 17.378906 24.4375 17.136719 23.902344 17.101562 C 24.035156 17.648438 24.402344 18.324219 24.929688 18.980469 Z M 24.929688 18.980469 " fill-opacity="1" fill-rule="nonzero"/><path fill="#bbab99" d="M 28 20.390625 C 27.882812 20.390625 27.769531 20.382812 27.664062 20.363281 C 27.480469 20.335938 27.351562 20.175781 27.359375 19.992188 C 27.394531 19.222656 27.863281 18.230469 28.644531 17.277344 C 28.671875 17.242188 28.707031 17.214844 28.742188 17.191406 C 29.800781 16.574219 30.832031 16.285156 31.578125 16.398438 C 31.757812 16.425781 31.890625 16.589844 31.882812 16.773438 C 31.847656 17.542969 31.378906 18.535156 30.59375 19.488281 C 30.566406 19.523438 30.535156 19.550781 30.5 19.570312 C 29.589844 20.101562 28.703125 20.390625 28 20.390625 Z M 29.164062 17.785156 C 28.632812 18.441406 28.269531 19.113281 28.132812 19.664062 C 28.671875 19.628906 29.367188 19.386719 30.078125 18.980469 C 30.605469 18.324219 30.972656 17.652344 31.105469 17.101562 C 30.570312 17.136719 29.875 17.378906 29.164062 17.785156 Z M 29.164062 17.785156 " fill-opacity="1" fill-rule="nonzero"/><path fill="#bbab99" d="M 19.003906 20.390625 C 18.300781 20.390625 17.410156 20.101562 16.503906 19.570312 C 16.464844 19.550781 16.433594 19.523438 16.40625 19.488281 C 15.625 18.535156 15.152344 17.542969 15.121094 16.773438 C 15.109375 16.589844 15.242188 16.425781 15.425781 16.398438 C 16.167969 16.285156 17.199219 16.574219 18.257812 17.191406 C 18.296875 17.214844 18.332031 17.242188 18.355469 17.277344 C 19.140625 18.230469 19.609375 19.222656 19.644531 19.992188 C 19.652344 20.175781 19.519531 20.335938 19.335938 20.363281 C 19.230469 20.382812 19.121094 20.390625 19.003906 20.390625 Z M 16.925781 18.980469 C 17.636719 19.386719 18.332031 19.628906 18.867188 19.664062 C 18.734375 19.113281 18.367188 18.441406 17.839844 17.785156 C 17.128906 17.378906 16.433594 17.136719 15.894531 17.101562 C 16.03125 17.648438 16.394531 18.324219 16.925781 18.980469 Z M 16.925781 18.980469 " fill-opacity="1" fill-rule="nonzero"/><path fill="#bbab99" d="M 19.996094 20.390625 C 19.878906 20.390625 19.765625 20.382812 19.660156 20.363281 C 19.476562 20.335938 19.34375 20.175781 19.351562 19.992188 C 19.386719 19.222656 19.855469 18.230469 20.640625 17.277344 C 20.667969 17.242188 20.699219 17.214844 20.738281 17.191406 C 21.796875 16.574219 22.828125 16.285156 23.570312 16.398438 C 23.753906 16.425781 23.886719 16.589844 23.878906 16.773438 C 23.84375 17.542969 23.375 18.535156 22.589844 19.488281 C 22.5625 19.523438 22.53125 19.550781 22.492188 19.570312 C 21.585938 20.101562 20.699219 20.390625 19.996094 20.390625 Z M 21.15625 17.785156 C 20.628906 18.441406 20.261719 19.113281 20.128906 19.664062 C 20.667969 19.628906 21.359375 19.386719 22.074219 18.980469 C 22.601562 18.324219 22.96875 17.652344 23.101562 17.101562 C 22.566406 17.136719 21.871094 17.378906 21.15625 17.785156 Z M 21.15625 17.785156 " fill-opacity="1" fill-rule="nonzero"/><g clip-path="url(#666c68f529)"><path fill="#bbab99" d="M 17.34375 29.152344 L 13.648438 29.152344 C 13.449219 29.152344 13.285156 28.988281 13.285156 28.789062 L 13.285156 23.019531 C 13.285156 22.894531 13.351562 22.777344 13.457031 22.710938 L 15.304688 21.558594 C 15.421875 21.484375 15.570312 21.484375 15.6875 21.558594 L 17.535156 22.710938 C 17.640625 22.777344 17.707031 22.894531 17.707031 23.019531 L 17.707031 28.789062 C 17.707031 28.988281 17.542969 29.152344 17.34375 29.152344 Z M 14.007812 28.429688 L 16.980469 28.429688 L 16.980469 23.21875 L 15.496094 22.289062 L 14.007812 23.21875 Z M 14.007812 28.429688 " fill-opacity="1" fill-rule="nonzero"/></g><g clip-path="url(#a1e0325a19)"><path fill="#bbab99" d="M 25.347656 29.152344 L 21.652344 29.152344 C 21.453125 29.152344 21.292969 28.988281 21.292969 28.789062 L 21.292969 23.019531 C 21.292969 22.894531 21.355469 22.777344 21.460938 22.710938 L 23.308594 21.558594 C 23.425781 21.484375 23.574219 21.484375 23.691406 21.558594 L 25.539062 22.710938 C 25.644531 22.777344 25.710938 22.894531 25.710938 23.019531 L 25.710938 28.789062 C 25.710938 28.988281 25.546875 29.152344 25.347656 29.152344 Z M 22.015625 28.429688 L 24.988281 28.429688 L 24.988281 23.21875 L 23.5 22.289062 L 22.015625 23.21875 Z M 22.015625 28.429688 " fill-opacity="1" fill-rule="nonzero"/></g><g clip-path="url(#cc37ab7c6a)"><path fill="#bbab99" d="M 33.355469 29.152344 L 29.660156 29.152344 C 29.460938 29.152344 29.296875 28.988281 29.296875 28.789062 L 29.296875 23.019531 C 29.296875 22.894531 29.363281 22.777344 29.46875 22.710938 L 31.316406 21.558594 C 31.433594 21.484375 31.582031 21.484375 31.699219 21.558594 L 33.546875 22.710938 C 33.652344 22.777344 33.714844 22.894531 33.714844 23.019531 L 33.714844 28.789062 C 33.714844 28.988281 33.554688 29.152344 33.355469 29.152344 Z M 30.019531 28.429688 L 32.992188 28.429688 L 32.992188 23.21875 L 31.507812 22.289062 L 30.019531 23.21875 Z M 30.019531 28.429688 " fill-opacity="1" fill-rule="nonzero"/></g><path fill="#bbab99" d="M 21.652344 26.988281 L 17.34375 26.988281 C 17.144531 26.988281 16.980469 26.824219 16.980469 26.625 L 16.980469 24.164062 C 16.980469 23.964844 17.144531 23.804688 17.34375 23.804688 L 21.652344 23.804688 C 21.855469 23.804688 22.015625 23.964844 22.015625 24.164062 L 22.015625 26.625 C 22.015625 26.824219 21.855469 26.988281 21.652344 26.988281 Z M 17.703125 26.261719 L 21.292969 26.261719 L 21.292969 24.527344 L 17.703125 24.527344 Z M 17.703125 26.261719 " fill-opacity="1" fill-rule="nonzero"/><path fill="#bbab99" d="M 29.660156 26.988281 L 25.347656 26.988281 C 25.148438 26.988281 24.988281 26.824219 24.988281 26.625 L 24.988281 24.164062 C 24.988281 23.964844 25.148438 23.804688 25.347656 23.804688 L 29.660156 23.804688 C 29.859375 23.804688 30.019531 23.964844 30.019531 24.164062 L 30.019531 26.625 C 30.019531 26.824219 29.859375 26.988281 29.660156 26.988281 Z M 25.710938 26.261719 L 29.296875 26.261719 L 29.296875 24.527344 L 25.710938 24.527344 Z M 25.710938 26.261719 " fill-opacity="1" fill-rule="nonzero"/><g clip-path="url(#03ddecb280)"><path fill="#bbab99" d="M 33.355469 29.152344 L 13.648438 29.152344 C 13.449219 29.152344 13.285156 28.988281 13.285156 28.789062 C 13.285156 28.589844 13.449219 28.429688 13.648438 28.429688 L 33.355469 28.429688 C 33.554688 28.429688 33.714844 28.589844 33.714844 28.789062 C 33.714844 28.988281 33.554688 29.152344 33.355469 29.152344 Z M 33.355469 29.152344 " fill-opacity="1" fill-rule="nonzero"/></g><g clip-path="url(#283e2b2a93)"><path fill="#bbab99" d="M 19.582031 29.152344 C 19.382812 29.152344 19.222656 28.988281 19.222656 28.789062 L 19.222656 26.625 C 19.222656 26.425781 19.382812 26.265625 19.582031 26.265625 C 19.78125 26.265625 19.945312 26.425781 19.945312 26.625 L 19.945312 28.789062 C 19.945312 28.988281 19.78125 29.152344 19.582031 29.152344 Z M 19.582031 29.152344 " fill-opacity="1" fill-rule="nonzero"/></g><g clip-path="url(#4f65b4762c)"><path fill="#bbab99" d="M 27.503906 29.152344 C 27.304688 29.152344 27.140625 28.988281 27.140625 28.789062 L 27.140625 26.625 C 27.140625 26.425781 27.304688 26.265625 27.503906 26.265625 C 27.703125 26.265625 27.863281 26.425781 27.863281 26.625 L 27.863281 28.789062 C 27.863281 28.988281 27.703125 29.152344 27.503906 29.152344 Z M 27.503906 29.152344 " fill-opacity="1" fill-rule="nonzero"/></g><path fill="#bbab99" d="M 19.582031 24.527344 C 19.382812 24.527344 19.222656 24.363281 19.222656 24.164062 L 19.222656 14.59375 C 19.222656 14.394531 19.382812 14.230469 19.582031 14.230469 C 19.78125 14.230469 19.945312 14.394531 19.945312 14.59375 L 19.945312 24.164062 C 19.945312 24.363281 19.78125 24.527344 19.582031 24.527344 Z M 19.582031 24.527344 " fill-opacity="1" fill-rule="nonzero"/><path fill="#bbab99" d="M 27.503906 24.527344 C 27.304688 24.527344 27.140625 24.363281 27.140625 24.164062 L 27.140625 14.59375 C 27.140625 14.394531 27.304688 14.230469 27.503906 14.230469 C 27.703125 14.230469 27.863281 14.394531 27.863281 14.59375 L 27.863281 24.164062 C 27.863281 24.363281 27.703125 24.527344 27.503906 24.527344 Z M 27.503906 24.527344 " fill-opacity="1" fill-rule="nonzero"/><path fill="#bbab99" d="M 2.421875 28.933594 L 10.566406 27.703125 L 10.566406 5.753906 L 2.421875 4.558594 Z M 9.945312 20.660156 L 7.207031 20.792969 L 7.207031 12.792969 L 9.945312 12.898438 Z M 6.375 20.832031 L 3.042969 20.988281 L 3.042969 12.632812 L 6.375 12.757812 Z M 3.042969 21.824219 L 6.375 21.664062 L 6.375 27.703125 L 3.042969 28.210938 Z M 7.207031 27.578125 L 7.207031 21.625 L 9.945312 21.496094 L 9.945312 27.160156 Z M 9.945312 6.296875 L 9.945312 12.066406 L 7.207031 11.957031 L 7.207031 5.898438 Z M 6.375 5.773438 L 6.375 11.925781 L 3.042969 11.796875 L 3.042969 5.28125 Z M 6.375 5.773438 " fill-opacity="1" fill-rule="nonzero"/><path fill="#bbab99" d="M 44.582031 4.558594 L 36.433594 5.753906 L 36.433594 27.703125 L 44.582031 28.933594 Z M 37.058594 12.898438 L 39.796875 12.792969 L 39.796875 20.792969 L 37.058594 20.660156 Z M 40.628906 12.757812 L 43.957031 12.632812 L 43.957031 20.988281 L 40.628906 20.832031 Z M 43.957031 11.796875 L 40.628906 11.925781 L 40.628906 5.773438 L 43.957031 5.28125 Z M 39.796875 5.898438 L 39.796875 11.957031 L 37.058594 12.066406 L 37.058594 6.296875 Z M 37.058594 27.160156 L 37.058594 21.496094 L 39.796875 21.625 L 39.796875 27.578125 Z M 40.628906 27.703125 L 40.628906 21.664062 L 43.957031 21.824219 L 43.957031 28.210938 Z M 40.628906 27.703125 " fill-opacity="1" fill-rule="nonzero"/><g clip-path="url(#a4b6f65e35)"><path fill="#bbab99" d="M 39.441406 3.589844 C 39.433594 3.597656 39.4375 1.125 39.4375 1.121094 L 7.464844 1.121094 C 7.464844 1.125 7.46875 3.589844 7.464844 3.582031 L 0.808594 2.597656 C 0.746094 2.589844 0.714844 2.617188 0.714844 2.679688 L 0.714844 30.820312 C 0.714844 30.882812 0.746094 30.910156 0.808594 30.902344 L 12 29.207031 L 35.003906 29.207031 L 46.289062 30.914062 L 46.289062 2.585938 Z M 34.730469 28.585938 L 12.273438 28.585938 L 12.273438 4.289062 L 10.46875 4.023438 L 10.46875 3.296875 L 36.441406 3.296875 L 36.441406 4.042969 L 34.730469 4.289062 Z M 36.652344 2.675781 L 10.253906 2.675781 L 8.832031 1.746094 L 38.074219 1.746094 Z M 9.84375 3.152344 L 9.84375 3.933594 L 8.089844 3.675781 L 8.089844 2.007812 Z M 37.066406 3.152344 L 38.8125 2.011719 L 38.8125 3.691406 L 37.066406 3.949219 C 37.0625 3.953125 37.066406 3.152344 37.066406 3.152344 Z M 1.347656 3.308594 L 11.648438 4.824219 L 11.648438 28.632812 C 11.386719 28.660156 1.902344 30.117188 1.347656 30.191406 Z M 45.65625 30.191406 C 45.078125 30.0625 35.53125 28.75 35.351562 28.585938 L 35.351562 4.824219 L 45.65625 3.308594 Z M 45.65625 30.191406 " fill-opacity="1" fill-rule="nonzero"/></g><g clip-path="url(#2a1274c111)"><path fill="#bbab99" d="M 6.371094 30.96875 L 41.328125 30.96875 L 41.328125 31.800781 L 6.371094 31.800781 Z M 6.371094 30.96875 " fill-opacity="1" fill-rule="nonzero"/></g></g></g></svg>