<svg xmlns="http://www.w3.org/2000/svg" xmlns:xlink="http://www.w3.org/1999/xlink" width="66" zoomAndPan="magnify" viewBox="0 0 49.5 49.499998" height="66" preserveAspectRatio="xMidYMid meet" version="1.0"><defs><clipPath id="586a603666"><path d="M 10.621094 15 L 38 15 L 38 47.085938 L 10.621094 47.085938 Z M 10.621094 15 " clip-rule="nonzero"/></clipPath><clipPath id="89fb830e61"><path d="M 14 1.792969 L 17 1.792969 L 17 7 L 14 7 Z M 14 1.792969 " clip-rule="nonzero"/></clipPath></defs><g clip-path="url(#586a603666)"><path fill="#bbab99" d="M 31.160156 26.605469 C 35.003906 24.234375 37.570312 20 37.570312 15.148438 L 10.621094 15.148438 C 10.621094 20 13.191406 24.234375 17.03125 26.605469 L 12.726562 45.589844 C 12.566406 46.292969 13.003906 46.992188 13.710938 47.152344 C 13.8125 47.171875 13.910156 47.183594 14.003906 47.183594 C 14.601562 47.183594 15.136719 46.773438 15.273438 46.164062 L 16.269531 41.757812 L 31.917969 41.757812 L 32.914062 46.164062 C 33.050781 46.773438 33.589844 47.183594 34.183594 47.183594 C 34.277344 47.183594 34.378906 47.171875 34.476562 47.152344 C 35.175781 46.992188 35.621094 46.292969 35.460938 45.589844 Z M 24.097656 28.625 C 25.734375 28.625 27.296875 28.316406 28.75 27.78125 L 30.058594 33.550781 L 18.140625 33.550781 L 19.449219 27.78125 C 20.894531 28.316406 22.457031 28.625 24.097656 28.625 Z M 16.867188 39.152344 L 17.546875 36.164062 L 30.652344 36.164062 L 31.332031 39.152344 Z M 16.867188 39.152344 " fill-opacity="1" fill-rule="nonzero"/></g><g clip-path="url(#89fb830e61)"><path fill="#bbab99" d="M 15.367188 4.839844 C 15.761719 5.164062 16.144531 5.640625 16.03125 6.140625 C 16.535156 4.730469 16.085938 3.011719 15.015625 1.808594 C 14.589844 2.363281 14.132812 3.046875 14.34375 3.71875 C 14.507812 4.210938 14.972656 4.515625 15.367188 4.839844 Z M 15.367188 4.839844 " fill-opacity="1" fill-rule="nonzero"/></g><path fill="#bbab99" d="M 34.386719 5.25 C 34.78125 4.222656 34.378906 2.992188 33.566406 2.144531 C 32.9375 2.308594 32.816406 3.207031 33.117188 3.78125 C 33.417969 4.359375 33.984375 4.746094 34.386719 5.25 Z M 34.386719 5.25 " fill-opacity="1" fill-rule="nonzero"/><path fill="#bbab99" d="M 12.039062 13.421875 C 12.132812 13.464844 12.238281 13.492188 12.347656 13.5 C 12.757812 13.511719 13.140625 13.050781 12.996094 12.636719 C 12.996094 11.527344 13.617188 10.433594 14.578125 9.871094 C 14.292969 10.117188 14.207031 10.539062 14.269531 10.90625 C 14.34375 11.28125 14.539062 11.613281 14.757812 11.921875 C 15.082031 12.382812 15.503906 12.847656 16.0625 12.890625 C 16.660156 12.945312 17.175781 12.5 17.558594 12.035156 C 17.996094 11.503906 18.347656 10.90625 18.605469 10.265625 C 19.21875 11.367188 19.546875 12.617188 19.429688 13.882812 C 19.785156 14.089844 20.261719 14.003906 20.589844 13.75 C 20.917969 13.5 21.121094 13.117188 21.253906 12.726562 C 21.640625 11.597656 21.515625 10.296875 20.917969 9.261719 C 21.367188 9.03125 21.941406 9.289062 22.234375 9.703125 C 22.53125 10.113281 22.617188 10.628906 22.710938 11.121094 C 22.808594 11.613281 22.929688 12.132812 23.269531 12.507812 C 23.636719 12.546875 23.914062 12.167969 23.988281 11.8125 C 24.058594 11.453125 24.003906 11.070312 24.109375 10.71875 C 24.210938 10.371094 24.574219 10.039062 24.914062 10.179688 C 24.566406 10.714844 24.578125 11.476562 24.980469 11.96875 C 25.378906 12.46875 26.164062 12.628906 26.707031 12.28125 C 27.242188 11.9375 27.417969 11.113281 26.980469 10.730469 C 27.59375 10.71875 27.898438 11.453125 28.019531 12.050781 C 28.140625 12.65625 28.347656 13.394531 28.957031 13.5 C 29.660156 13.621094 30.097656 12.78125 30.304688 12.097656 C 30.507812 11.410156 30.957031 10.574219 31.660156 10.699219 C 30.992188 10.949219 30.871094 11.996094 31.414062 12.464844 C 31.957031 12.929688 32.890625 12.726562 33.269531 12.117188 C 33.648438 11.515625 33.488281 10.65625 32.980469 10.15625 C 33.707031 10.035156 34.191406 10.890625 34.359375 11.609375 C 34.53125 12.324219 34.738281 13.203125 35.453125 13.40625 C 35.714844 13.484375 35.964844 13.4375 36.195312 13.324219 C 38.371094 10.089844 35.597656 8.941406 35.597656 8.941406 L 35.652344 9.054688 C 35.992188 9.902344 35.226562 10.984375 34.644531 10.699219 C 34.039062 10.398438 33.851562 9.609375 33.902344 8.929688 C 33.949219 8.25 34.167969 7.574219 34.074219 6.902344 C 33.988281 6.226562 33.417969 5.535156 32.75 5.652344 C 33.101562 6.65625 33.285156 8.066406 32.324219 8.488281 C 31.484375 8.855469 30.542969 7.957031 30.496094 7.042969 C 30.453125 6.128906 30.984375 5.300781 31.5 4.542969 C 30.128906 4.726562 29.082031 6.222656 29.378906 7.582031 C 29.5 8.132812 29.808594 8.636719 29.851562 9.203125 C 29.894531 9.765625 29.503906 10.433594 28.945312 10.371094 C 28.496094 10.320312 28.230469 9.820312 28.195312 9.367188 C 28.167969 8.910156 28.300781 8.460938 28.292969 8.011719 C 28.277344 6.773438 27.019531 5.710938 25.800781 5.902344 C 26.382812 6.742188 26.992188 7.683594 26.851562 8.691406 C 26.714844 9.703125 25.351562 10.496094 24.648438 9.761719 C 24.429688 9.535156 24.292969 9.234375 24.238281 8.921875 C 23.609375 5.476562 22.140625 6.128906 22.480469 2.226562 C 21.933594 2.734375 21.324219 3 21.410156 3.746094 C 21.5 4.488281 21.714844 5.234375 21.609375 5.976562 C 21.503906 6.714844 20.929688 7.472656 20.183594 7.445312 C 19.519531 7.421875 19.011719 6.769531 18.90625 6.113281 C 18.804688 5.453125 19.003906 4.785156 19.203125 4.15625 C 18.261719 4.457031 18.03125 5.691406 18.128906 6.675781 C 18.226562 7.664062 18.457031 8.753906 17.898438 9.574219 C 17.597656 10.019531 17.070312 10.277344 16.539062 10.304688 C 15.980469 9.953125 15.601562 9.464844 15.421875 8.957031 C 15.222656 8.386719 15.21875 7.773438 15.164062 7.167969 C 15.109375 6.566406 14.988281 5.941406 14.605469 5.476562 C 14.226562 5.011719 13.519531 4.757812 13 5.058594 C 13.015625 5.101562 13.03125 5.152344 13.042969 5.195312 C 13.195312 5.71875 13.625 7.585938 12.078125 8.769531 C 10.675781 9.839844 11.054688 13.269531 12.039062 13.421875 Z M 12.039062 13.421875 " fill-opacity="1" fill-rule="nonzero"/></svg>