<svg xmlns="http://www.w3.org/2000/svg" xmlns:xlink="http://www.w3.org/1999/xlink" width="66" zoomAndPan="magnify" viewBox="0 0 49.5 49.499998" height="66" preserveAspectRatio="xMidYMid meet" version="1.0"><defs><clipPath id="ba95a06cbe"><path d="M 1.875 1.875 L 47.167969 1.875 L 47.167969 47.167969 L 1.875 47.167969 Z M 1.875 1.875 " clip-rule="nonzero"/></clipPath></defs><g clip-path="url(#ba95a06cbe)"><path fill="#bbab99" d="M 47.121094 19.363281 C 47.121094 19.671875 46.867188 19.925781 46.558594 19.925781 L 43.496094 19.925781 C 43.3125 19.960938 43.101562 20 42.875 20.046875 C 40.472656 20.503906 35.472656 21.460938 35.140625 23.933594 C 34.9375 25.449219 36.316406 26.503906 38.003906 27.625 C 40.535156 29.308594 41.691406 31.613281 41.441406 34.476562 C 40.960938 39.996094 35.085938 46.085938 32.835938 47.074219 C 32.761719 47.105469 32.6875 47.121094 32.609375 47.121094 C 32.394531 47.121094 32.1875 46.996094 32.09375 46.785156 C 31.96875 46.5 32.097656 46.167969 32.382812 46.042969 C 34.234375 45.234375 39.871094 39.546875 40.320312 34.378906 C 40.53125 31.957031 39.542969 30 37.382812 28.5625 C 35.917969 27.589844 33.710938 26.121094 34.023438 23.785156 C 34.289062 21.808594 36.339844 20.652344 38.550781 19.925781 L 35.535156 19.925781 C 31.082031 21.078125 28.492188 22.742188 28.242188 24.609375 C 28.089844 25.734375 28.890625 26.542969 29.820312 27.480469 C 30.207031 27.871094 30.605469 28.273438 30.949219 28.722656 C 33 31.410156 30.328125 34.332031 27.769531 36.574219 C 27.660156 36.667969 27.527344 36.714844 27.398438 36.714844 C 27.238281 36.714844 27.085938 36.652344 26.972656 36.523438 C 26.769531 36.289062 26.792969 35.933594 27.023438 35.730469 C 30.324219 32.835938 31.230469 30.945312 30.054688 29.40625 C 29.757812 29.015625 29.382812 28.636719 29.019531 28.269531 C 28.023438 27.269531 26.898438 26.132812 27.125 24.460938 C 27.367188 22.644531 28.96875 21.125 31.890625 19.925781 L 27.816406 19.925781 C 27.507812 19.925781 27.253906 19.675781 27.253906 19.363281 C 27.253906 19.050781 27.507812 18.800781 27.816406 18.800781 L 46.558594 18.800781 C 46.867188 18.796875 47.121094 19.050781 47.121094 19.363281 Z M 18.910156 19.925781 L 2.4375 19.925781 C 2.125 19.925781 1.875 19.671875 1.875 19.363281 C 1.875 19.050781 2.125 18.796875 2.4375 18.796875 L 9.757812 18.796875 L 9.757812 17.207031 C 9.519531 17.082031 9.292969 16.929688 9.082031 16.757812 C 8.570312 17.023438 8.003906 17.164062 7.414062 17.164062 C 5.855469 17.164062 4.464844 16.140625 3.984375 14.679688 C 2.742188 14.308594 1.875 13.167969 1.875 11.835938 C 1.875 10.554688 2.695312 9.445312 3.859375 9.035156 C 3.839844 8.890625 3.828125 8.742188 3.828125 8.59375 C 3.828125 7.003906 5.082031 5.703125 6.652344 5.628906 C 6.777344 3.539062 8.515625 1.875 10.640625 1.875 C 12.367188 1.875 13.886719 3.003906 14.421875 4.59375 C 14.828125 4.464844 15.25 4.394531 15.675781 4.394531 C 16.925781 4.394531 18.082031 4.988281 18.824219 5.9375 C 19.429688 4.808594 20.617188 4.039062 21.984375 4.039062 C 23.511719 4.039062 24.859375 5.027344 25.359375 6.421875 C 25.703125 6.316406 26.058594 6.261719 26.421875 6.261719 C 28.398438 6.261719 30.003906 7.867188 30.003906 9.84375 C 30.003906 10.070312 29.984375 10.296875 29.941406 10.515625 C 31.191406 11.011719 32.046875 12.234375 32.046875 13.613281 C 32.046875 15.453125 30.550781 16.945312 28.714844 16.945312 C 28.480469 16.945312 28.25 16.921875 28.027344 16.875 C 27.960938 16.945312 27.890625 17.011719 27.820312 17.074219 C 27.585938 17.277344 27.230469 17.25 27.027344 17.015625 C 26.824219 16.777344 26.847656 16.421875 27.085938 16.21875 C 27.1875 16.132812 27.277344 16.03125 27.355469 15.917969 C 27.5 15.710938 27.761719 15.621094 28.003906 15.703125 C 28.230469 15.78125 28.472656 15.820312 28.714844 15.820312 C 29.929688 15.820312 30.921875 14.832031 30.921875 13.613281 C 30.921875 12.5625 30.171875 11.652344 29.144531 11.449219 C 28.980469 11.417969 28.84375 11.316406 28.761719 11.171875 C 28.679688 11.027344 28.667969 10.855469 28.726562 10.699219 C 28.828125 10.425781 28.878906 10.136719 28.878906 9.84375 C 28.878906 8.488281 27.777344 7.386719 26.421875 7.386719 C 26.011719 7.386719 25.605469 7.492188 25.246094 7.6875 C 25.082031 7.773438 24.886719 7.777344 24.722656 7.695312 C 24.558594 7.613281 24.445312 7.453125 24.417969 7.273438 C 24.246094 6.070312 23.203125 5.167969 21.984375 5.167969 C 20.632812 5.167969 19.53125 6.269531 19.53125 7.621094 C 19.53125 7.710938 19.535156 7.796875 19.542969 7.882812 C 19.5625 8.058594 19.496094 8.234375 19.363281 8.351562 C 19.234375 8.472656 19.054688 8.527344 18.882812 8.496094 C 18.789062 8.476562 18.695312 8.46875 18.601562 8.46875 C 17.742188 8.46875 17.042969 9.167969 17.042969 10.027344 C 17.042969 10.214844 17.078125 10.402344 17.144531 10.578125 C 17.207031 10.742188 17.191406 10.921875 17.101562 11.070312 C 17.011719 11.21875 16.859375 11.316406 16.6875 11.339844 C 15.910156 11.433594 15.324219 12.097656 15.324219 12.882812 C 15.324219 13.644531 15.867188 14.289062 16.617188 14.417969 C 16.84375 14.453125 17.023438 14.625 17.074219 14.851562 C 17.285156 15.8125 18.121094 16.496094 19.109375 16.515625 C 19.417969 16.519531 19.667969 16.777344 19.664062 17.085938 C 19.65625 17.394531 19.40625 17.640625 19.097656 17.640625 C 19.097656 17.640625 19.09375 17.640625 19.089844 17.640625 C 18.253906 17.625 17.492188 17.300781 16.917969 16.761719 C 16.4375 17.082031 15.871094 17.257812 15.277344 17.257812 C 14.867188 17.257812 14.46875 17.171875 14.101562 17.015625 L 14.101562 18.796875 L 18.910156 18.796875 C 19.222656 18.796875 19.472656 19.050781 19.472656 19.363281 C 19.472656 19.671875 19.222656 19.925781 18.910156 19.925781 Z M 11.472656 16.5 C 12.171875 16.5 12.828125 16.226562 13.320312 15.730469 C 13.527344 15.519531 13.863281 15.503906 14.085938 15.695312 C 14.417969 15.976562 14.839844 16.128906 15.277344 16.128906 C 15.625 16.128906 15.957031 16.03125 16.242188 15.855469 C 16.175781 15.722656 16.117188 15.585938 16.070312 15.441406 C 14.964844 15.09375 14.199219 14.070312 14.199219 12.882812 C 14.199219 11.746094 14.914062 10.753906 15.941406 10.371094 C 15.925781 10.257812 15.917969 10.140625 15.917969 10.027344 C 15.917969 8.632812 16.988281 7.484375 18.351562 7.355469 C 17.929688 6.265625 16.863281 5.523438 15.675781 5.523438 C 15.195312 5.523438 14.722656 5.644531 14.300781 5.871094 C 14.140625 5.960938 13.945312 5.964844 13.78125 5.882812 C 13.613281 5.800781 13.5 5.640625 13.476562 5.457031 C 13.277344 4.054688 12.054688 3 10.640625 3 C 9.058594 3 7.773438 4.285156 7.773438 5.867188 C 7.773438 5.96875 7.78125 6.070312 7.789062 6.167969 C 7.808594 6.34375 7.742188 6.519531 7.613281 6.640625 C 7.484375 6.761719 7.304688 6.8125 7.128906 6.78125 C 7.019531 6.761719 6.910156 6.75 6.796875 6.75 C 5.78125 6.75 4.953125 7.578125 4.953125 8.59375 C 4.953125 8.820312 4.996094 9.039062 5.074219 9.25 C 5.136719 9.410156 5.121094 9.589844 5.03125 9.738281 C 4.941406 9.886719 4.789062 9.988281 4.617188 10.007812 C 3.695312 10.121094 3 10.910156 3 11.835938 C 3 12.738281 3.644531 13.503906 4.53125 13.65625 C 4.757812 13.695312 4.9375 13.867188 4.988281 14.089844 C 5.238281 15.21875 6.257812 16.039062 7.414062 16.039062 C 7.925781 16.039062 8.417969 15.882812 8.835938 15.59375 C 9.066406 15.429688 9.382812 15.464844 9.574219 15.671875 C 10.0625 16.199219 10.753906 16.5 11.472656 16.5 Z M 10.886719 18.796875 L 12.972656 18.796875 L 12.972656 17.3125 C 12.507812 17.519531 12 17.628906 11.472656 17.628906 C 11.277344 17.628906 11.078125 17.609375 10.886719 17.578125 Z M 25.972656 36.347656 C 26.253906 36.683594 26.390625 37.078125 26.378906 37.515625 L 26.152344 45.214844 C 26.121094 46.277344 25.246094 47.121094 24.191406 47.121094 C 24.171875 47.121094 24.152344 47.121094 24.132812 47.121094 L 23.910156 47.113281 C 23.386719 47.097656 22.898438 46.878906 22.539062 46.496094 C 22.179688 46.117188 21.988281 45.617188 22.003906 45.09375 L 22.203125 38.347656 C 22.203125 38.34375 22.203125 38.339844 22.203125 38.335938 C 22.203125 38.335938 22.203125 38.335938 22.199219 38.332031 L 20.65625 36.683594 L 20.105469 38.964844 C 20.035156 39.253906 19.929688 39.496094 19.769531 39.75 L 16.070312 45.460938 C 15.785156 45.902344 15.34375 46.203125 14.832031 46.3125 C 14.691406 46.34375 14.554688 46.355469 14.414062 46.355469 C 14.039062 46.355469 13.675781 46.25 13.355469 46.042969 L 13.164062 45.917969 C 12.726562 45.636719 12.425781 45.195312 12.316406 44.683594 C 12.203125 44.167969 12.300781 43.644531 12.585938 43.207031 L 16.050781 37.851562 L 17.148438 32.617188 C 17.058594 32.40625 16.996094 32.199219 16.957031 31.992188 C 16.804688 32.042969 16.652344 32.066406 16.496094 32.066406 C 16.351562 32.066406 16.207031 32.046875 16.066406 32.003906 L 13.386719 31.210938 C 12.234375 30.871094 11.570312 29.652344 11.914062 28.496094 L 12.972656 24.914062 C 13.136719 24.355469 13.511719 23.894531 14.023438 23.617188 C 14.207031 23.519531 14.398438 23.445312 14.597656 23.402344 C 14.480469 23.035156 14.472656 22.640625 14.585938 22.261719 L 14.597656 22.21875 C 14.742188 21.722656 15.078125 21.3125 15.535156 21.0625 C 15.992188 20.816406 16.515625 20.761719 17.011719 20.90625 L 19.296875 21.582031 C 19.648438 21.6875 19.9375 21.921875 20.113281 22.242188 C 20.121094 22.261719 20.128906 22.28125 20.140625 22.300781 C 20.253906 22.238281 20.371094 22.179688 20.492188 22.132812 C 21.300781 21.808594 22.160156 21.871094 22.914062 22.304688 C 23.363281 22.5625 23.734375 22.871094 24.070312 23.277344 C 24.695312 24.03125 24.90625 24.964844 24.65625 25.910156 L 24.132812 27.894531 L 24.222656 28.167969 L 27.910156 29.152344 C 28.832031 29.402344 29.378906 30.351562 29.132812 31.273438 L 29.078125 31.484375 C 28.957031 31.929688 28.671875 32.300781 28.269531 32.53125 C 28.003906 32.6875 27.707031 32.765625 27.40625 32.765625 C 27.257812 32.765625 27.109375 32.746094 26.960938 32.707031 L 23.136719 31.683594 L 22.875 32.6875 Z M 15.730469 23.203125 C 15.835938 23.394531 16.007812 23.535156 16.214844 23.597656 L 18.734375 24.339844 L 18.855469 23.925781 L 19.140625 22.96875 C 19.164062 22.882812 19.136719 22.816406 19.121094 22.78125 C 19.101562 22.746094 19.058594 22.6875 18.972656 22.660156 L 16.691406 21.988281 C 16.480469 21.925781 16.261719 21.949219 16.070312 22.054688 C 15.875 22.160156 15.734375 22.332031 15.675781 22.539062 L 15.664062 22.582031 C 15.601562 22.789062 15.625 23.007812 15.730469 23.203125 Z M 16.863281 30.660156 L 18.414062 25.421875 L 15.363281 24.519531 C 15.265625 24.488281 15.167969 24.476562 15.066406 24.476562 C 14.890625 24.476562 14.71875 24.519531 14.5625 24.605469 C 14.3125 24.742188 14.132812 24.964844 14.050781 25.230469 L 12.992188 28.816406 C 12.910156 29.085938 12.941406 29.371094 13.078125 29.617188 C 13.210938 29.867188 13.4375 30.046875 13.703125 30.128906 L 16.382812 30.921875 C 16.480469 30.949219 16.585938 30.9375 16.675781 30.890625 C 16.769531 30.839844 16.835938 30.757812 16.863281 30.660156 Z M 19.734375 35.695312 L 18.03125 33.878906 L 17.132812 38.183594 C 17.117188 38.253906 17.089844 38.316406 17.054688 38.375 L 13.527344 43.816406 C 13.40625 44.003906 13.367188 44.226562 13.414062 44.445312 C 13.460938 44.664062 13.589844 44.851562 13.777344 44.972656 L 13.964844 45.09375 C 14.152344 45.214844 14.375 45.253906 14.59375 45.207031 C 14.8125 45.160156 15 45.03125 15.121094 44.847656 L 18.820312 39.132812 C 18.914062 38.992188 18.96875 38.863281 19.007812 38.695312 Z M 25.253906 37.484375 C 25.257812 37.324219 25.214844 37.199219 25.109375 37.074219 L 21.820312 33.1875 C 21.703125 33.046875 21.660156 32.859375 21.707031 32.679688 L 22.050781 31.371094 C 21.609375 31.183594 21.269531 30.832031 21.101562 30.367188 L 19.75 26.625 C 19.640625 26.332031 19.792969 26.007812 20.085938 25.90625 C 20.378906 25.796875 20.703125 25.949219 20.808594 26.242188 L 22.160156 29.984375 C 22.230469 30.179688 22.371094 30.308594 22.570312 30.363281 L 27.25 31.617188 C 27.402344 31.65625 27.566406 31.636719 27.707031 31.554688 C 27.84375 31.472656 27.945312 31.34375 27.988281 31.1875 L 28.042969 30.976562 C 28.128906 30.65625 27.9375 30.324219 27.617188 30.242188 L 23.636719 29.175781 C 23.457031 29.125 23.308594 28.988281 23.25 28.808594 L 22.054688 25.222656 C 21.953125 24.929688 22.113281 24.609375 22.410156 24.511719 C 22.703125 24.414062 23.023438 24.574219 23.121094 24.867188 L 23.480469 25.941406 L 23.5625 25.621094 C 23.71875 25.027344 23.59375 24.46875 23.203125 23.996094 C 22.949219 23.691406 22.6875 23.472656 22.351562 23.277344 C 21.890625 23.011719 21.40625 22.976562 20.910156 23.175781 C 20.414062 23.371094 20.089844 23.730469 19.9375 24.242188 L 19.65625 25.199219 L 18.273438 29.867188 C 17.894531 31.195312 17.851562 32.035156 18.6875 32.929688 L 23.023438 37.558594 C 23.234375 37.785156 23.339844 38.066406 23.332031 38.375 L 23.132812 45.125 C 23.125 45.347656 23.207031 45.558594 23.359375 45.722656 C 23.511719 45.886719 23.71875 45.976562 23.941406 45.984375 L 24.167969 45.992188 C 24.628906 46.003906 25.011719 45.640625 25.027344 45.179688 Z M 26.570312 18.582031 C 26.570312 20.351562 25.132812 21.789062 23.363281 21.789062 C 21.59375 21.789062 20.15625 20.351562 20.15625 18.582031 C 20.15625 16.8125 21.597656 15.375 23.363281 15.375 C 25.132812 15.375 26.570312 16.8125 26.570312 18.582031 Z M 25.445312 18.582031 C 25.445312 17.433594 24.511719 16.5 23.363281 16.5 C 22.214844 16.5 21.285156 17.433594 21.285156 18.582031 C 21.285156 19.726562 22.21875 20.664062 23.363281 20.664062 C 24.511719 20.664062 25.445312 19.726562 25.445312 18.582031 Z M 25.445312 18.582031 " fill-opacity="1" fill-rule="nonzero"/></g></svg>