<svg xmlns="http://www.w3.org/2000/svg" xmlns:xlink="http://www.w3.org/1999/xlink" width="66" zoomAndPan="magnify" viewBox="0 0 49.5 49.499998" height="66" preserveAspectRatio="xMidYMid meet" version="1.0"><defs><clipPath id="bcc9d41ed8"><path d="M 2 2.226562 L 47 2.226562 L 47 46.777344 L 2 46.777344 Z M 2 2.226562 " clip-rule="nonzero"/></clipPath></defs><g clip-path="url(#bcc9d41ed8)"><path fill="#bbab99" d="M 45.527344 20.054688 C 45.285156 19.546875 45.042969 19.230469 44.867188 19.050781 C 44.285156 17.847656 43.058594 16.921875 41.484375 16.480469 C 41.308594 15.488281 40.703125 14.585938 39.730469 13.894531 C 38.515625 13.03125 36.957031 12.664062 35.480469 12.714844 C 33.191406 10.378906 28.472656 10.378906 26.179688 12.714844 C 24.707031 12.664062 23.144531 13.03125 21.933594 13.894531 C 20.960938 14.585938 20.351562 15.488281 20.179688 16.480469 C 18.308594 17.007812 16.945312 18.230469 16.554688 19.699219 L 6.644531 19.699219 L 6.644531 5.722656 C 6.644531 4.757812 7.429688 3.976562 8.394531 3.976562 L 11.011719 3.976562 C 11.710938 3.976562 12.308594 4.386719 12.589844 4.976562 C 10.683594 5.445312 9.265625 7.167969 9.265625 9.214844 C 9.265625 9.699219 9.65625 10.089844 10.140625 10.089844 L 17.128906 10.089844 C 17.609375 10.089844 18 9.699219 18 9.214844 C 18 7.074219 16.449219 5.289062 14.414062 4.917969 C 14.050781 3.378906 12.664062 2.226562 11.011719 2.226562 L 8.394531 2.226562 C 6.464844 2.226562 4.898438 3.796875 4.898438 5.722656 L 4.898438 19.699219 C 3.222656 19.699219 1.980469 21.25 2.339844 22.882812 C 2.246094 23.230469 2.203125 22.332031 4.84375 39.265625 C 5.230469 41.59375 7.222656 43.28125 9.582031 43.28125 L 10.140625 43.28125 C 10.140625 45.207031 11.707031 46.777344 13.632812 46.777344 C 15.558594 46.777344 17.128906 45.207031 17.128906 43.28125 L 31.976562 43.28125 C 31.976562 45.207031 33.542969 46.777344 35.472656 46.777344 C 37.398438 46.777344 38.964844 45.207031 38.964844 43.28125 L 39.523438 43.28125 C 41.882812 43.28125 43.875 41.59375 44.261719 39.261719 C 46.898438 22.335938 46.859375 23.230469 46.765625 22.882812 C 47.015625 21.746094 46.492188 20.621094 45.527344 20.054688 Z M 16.105469 8.34375 L 11.164062 8.34375 C 11.523438 7.324219 12.496094 6.59375 13.632812 6.59375 C 14.773438 6.59375 15.742188 7.324219 16.105469 8.34375 Z M 23.242188 21.882812 C 23.242188 20.65625 24.242188 19.699219 25.425781 19.699219 L 35.90625 19.699219 C 37.085938 19.699219 38.089844 20.65625 38.089844 21.882812 L 38.089844 31.925781 L 23.242188 31.925781 Z M 39.8125 21.445312 L 44.207031 21.445312 C 44.984375 21.445312 45.371094 22.390625 44.824219 22.933594 C 44.660156 23.101562 44.4375 23.191406 44.207031 23.191406 L 39.839844 23.191406 C 39.832031 21.941406 39.855469 21.816406 39.8125 21.445312 Z M 21.160156 18.046875 C 21.566406 17.972656 21.902344 17.621094 21.875 17.101562 L 21.875 17.078125 C 21.875 15.476562 24.144531 14.269531 26.472656 14.484375 C 26.765625 14.511719 27.050781 14.386719 27.234375 14.15625 C 28.769531 12.230469 32.894531 12.230469 34.429688 14.15625 C 34.613281 14.386719 34.898438 14.507812 35.191406 14.484375 C 37.515625 14.269531 39.789062 15.472656 39.789062 17.074219 C 39.785156 17.128906 39.785156 17.140625 39.785156 17.164062 C 39.773438 17.59375 40.078125 17.96875 40.5 18.046875 C 41.765625 18.277344 42.785156 18.898438 43.234375 19.699219 L 39.175781 19.699219 C 38.464844 18.640625 37.253906 17.949219 35.90625 17.949219 L 25.425781 17.949219 C 24.078125 17.949219 22.871094 18.640625 22.160156 19.699219 L 18.433594 19.699219 C 18.875 18.917969 19.890625 18.277344 21.160156 18.046875 Z M 4.898438 21.445312 L 21.519531 21.445312 C 21.480469 21.816406 21.5 21.960938 21.496094 23.191406 L 4.898438 23.191406 C 4.417969 23.191406 4.023438 22.800781 4.023438 22.316406 C 4.023438 21.835938 4.417969 21.445312 4.898438 21.445312 Z M 13.632812 45.027344 C 12.671875 45.027344 11.886719 44.246094 11.886719 43.28125 L 15.378906 43.28125 C 15.378906 44.246094 14.597656 45.027344 13.632812 45.027344 Z M 35.472656 45.027344 C 34.507812 45.027344 33.722656 44.246094 33.722656 43.28125 L 37.21875 43.28125 C 37.21875 44.246094 36.433594 45.027344 35.472656 45.027344 Z M 42.539062 38.980469 C 42.292969 40.460938 41.023438 41.535156 39.523438 41.535156 L 9.582031 41.535156 C 8.082031 41.535156 6.8125 40.460938 6.566406 38.988281 L 4.34375 24.878906 C 4.867188 24.992188 4.085938 24.917969 21.496094 24.9375 L 21.496094 32.800781 C 21.496094 33.28125 21.886719 33.671875 22.367188 33.671875 L 38.964844 33.671875 C 39.449219 33.671875 39.839844 33.28125 39.839844 32.800781 L 39.839844 24.9375 C 44.347656 24.917969 44.277344 24.984375 44.761719 24.878906 Z M 42.539062 38.980469 " fill-opacity="1" fill-rule="nonzero"/></g><path fill="#bbab99" d="M 9.359375 12.320312 L 8.484375 14.066406 C 8.269531 14.496094 8.445312 15.023438 8.875 15.238281 C 9.308594 15.453125 9.832031 15.277344 10.046875 14.847656 L 10.921875 13.101562 C 11.136719 12.667969 10.960938 12.144531 10.53125 11.929688 C 10.097656 11.710938 9.574219 11.886719 9.359375 12.320312 Z M 9.359375 12.320312 " fill-opacity="1" fill-rule="nonzero"/><path fill="#bbab99" d="M 12.761719 12.710938 L 12.761719 14.457031 C 12.761719 14.9375 13.152344 15.332031 13.632812 15.332031 C 14.117188 15.332031 14.507812 14.9375 14.507812 14.457031 L 14.507812 12.710938 C 14.507812 12.226562 14.117188 11.835938 13.632812 11.835938 C 13.152344 11.835938 12.761719 12.226562 12.761719 12.710938 Z M 12.761719 12.710938 " fill-opacity="1" fill-rule="nonzero"/><path fill="#bbab99" d="M 16.738281 11.929688 C 16.304688 12.144531 16.128906 12.667969 16.347656 13.101562 L 17.21875 14.847656 C 17.4375 15.28125 17.960938 15.453125 18.390625 15.238281 C 18.824219 15.023438 19 14.496094 18.78125 14.066406 L 17.910156 12.320312 C 17.691406 11.886719 17.167969 11.710938 16.738281 11.929688 Z M 16.738281 11.929688 " fill-opacity="1" fill-rule="nonzero"/></svg>