<svg xmlns="http://www.w3.org/2000/svg" xmlns:xlink="http://www.w3.org/1999/xlink" width="66" zoomAndPan="magnify" viewBox="0 0 49.5 49.499998" height="66" preserveAspectRatio="xMidYMid meet" version="1.0"><defs><clipPath id="da55188933"><path d="M 2.027344 2.027344 L 47 2.027344 L 47 47 L 2.027344 47 Z M 2.027344 2.027344 " clip-rule="nonzero"/></clipPath></defs><g clip-path="url(#da55188933)"><path fill="#bbab99" d="M 5.148438 43.804688 C 4.382812 43.683594 3.664062 43.320312 3.109375 42.761719 C 2.414062 42.066406 2.023438 41.125 2.023438 40.136719 L 2.023438 7.300781 C 2.023438 6.316406 2.414062 5.371094 3.109375 4.671875 C 3.804688 3.976562 4.75 3.585938 5.734375 3.585938 L 38.574219 3.585938 C 39.519531 3.585938 40.425781 3.945312 41.113281 4.59375 L 41.113281 4.171875 C 41.113281 2.984375 42.074219 2.023438 43.265625 2.023438 L 44.828125 2.023438 C 46.015625 2.023438 46.976562 2.984375 46.976562 4.171875 L 46.976562 43.265625 C 46.976562 44.453125 46.015625 45.414062 44.828125 45.414062 L 43.265625 45.414062 C 42.074219 45.414062 41.113281 44.453125 41.113281 43.265625 L 41.113281 42.847656 C 40.570312 43.355469 39.886719 43.6875 39.160156 43.804688 L 39.160156 45.609375 C 39.160156 46.367188 38.546875 46.980469 37.792969 46.980469 L 33.101562 46.980469 C 32.34375 46.980469 31.730469 46.367188 31.730469 45.609375 L 31.730469 43.851562 L 12.578125 43.851562 L 12.578125 45.609375 C 12.578125 46.367188 11.964844 46.980469 11.207031 46.980469 L 6.515625 46.980469 C 5.761719 46.980469 5.148438 46.367188 5.148438 45.609375 Z M 41.113281 7.300781 C 41.113281 6.625 40.847656 5.976562 40.371094 5.503906 C 39.894531 5.027344 39.246094 4.757812 38.574219 4.757812 L 5.734375 4.757812 C 5.0625 4.757812 4.414062 5.027344 3.9375 5.503906 C 3.460938 5.976562 3.195312 6.625 3.195312 7.300781 L 3.195312 40.136719 C 3.195312 40.8125 3.460938 41.457031 3.9375 41.933594 C 4.414062 42.410156 5.0625 42.679688 5.734375 42.679688 L 38.574219 42.679688 C 39.246094 42.679688 39.894531 42.410156 40.371094 41.933594 C 40.847656 41.457031 41.113281 40.8125 41.113281 40.136719 Z M 42.285156 4.171875 L 42.285156 43.265625 C 42.285156 43.804688 42.726562 44.242188 43.265625 44.242188 L 44.828125 44.242188 C 45.367188 44.242188 45.804688 43.804688 45.804688 43.265625 L 45.804688 4.171875 C 45.804688 3.632812 45.367188 3.195312 44.828125 3.195312 L 43.265625 3.195312 C 42.726562 3.195312 42.285156 3.632812 42.285156 4.171875 Z M 32.90625 43.851562 L 32.90625 45.609375 C 32.90625 45.71875 32.992188 45.804688 33.101562 45.804688 L 37.792969 45.804688 C 37.898438 45.804688 37.988281 45.71875 37.988281 45.609375 L 37.988281 43.851562 Z M 6.320312 43.851562 L 6.320312 45.609375 C 6.320312 45.71875 6.410156 45.804688 6.515625 45.804688 L 11.207031 45.804688 C 11.316406 45.804688 11.402344 45.71875 11.402344 45.609375 L 11.402344 43.851562 Z M 5.148438 39.355469 L 5.148438 8.082031 C 5.148438 7.328125 5.761719 6.710938 6.515625 6.710938 L 37.792969 6.710938 C 38.546875 6.710938 39.160156 7.328125 39.160156 8.082031 L 39.160156 39.355469 C 39.160156 40.113281 38.546875 40.722656 37.792969 40.722656 L 6.515625 40.722656 C 5.761719 40.722656 5.148438 40.113281 5.148438 39.355469 Z M 37.988281 19.222656 L 37.988281 8.082031 C 37.988281 7.972656 37.898438 7.886719 37.792969 7.886719 L 6.515625 7.886719 C 6.410156 7.886719 6.320312 7.972656 6.320312 8.082031 L 6.320312 19.222656 L 19.457031 19.222656 C 19.304688 18.929688 19.222656 18.597656 19.222656 18.246094 L 19.222656 11.992188 C 19.222656 10.804688 20.183594 9.839844 21.371094 9.839844 L 24.5 9.839844 C 25.6875 9.839844 26.648438 10.804688 26.648438 11.992188 L 26.648438 18.246094 C 26.648438 18.597656 26.566406 18.929688 26.414062 19.222656 L 28.839844 19.222656 C 28.6875 18.929688 28.605469 18.597656 28.605469 18.246094 L 28.605469 11.992188 C 28.605469 10.804688 29.566406 9.839844 30.753906 9.839844 L 33.882812 9.839844 C 35.070312 9.839844 36.03125 10.804688 36.03125 11.992188 L 36.03125 18.246094 C 36.03125 18.597656 35.949219 18.929688 35.796875 19.222656 Z M 25.085938 39.550781 L 37.792969 39.550781 C 37.898438 39.550781 37.988281 39.464844 37.988281 39.355469 L 37.988281 20.394531 L 6.320312 20.394531 L 6.320312 39.355469 C 6.320312 39.464844 6.410156 39.550781 6.515625 39.550781 L 8.277344 39.550781 L 8.277344 30.621094 C 8.277344 30.050781 8.503906 29.503906 8.90625 29.101562 L 9.554688 28.453125 C 9.738281 28.269531 9.839844 28.023438 9.839844 27.761719 L 9.839844 23.71875 C 9.839844 23.355469 9.984375 23.007812 10.242188 22.75 C 10.496094 22.496094 10.84375 22.351562 11.207031 22.351562 L 12.773438 22.351562 C 13.136719 22.351562 13.480469 22.496094 13.738281 22.75 C 13.996094 23.007812 14.140625 23.355469 14.140625 23.71875 L 14.140625 27.761719 C 14.140625 28.023438 14.242188 28.269531 14.425781 28.453125 L 15.074219 29.101562 C 15.476562 29.503906 15.703125 30.050781 15.703125 30.621094 L 15.703125 39.550781 L 17.660156 39.550781 L 17.660156 30.621094 C 17.660156 30.050781 17.886719 29.503906 18.289062 29.101562 L 18.9375 28.453125 C 19.117188 28.269531 19.222656 28.023438 19.222656 27.761719 L 19.222656 23.71875 C 19.222656 23.355469 19.367188 23.007812 19.621094 22.75 C 19.878906 22.496094 20.226562 22.351562 20.589844 22.351562 L 22.152344 22.351562 C 22.515625 22.351562 22.863281 22.496094 23.121094 22.75 C 23.378906 23.007812 23.523438 23.355469 23.523438 23.71875 L 23.523438 27.761719 C 23.523438 28.023438 23.625 28.269531 23.808594 28.453125 L 24.457031 29.101562 C 24.859375 29.503906 25.085938 30.050781 25.085938 30.621094 Z M 18.832031 39.550781 L 23.914062 39.550781 L 23.914062 30.621094 C 23.914062 30.363281 23.808594 30.113281 23.628906 29.929688 L 22.980469 29.28125 C 22.578125 28.878906 22.351562 28.332031 22.351562 27.761719 L 22.351562 26.652344 L 20.394531 26.652344 L 20.394531 27.761719 C 20.394531 28.332031 20.167969 28.878906 19.765625 29.28125 L 19.117188 29.929688 C 18.933594 30.113281 18.832031 30.363281 18.832031 30.621094 Z M 9.449219 39.550781 L 14.53125 39.550781 L 14.53125 30.621094 C 14.53125 30.363281 14.425781 30.113281 14.246094 29.929688 L 13.597656 29.28125 C 13.195312 28.878906 12.96875 28.332031 12.96875 27.761719 L 12.96875 26.652344 L 11.011719 26.652344 L 11.011719 27.761719 C 11.011719 28.332031 10.785156 28.878906 10.382812 29.28125 L 9.734375 29.929688 C 9.550781 30.113281 9.449219 30.363281 9.449219 30.621094 Z M 24.5 19.222656 C 25.039062 19.222656 25.476562 18.785156 25.476562 18.246094 L 25.476562 11.992188 C 25.476562 11.453125 25.039062 11.011719 24.5 11.011719 L 21.371094 11.011719 C 20.832031 11.011719 20.394531 11.453125 20.394531 11.992188 L 20.394531 18.246094 C 20.394531 18.785156 20.832031 19.222656 21.371094 19.222656 Z M 33.882812 19.222656 C 34.421875 19.222656 34.859375 18.785156 34.859375 18.246094 L 34.859375 11.992188 C 34.859375 11.453125 34.421875 11.011719 33.882812 11.011719 L 30.753906 11.011719 C 30.214844 11.011719 29.777344 11.453125 29.777344 11.992188 L 29.777344 18.246094 C 29.777344 18.785156 30.214844 19.222656 30.753906 19.222656 Z M 12.96875 25.476562 L 12.96875 23.71875 C 12.96875 23.667969 12.949219 23.617188 12.910156 23.582031 C 12.875 23.542969 12.824219 23.523438 12.773438 23.523438 L 11.207031 23.523438 C 11.15625 23.523438 11.105469 23.542969 11.070312 23.582031 C 11.03125 23.617188 11.011719 23.667969 11.011719 23.71875 L 11.011719 25.476562 Z M 22.351562 25.476562 L 22.351562 23.71875 C 22.351562 23.667969 22.328125 23.617188 22.292969 23.582031 C 22.253906 23.542969 22.207031 23.523438 22.152344 23.523438 L 20.589844 23.523438 C 20.539062 23.523438 20.488281 23.542969 20.453125 23.582031 C 20.414062 23.617188 20.394531 23.667969 20.394531 23.71875 L 20.394531 25.476562 Z M 31.730469 13.554688 C 31.730469 13.230469 31.996094 12.96875 32.316406 12.96875 C 32.640625 12.96875 32.90625 13.230469 32.90625 13.554688 L 32.90625 16.683594 C 32.90625 17.007812 32.640625 17.269531 32.316406 17.269531 C 31.996094 17.269531 31.730469 17.007812 31.730469 16.683594 Z M 22.351562 13.554688 C 22.351562 13.230469 22.613281 12.96875 22.9375 12.96875 C 23.261719 12.96875 23.523438 13.230469 23.523438 13.554688 L 23.523438 16.683594 C 23.523438 17.007812 23.261719 17.269531 22.9375 17.269531 C 22.613281 17.269531 22.351562 17.007812 22.351562 16.683594 Z M 22.351562 13.554688 " fill-opacity="1" fill-rule="evenodd"/></g></svg>