<svg xmlns="http://www.w3.org/2000/svg" xmlns:xlink="http://www.w3.org/1999/xlink" width="66" zoomAndPan="magnify" viewBox="0 0 49.5 49.499998" height="66" preserveAspectRatio="xMidYMid meet" version="1.0"><defs><clipPath id="f892c06ba6"><path d="M 1.722656 1.722656 L 47.015625 1.722656 L 47.015625 47.015625 L 1.722656 47.015625 Z M 1.722656 1.722656 " clip-rule="nonzero"/></clipPath></defs><g clip-path="url(#f892c06ba6)"><path fill="#bbab99" d="M 13.175781 15.183594 C 11.992188 15.183594 10.964844 15.792969 10.425781 16.816406 L 1.804688 33.148438 C 1.691406 33.367188 1.695312 33.632812 1.824219 33.847656 C 1.953125 34.0625 2.1875 34.191406 2.433594 34.191406 L 15.0625 34.191406 C 15.53125 36.367188 17.320312 38.066406 19.574219 38.375 C 20.363281 39.78125 21.859375 40.671875 23.496094 40.671875 C 24.070312 40.671875 24.628906 40.566406 25.148438 40.359375 C 25.238281 42.414062 24.628906 44.332031 23.324219 46.144531 C 23.167969 46.359375 23.148438 46.648438 23.269531 46.882812 C 23.390625 47.121094 23.636719 47.273438 23.902344 47.273438 L 31.863281 47.273438 C 32.128906 47.273438 32.371094 47.121094 32.496094 46.886719 C 32.617188 46.648438 32.59375 46.363281 32.4375 46.144531 C 31.136719 44.332031 30.527344 42.414062 30.617188 40.359375 C 31.136719 40.566406 31.695312 40.671875 32.269531 40.671875 C 33.90625 40.671875 35.402344 39.785156 36.191406 38.375 C 38.445312 38.070312 40.234375 36.371094 40.703125 34.191406 L 46.5625 34.191406 C 46.816406 34.191406 47.050781 34.054688 47.175781 33.835938 C 47.304688 33.617188 47.304688 33.347656 47.175781 33.125 L 32.878906 8.273438 C 32.066406 6.859375 30.523438 6.015625 28.75 6.015625 C 26.976562 6.015625 25.429688 6.859375 24.617188 8.273438 L 17.730469 20.242188 L 15.921875 16.816406 C 15.382812 15.792969 14.355469 15.1875 13.175781 15.1875 Z M 11.683594 17.480469 C 11.976562 16.925781 12.519531 16.605469 13.175781 16.605469 C 13.828125 16.605469 14.371094 16.925781 14.664062 17.476562 L 17.058594 22.015625 C 17.070312 22.039062 17.082031 22.058594 17.09375 22.082031 L 18.121094 24.027344 C 17.527344 24.847656 17.179688 25.851562 17.179688 26.9375 C 17.179688 27.488281 17.265625 28.023438 17.4375 28.53125 C 15.984375 29.453125 15.046875 31.035156 14.949219 32.769531 L 3.613281 32.769531 Z M 35.691406 36.992188 C 35.425781 37.007812 35.1875 37.171875 35.082031 37.417969 C 34.589844 38.53125 33.484375 39.25 32.269531 39.25 C 31.746094 39.25 31.242188 39.117188 30.792969 38.871094 C 31.0625 37.496094 31.625 36.058594 32.480469 34.554688 C 32.671875 34.210938 32.554688 33.777344 32.210938 33.585938 C 31.871094 33.390625 31.4375 33.511719 31.242188 33.851562 C 28.71875 38.304688 28.492188 42.242188 30.554688 45.847656 L 25.207031 45.847656 C 27.273438 42.242188 27.042969 38.304688 24.519531 33.851562 C 24.328125 33.511719 23.894531 33.390625 23.550781 33.585938 C 23.210938 33.777344 23.089844 34.210938 23.28125 34.554688 C 24.136719 36.0625 24.699219 37.496094 24.96875 38.871094 C 24.519531 39.121094 24.019531 39.25 23.496094 39.25 C 22.277344 39.25 21.175781 38.53125 20.683594 37.417969 C 20.578125 37.171875 20.339844 37.007812 20.074219 36.992188 C 17.996094 36.875 16.363281 35.148438 16.363281 33.0625 C 16.363281 31.539062 17.257812 30.136719 18.640625 29.492188 C 18.816406 29.410156 18.949219 29.261719 19.011719 29.082031 C 19.078125 28.898438 19.0625 28.699219 18.976562 28.527344 C 18.726562 28.035156 18.601562 27.5 18.601562 26.9375 C 18.601562 24.980469 20.191406 23.390625 22.144531 23.390625 C 22.636719 23.390625 23.109375 23.488281 23.550781 23.679688 C 23.734375 23.757812 23.945312 23.757812 24.125 23.675781 C 24.308594 23.59375 24.449219 23.4375 24.511719 23.25 C 24.992188 21.792969 26.34375 20.8125 27.878906 20.8125 C 29.414062 20.8125 30.769531 21.792969 31.25 23.25 C 31.3125 23.4375 31.453125 23.59375 31.632812 23.675781 C 31.816406 23.757812 32.023438 23.757812 32.207031 23.679688 C 32.652344 23.488281 33.125 23.390625 33.617188 23.390625 C 35.574219 23.390625 37.164062 24.980469 37.164062 26.9375 C 37.164062 27.492188 37.035156 28.03125 36.785156 28.53125 C 36.699219 28.703125 36.6875 28.898438 36.75 29.082031 C 36.816406 29.261719 36.949219 29.410156 37.121094 29.492188 C 38.507812 30.136719 39.398438 31.539062 39.398438 33.0625 C 39.398438 35.148438 37.769531 36.875 35.691406 36.992188 Z M 25.851562 8.984375 C 26.414062 8 27.472656 7.4375 28.75 7.4375 C 30.027344 7.4375 31.089844 8.015625 31.644531 8.984375 L 45.328125 32.769531 L 40.8125 32.769531 C 40.71875 31.039062 39.777344 29.453125 38.324219 28.53125 C 38.496094 28.019531 38.585938 27.484375 38.585938 26.9375 C 38.585938 24.195312 36.355469 21.96875 33.617188 21.96875 C 33.175781 21.96875 32.746094 22.023438 32.328125 22.136719 C 31.496094 20.46875 29.789062 19.390625 27.882812 19.390625 C 25.972656 19.390625 24.265625 20.46875 23.433594 22.136719 C 23.019531 22.027344 22.585938 21.96875 22.144531 21.96875 C 21.03125 21.96875 19.996094 22.339844 19.167969 22.964844 L 18.515625 21.730469 L 25.847656 8.984375 Z M 8.730469 12.488281 C 10.800781 12.488281 12.484375 10.804688 12.484375 8.734375 C 12.484375 6.664062 10.800781 4.980469 8.730469 4.980469 C 6.660156 4.980469 4.976562 6.664062 4.976562 8.734375 C 4.976562 10.804688 6.660156 12.488281 8.730469 12.488281 Z M 8.730469 6.402344 C 10.019531 6.402344 11.0625 7.449219 11.0625 8.734375 C 11.0625 10.019531 10.019531 11.066406 8.730469 11.066406 C 7.445312 11.066406 6.398438 10.019531 6.398438 8.734375 C 6.398438 7.449219 7.445312 6.402344 8.730469 6.402344 Z M 8.019531 3.613281 L 8.019531 2.433594 C 8.019531 2.042969 8.339844 1.722656 8.730469 1.722656 C 9.125 1.722656 9.441406 2.042969 9.441406 2.433594 L 9.441406 3.613281 C 9.441406 4.003906 9.125 4.324219 8.730469 4.324219 C 8.339844 4.324219 8.019531 4.003906 8.019531 3.613281 Z M 11.847656 5.613281 C 11.570312 5.332031 11.574219 4.882812 11.851562 4.605469 L 12.683594 3.777344 C 12.960938 3.5 13.410156 3.5 13.6875 3.777344 C 13.964844 4.058594 13.964844 4.507812 13.6875 4.785156 L 12.855469 5.613281 C 12.714844 5.753906 12.535156 5.820312 12.351562 5.820312 C 12.171875 5.820312 11.988281 5.753906 11.847656 5.613281 Z M 13.851562 8.023438 L 15.03125 8.023438 C 15.421875 8.023438 15.742188 8.339844 15.742188 8.734375 C 15.742188 9.125 15.421875 9.445312 15.03125 9.445312 L 13.851562 9.445312 C 13.460938 9.445312 13.140625 9.125 13.140625 8.734375 C 13.140625 8.339844 13.460938 8.023438 13.851562 8.023438 Z M 12.679688 13.691406 L 11.847656 12.859375 C 11.570312 12.578125 11.570312 12.128906 11.847656 11.851562 C 12.128906 11.574219 12.578125 11.574219 12.855469 11.851562 L 13.6875 12.683594 C 13.964844 12.960938 13.964844 13.414062 13.6875 13.691406 C 13.546875 13.828125 13.367188 13.898438 13.183594 13.898438 C 13.003906 13.898438 12.820312 13.828125 12.679688 13.691406 Z M 8.730469 15.742188 C 8.339844 15.742188 8.019531 15.421875 8.019531 15.03125 L 8.019531 13.855469 C 8.019531 13.460938 8.339844 13.144531 8.730469 13.144531 C 9.125 13.144531 9.441406 13.460938 9.441406 13.855469 L 9.441406 15.03125 C 9.441406 15.421875 9.125 15.742188 8.730469 15.742188 Z M 4.277344 13.898438 C 4.097656 13.898438 3.914062 13.828125 3.773438 13.691406 C 3.496094 13.410156 3.496094 12.960938 3.773438 12.683594 L 4.609375 11.851562 C 4.886719 11.574219 5.335938 11.574219 5.613281 11.851562 C 5.890625 12.128906 5.890625 12.582031 5.613281 12.859375 L 4.78125 13.691406 C 4.640625 13.828125 4.460938 13.898438 4.277344 13.898438 Z M 1.722656 8.734375 C 1.722656 8.339844 2.042969 8.023438 2.433594 8.023438 L 3.609375 8.023438 C 4.003906 8.023438 4.320312 8.339844 4.320312 8.734375 C 4.320312 9.125 4.003906 9.445312 3.609375 9.445312 L 2.433594 9.445312 C 2.042969 9.445312 1.722656 9.125 1.722656 8.734375 Z M 3.777344 4.785156 C 3.496094 4.507812 3.496094 4.054688 3.773438 3.777344 C 4.050781 3.5 4.5 3.5 4.78125 3.777344 L 5.613281 4.605469 C 5.890625 4.882812 5.890625 5.335938 5.613281 5.613281 C 5.476562 5.75 5.292969 5.820312 5.109375 5.820312 C 4.925781 5.820312 4.746094 5.753906 4.609375 5.613281 L 3.773438 4.785156 Z M 2.433594 43.328125 L 5.003906 43.328125 L 5.003906 46.558594 C 5.003906 46.953125 5.320312 47.269531 5.714844 47.269531 L 8.050781 47.269531 C 8.441406 47.269531 8.761719 46.953125 8.761719 46.558594 L 8.761719 43.328125 L 12.210938 43.328125 L 12.210938 46.558594 C 12.210938 46.953125 12.527344 47.269531 12.921875 47.269531 L 15.257812 47.269531 C 15.648438 47.269531 15.96875 46.953125 15.96875 46.558594 L 15.96875 43.328125 L 18.539062 43.328125 C 18.929688 43.328125 19.25 43.011719 19.25 42.617188 L 19.25 40.285156 C 19.25 39.890625 18.929688 39.574219 18.539062 39.574219 L 15.96875 39.574219 L 15.96875 38.382812 C 15.96875 37.988281 15.648438 37.671875 15.257812 37.671875 L 12.921875 37.671875 C 12.527344 37.671875 12.210938 37.988281 12.210938 38.382812 L 12.210938 39.574219 L 8.761719 39.574219 L 8.761719 38.382812 C 8.761719 37.988281 8.441406 37.671875 8.050781 37.671875 L 5.714844 37.671875 C 5.320312 37.671875 5.003906 37.988281 5.003906 38.382812 L 5.003906 39.574219 L 2.433594 39.574219 C 2.042969 39.574219 1.722656 39.890625 1.722656 40.285156 L 1.722656 42.617188 C 1.722656 43.011719 2.042969 43.328125 2.433594 43.328125 Z M 17.828125 40.996094 L 17.828125 41.90625 L 15.96875 41.90625 L 15.96875 40.996094 Z M 13.632812 39.09375 L 14.546875 39.09375 L 14.546875 45.847656 L 13.632812 45.847656 Z M 12.210938 40.996094 L 12.210938 41.90625 L 8.761719 41.90625 L 8.761719 40.996094 Z M 6.425781 39.09375 L 7.339844 39.09375 L 7.339844 45.847656 L 6.425781 45.847656 Z M 3.144531 40.996094 L 5.003906 40.996094 L 5.003906 41.90625 L 3.144531 41.90625 Z M 46.558594 39.574219 L 43.585938 39.574219 L 43.585938 38.382812 C 43.585938 37.988281 43.265625 37.671875 42.875 37.671875 L 40.539062 37.671875 C 40.144531 37.671875 39.828125 37.988281 39.828125 38.382812 L 39.828125 39.574219 L 36.855469 39.574219 C 36.460938 39.574219 36.144531 39.890625 36.144531 40.285156 L 36.144531 42.617188 C 36.144531 43.011719 36.460938 43.328125 36.855469 43.328125 L 39.828125 43.328125 L 39.828125 46.558594 C 39.828125 46.953125 40.144531 47.269531 40.539062 47.269531 L 42.875 47.269531 C 43.265625 47.269531 43.585938 46.953125 43.585938 46.558594 L 43.585938 43.328125 L 46.558594 43.328125 C 46.953125 43.328125 47.269531 43.011719 47.269531 42.617188 L 47.269531 40.285156 C 47.269531 39.890625 46.953125 39.574219 46.558594 39.574219 Z M 37.566406 41.90625 L 37.566406 40.996094 L 39.828125 40.996094 L 39.828125 41.90625 Z M 42.160156 45.847656 L 41.25 45.847656 L 41.25 39.09375 L 42.160156 39.09375 Z M 45.847656 41.90625 L 43.585938 41.90625 L 43.585938 40.996094 L 45.847656 40.996094 Z M 45.847656 41.90625 " fill-opacity="1" fill-rule="nonzero"/></g></svg>