<svg xmlns="http://www.w3.org/2000/svg" xmlns:xlink="http://www.w3.org/1999/xlink" width="66" zoomAndPan="magnify" viewBox="0 0 49.5 49.499998" height="66" preserveAspectRatio="xMidYMid meet" version="1.0"><defs><clipPath id="ae9cc2662e"><path d="M 3.054688 2.015625 L 46 2.015625 L 46 47 L 3.054688 47 Z M 3.054688 2.015625 " clip-rule="nonzero"/></clipPath></defs><g clip-path="url(#ae9cc2662e)"><path fill="#bbab99" d="M 45.105469 44.824219 C 41.644531 44.050781 38.167969 43.46875 34.691406 43.082031 L 34.691406 38.652344 C 39.355469 38.320312 43.210938 35.886719 44.464844 32.382812 C 45.382812 29.832031 44.714844 27.164062 42.683594 25.085938 C 43.222656 24.210938 43.511719 23.183594 43.511719 22.105469 C 43.511719 19.308594 41.535156 17.007812 39.023438 16.761719 C 38.914062 13.609375 36.523438 11.082031 33.605469 11.082031 C 30.683594 11.082031 28.296875 13.609375 28.1875 16.761719 C 27.632812 16.816406 27.105469 16.96875 26.621094 17.207031 L 25.949219 16.339844 C 26.625 16.152344 27.191406 15.683594 27.507812 15.035156 C 27.933594 14.171875 27.832031 13.164062 27.242188 12.402344 L 19.523438 2.449219 C 19.320312 2.183594 19 2.027344 18.664062 2.027344 C 18.328125 2.027344 18.011719 2.183594 17.804688 2.449219 L 10.089844 12.40625 C 9.503906 13.164062 9.402344 14.171875 9.820312 15.035156 C 10.144531 15.6875 10.710938 16.152344 11.382812 16.339844 L 7.214844 21.714844 C 6.492188 22.648438 6.371094 23.835938 6.886719 24.902344 C 7.328125 25.800781 8.164062 26.410156 9.128906 26.558594 L 4.902344 31.53125 C 4.050781 32.535156 3.90625 33.871094 4.523438 35.023438 C 5.125 36.136719 6.277344 36.800781 7.601562 36.800781 L 15.765625 36.800781 L 15.765625 42.925781 C 11.800781 43.304688 7.835938 43.9375 3.90625 44.824219 C 3.324219 44.957031 2.953125 45.539062 3.085938 46.125 C 3.203125 46.632812 3.648438 46.972656 4.148438 46.972656 C 4.226562 46.972656 4.308594 46.964844 4.386719 46.949219 C 17.6875 43.941406 31.226562 43.941406 44.628906 46.949219 C 45.214844 47.078125 45.796875 46.710938 45.925781 46.125 C 46.058594 45.539062 45.691406 44.957031 45.105469 44.824219 Z M 28.632812 18.914062 C 28.800781 18.914062 28.957031 18.929688 29.121094 18.964844 C 29.472656 19.039062 29.839844 18.933594 30.097656 18.6875 C 30.355469 18.4375 30.476562 18.078125 30.417969 17.722656 C 30.375 17.46875 30.355469 17.230469 30.355469 16.992188 C 30.355469 14.933594 31.8125 13.257812 33.605469 13.257812 C 35.394531 13.257812 36.851562 14.933594 36.851562 16.992188 C 36.851562 17.238281 36.832031 17.484375 36.792969 17.714844 C 36.730469 18.070312 36.847656 18.433594 37.109375 18.683594 C 37.367188 18.933594 37.734375 19.039062 38.089844 18.964844 C 38.25 18.929688 38.414062 18.914062 38.578125 18.914062 C 40.101562 18.914062 41.339844 20.34375 41.339844 22.105469 C 41.339844 22.996094 41.007812 23.859375 40.429688 24.464844 C 40.222656 24.683594 40.113281 24.980469 40.132812 25.28125 C 40.152344 25.582031 40.292969 25.863281 40.527344 26.054688 C 42.46875 27.652344 43.140625 29.640625 42.417969 31.648438 C 41.617188 33.886719 38.941406 36.140625 34.691406 36.472656 L 34.691406 26.523438 L 38.167969 23.238281 C 38.601562 22.824219 38.621094 22.136719 38.210938 21.699219 C 37.796875 21.265625 37.109375 21.246094 36.671875 21.65625 L 34.691406 23.53125 L 34.691406 18.71875 C 34.691406 18.117188 34.207031 17.628906 33.605469 17.628906 C 33.003906 17.628906 32.515625 18.117188 32.515625 18.71875 L 32.515625 29.089844 L 30.539062 27.222656 C 30.105469 26.808594 29.414062 26.828125 29.003906 27.265625 C 28.589844 27.699219 28.609375 28.390625 29.046875 28.800781 L 32.515625 32.082031 L 32.515625 36.472656 C 28.269531 36.140625 25.59375 33.886719 24.792969 31.648438 C 24.070312 29.640625 24.742188 27.652344 26.683594 26.054688 C 26.914062 25.863281 27.058594 25.582031 27.078125 25.28125 C 27.09375 24.980469 26.988281 24.683594 26.78125 24.464844 C 26.203125 23.859375 25.875 23 25.875 22.105469 C 25.875 20.34375 27.113281 18.914062 28.632812 18.914062 Z M 6.4375 33.992188 C 6.191406 33.53125 6.371094 33.164062 6.5625 32.9375 L 12.277344 26.214844 C 12.554688 25.890625 12.617188 25.4375 12.4375 25.054688 C 12.257812 24.667969 11.875 24.421875 11.449219 24.421875 L 9.605469 24.421875 C 9.265625 24.421875 8.992188 24.253906 8.84375 23.949219 C 8.691406 23.636719 8.722656 23.320312 8.933594 23.050781 L 14.390625 16.011719 C 14.644531 15.683594 14.691406 15.238281 14.507812 14.867188 C 14.324219 14.496094 13.945312 14.257812 13.53125 14.257812 L 12.066406 14.257812 C 11.929688 14.257812 11.835938 14.199219 11.773438 14.078125 C 11.714844 13.953125 11.726562 13.84375 11.808594 13.734375 L 18.664062 4.890625 L 25.523438 13.738281 C 25.605469 13.84375 25.617188 13.953125 25.554688 14.078125 C 25.496094 14.199219 25.402344 14.257812 25.265625 14.257812 L 23.804688 14.257812 C 23.386719 14.257812 23.007812 14.496094 22.828125 14.867188 C 22.644531 15.238281 22.6875 15.683594 22.945312 16.011719 L 24.925781 18.570312 C 24.164062 19.515625 23.699219 20.75 23.699219 22.105469 C 23.699219 23.183594 23.988281 24.210938 24.527344 25.085938 C 22.496094 27.164062 21.828125 29.832031 22.746094 32.382812 C 23.035156 33.191406 23.464844 33.941406 24.011719 34.625 L 7.601562 34.625 C 7.078125 34.625 6.652344 34.394531 6.4375 33.992188 Z M 17.941406 36.800781 L 19.390625 36.800781 L 19.390625 42.652344 C 18.90625 42.679688 18.425781 42.707031 17.941406 42.742188 Z M 24.46875 42.507812 C 23.503906 42.507812 22.535156 42.523438 21.5625 42.554688 L 21.5625 36.800781 L 26.503906 36.800781 C 28.183594 37.835938 30.253906 38.492188 32.515625 38.652344 L 32.515625 42.867188 C 29.839844 42.628906 27.164062 42.507812 24.507812 42.507812 C 24.492188 42.507812 24.480469 42.507812 24.46875 42.507812 Z M 35.246094 9.710938 C 34.898438 9.222656 35.011719 8.542969 35.5 8.195312 C 36.039062 7.808594 36.679688 7.601562 37.34375 7.601562 C 37.929688 7.601562 38.492188 7.761719 38.976562 8.054688 C 39.464844 7.761719 40.027344 7.601562 40.613281 7.601562 C 41.28125 7.601562 41.917969 7.808594 42.457031 8.195312 C 42.949219 8.542969 43.0625 9.222656 42.710938 9.710938 C 42.363281 10.199219 41.683594 10.3125 41.195312 9.964844 C 41.023438 9.839844 40.824219 9.777344 40.613281 9.777344 C 40.304688 9.777344 40.019531 9.914062 39.828125 10.15625 C 39.621094 10.414062 39.308594 10.566406 38.976562 10.566406 C 38.648438 10.566406 38.332031 10.414062 38.128906 10.15625 C 37.9375 9.914062 37.648438 9.777344 37.34375 9.777344 C 37.132812 9.777344 36.933594 9.839844 36.765625 9.964844 C 36.277344 10.3125 35.597656 10.199219 35.246094 9.710938 Z M 27.011719 4.136719 C 26.664062 3.648438 26.777344 2.96875 27.265625 2.621094 C 27.808594 2.230469 28.445312 2.027344 29.109375 2.027344 C 29.695312 2.027344 30.257812 2.183594 30.742188 2.476562 C 31.230469 2.183594 31.792969 2.027344 32.378906 2.027344 C 33.042969 2.027344 33.679688 2.230469 34.222656 2.621094 C 34.710938 2.96875 34.824219 3.648438 34.476562 4.136719 C 34.128906 4.625 33.449219 4.738281 32.960938 4.390625 C 32.839844 4.304688 32.640625 4.203125 32.378906 4.203125 C 32.070312 4.203125 31.785156 4.339844 31.59375 4.582031 C 31.390625 4.839844 31.074219 4.992188 30.742188 4.992188 C 30.410156 4.992188 30.097656 4.839844 29.890625 4.582031 C 29.699219 4.339844 29.414062 4.203125 29.109375 4.203125 C 28.847656 4.203125 28.648438 4.304688 28.527344 4.390625 C 28.039062 4.738281 27.363281 4.625 27.011719 4.136719 Z M 27.011719 4.136719 " fill-opacity="1" fill-rule="nonzero"/></g></svg>