<svg xmlns="http://www.w3.org/2000/svg" xmlns:xlink="http://www.w3.org/1999/xlink" width="66" zoomAndPan="magnify" viewBox="0 0 49.5 49.499998" height="66" preserveAspectRatio="xMidYMid meet" version="1.0"><defs><clipPath id="ea49e351c7"><path d="M 1.746094 3.441406 L 47.039062 3.441406 L 47.039062 45.765625 L 1.746094 45.765625 Z M 1.746094 3.441406 " clip-rule="nonzero"/></clipPath></defs><g clip-path="url(#ea49e351c7)"><path fill="#bbab99" d="M 27.117188 18.867188 C 29.242188 18.867188 31.078125 17.613281 31.925781 15.808594 C 32.773438 17.613281 34.609375 18.867188 36.734375 18.867188 L 41.957031 18.867188 C 44.882812 18.867188 47.265625 16.488281 47.265625 13.558594 L 47.265625 12.667969 C 47.265625 12.664062 47.261719 12.664062 47.261719 12.660156 C 47.261719 12.640625 47.261719 12.621094 47.257812 12.597656 C 47.253906 12.585938 47.253906 12.574219 47.253906 12.5625 C 47.25 12.546875 47.242188 12.53125 47.238281 12.515625 C 47.234375 12.5 47.230469 12.484375 47.222656 12.46875 C 47.21875 12.457031 47.210938 12.445312 47.203125 12.433594 C 47.195312 12.417969 47.1875 12.398438 47.175781 12.382812 C 47.167969 12.371094 47.15625 12.359375 47.148438 12.347656 C 47.136719 12.335938 47.128906 12.324219 47.117188 12.3125 C 47.105469 12.300781 47.09375 12.292969 47.082031 12.28125 C 47.066406 12.269531 47.054688 12.257812 47.039062 12.25 C 47.027344 12.242188 47.015625 12.238281 47.003906 12.230469 C 46.988281 12.21875 46.96875 12.210938 46.953125 12.203125 C 46.949219 12.203125 46.949219 12.199219 46.945312 12.199219 L 24.6875 3.5 C 24.570312 3.457031 24.441406 3.457031 24.324219 3.5 L 2.066406 12.199219 C 2.066406 12.199219 2.0625 12.203125 2.0625 12.203125 C 2.042969 12.210938 2.023438 12.21875 2.007812 12.230469 C 1.996094 12.238281 1.984375 12.242188 1.972656 12.25 C 1.957031 12.257812 1.945312 12.269531 1.933594 12.28125 C 1.921875 12.292969 1.90625 12.300781 1.898438 12.3125 C 1.882812 12.324219 1.875 12.335938 1.863281 12.347656 C 1.855469 12.359375 1.84375 12.371094 1.835938 12.382812 C 1.824219 12.398438 1.816406 12.417969 1.808594 12.433594 C 1.800781 12.445312 1.792969 12.457031 1.789062 12.46875 C 1.78125 12.484375 1.777344 12.5 1.773438 12.515625 C 1.769531 12.53125 1.761719 12.546875 1.757812 12.5625 C 1.757812 12.574219 1.757812 12.585938 1.753906 12.597656 C 1.75 12.621094 1.75 12.640625 1.75 12.660156 C 1.75 12.664062 1.746094 12.664062 1.746094 12.667969 L 1.746094 13.558594 C 1.746094 16.488281 4.128906 18.867188 7.058594 18.867188 L 12.277344 18.867188 C 14.402344 18.867188 16.238281 17.613281 17.085938 15.808594 C 17.933594 17.613281 19.769531 18.867188 21.894531 18.867188 L 22.359375 18.867188 L 22.359375 28.886719 L 13.574219 28.886719 C 12.753906 28.886719 12.089844 29.550781 12.089844 30.367188 L 12.089844 31.179688 C 12.089844 32 12.753906 32.664062 13.574219 32.664062 L 22.359375 32.664062 L 22.359375 40.933594 C 22.359375 42.582031 19.144531 44.058594 17.808594 44.527344 L 15.636719 44.527344 L 12.109375 40.898438 L 15.636719 37.269531 L 17.179688 37.269531 C 17.457031 37.269531 17.679688 37.042969 17.679688 36.769531 C 17.679688 36.492188 17.457031 36.265625 17.179688 36.265625 L 7.757812 36.265625 L 4.5 25.152344 C 4.425781 24.886719 4.144531 24.734375 3.878906 24.8125 C 3.613281 24.890625 3.460938 25.167969 3.542969 25.433594 L 6.902344 36.910156 C 6.933594 37.019531 7.003906 37.109375 7.09375 37.175781 L 10.710938 40.898438 L 7.183594 44.527344 L 2.25 44.527344 C 1.972656 44.527344 1.746094 44.75 1.746094 45.027344 C 1.746094 45.304688 1.972656 45.527344 2.25 45.527344 L 46.761719 45.527344 C 47.039062 45.527344 47.265625 45.304688 47.265625 45.027344 C 47.265625 44.753906 47.039062 44.527344 46.761719 44.527344 L 41.828125 44.527344 L 38.300781 40.898438 L 41.917969 37.175781 C 42.007812 37.109375 42.078125 37.019531 42.109375 36.910156 L 45.472656 25.433594 C 45.550781 25.167969 45.398438 24.890625 45.132812 24.8125 C 44.867188 24.734375 44.589844 24.886719 44.511719 25.152344 L 41.253906 36.265625 L 31.832031 36.265625 C 31.558594 36.265625 31.332031 36.492188 31.332031 36.769531 C 31.332031 37.046875 31.558594 37.269531 31.832031 37.269531 L 33.375 37.269531 L 36.902344 40.898438 L 33.375 44.527344 L 31.203125 44.527344 C 29.867188 44.058594 26.652344 42.582031 26.652344 40.933594 L 26.652344 32.664062 L 35.4375 32.664062 C 36.257812 32.664062 36.921875 32 36.921875 31.179688 L 36.921875 30.367188 C 36.921875 29.550781 36.257812 28.886719 35.4375 28.886719 L 26.652344 28.886719 L 26.652344 18.867188 Z M 8.582031 37.269531 L 14.242188 37.269531 L 11.410156 40.179688 Z M 8.582031 44.527344 L 11.410156 41.617188 L 14.242188 44.527344 Z M 34.773438 37.269531 L 40.429688 37.269531 L 37.601562 40.179688 Z M 37.601562 41.617188 L 40.429688 44.527344 L 34.773438 44.527344 Z M 25.652344 18.867188 L 25.652344 28.886719 L 23.359375 28.886719 L 23.359375 18.867188 Z M 28.738281 44.527344 L 20.273438 44.527344 C 21.734375 43.738281 23.359375 42.507812 23.359375 40.933594 L 23.359375 32.664062 L 25.652344 32.664062 L 25.652344 40.933594 C 25.652344 42.507812 27.277344 43.738281 28.738281 44.527344 Z M 35.4375 29.886719 C 35.703125 29.886719 35.921875 30.101562 35.921875 30.367188 L 35.921875 31.179688 C 35.921875 31.445312 35.703125 31.664062 35.4375 31.664062 L 13.574219 31.664062 C 13.308594 31.664062 13.09375 31.445312 13.09375 31.179688 L 13.09375 30.367188 C 13.09375 30.101562 13.308594 29.886719 13.574219 29.886719 Z M 35.4375 29.886719 " fill-opacity="1" fill-rule="nonzero"/></g></svg>