<svg xmlns="http://www.w3.org/2000/svg" xmlns:xlink="http://www.w3.org/1999/xlink" width="66" zoomAndPan="magnify" viewBox="0 0 49.5 49.499998" height="66" preserveAspectRatio="xMidYMid meet" version="1.0"><defs><clipPath id="645f3e577f"><path d="M 25 7.757812 L 41 7.757812 L 41 25 L 25 25 Z M 25 7.757812 " clip-rule="nonzero"/></clipPath><clipPath id="910fc9e3e0"><path d="M 25 26 L 46.761719 26 L 46.761719 41.171875 L 25 41.171875 Z M 25 26 " clip-rule="nonzero"/></clipPath><clipPath id="bfa15f7001"><path d="M 2.214844 27 L 32 27 L 32 41.171875 L 2.214844 41.171875 Z M 2.214844 27 " clip-rule="nonzero"/></clipPath></defs><g clip-path="url(#645f3e577f)"><path fill="#bbab99" d="M 30.699219 7.84375 C 28.792969 8.121094 26.882812 9.171875 25.6875 10.621094 L 25.335938 11.035156 L 25.765625 11.90625 C 27.109375 14.625 27.125 17.78125 25.796875 20.574219 L 25.523438 21.136719 L 25.75 21.421875 C 26 21.738281 26.746094 22.359375 27.402344 22.796875 C 28.726562 23.679688 30.253906 24.132812 31.933594 24.132812 C 34.136719 24.132812 35.984375 23.382812 37.597656 21.824219 C 38.351562 21.101562 38.855469 20.398438 39.316406 19.441406 C 40.207031 17.601562 40.324219 15.226562 39.632812 13.25 C 39.359375 12.476562 39.222656 12.199219 38.730469 11.445312 C 37.023438 8.808594 33.851562 7.382812 30.699219 7.84375 Z M 30.699219 7.84375 " fill-opacity="1" fill-rule="nonzero"/></g><path fill="#bbab99" d="M 15.855469 8.105469 C 12.625 8.609375 9.992188 10.976562 9.125 14.15625 C 8.941406 14.828125 8.925781 15 8.917969 16.242188 C 8.917969 17.484375 8.933594 17.652344 9.117188 18.324219 C 9.933594 21.34375 12.492188 23.738281 15.539062 24.316406 C 16.25 24.449219 17.742188 24.46875 18.398438 24.351562 C 19.949219 24.070312 21.433594 23.308594 22.601562 22.203125 C 24.925781 20.011719 25.757812 16.699219 24.757812 13.644531 C 24.042969 11.453125 22.359375 9.605469 20.261719 8.699219 C 19.195312 8.238281 18.589844 8.113281 17.242188 8.089844 C 16.601562 8.078125 15.980469 8.082031 15.855469 8.105469 Z M 15.855469 8.105469 " fill-opacity="1" fill-rule="nonzero"/><g clip-path="url(#910fc9e3e0)"><path fill="#bbab99" d="M 30.546875 26.808594 C 29.515625 26.957031 28.75 27.109375 28.097656 27.292969 C 27.257812 27.527344 25.832031 28.066406 25.839844 28.140625 C 25.839844 28.167969 26.183594 28.453125 26.605469 28.773438 C 29.582031 31.042969 31.773438 34.46875 32.585938 38.109375 C 32.804688 39.101562 32.996094 40.359375 32.996094 40.828125 L 32.996094 41.164062 L 39.878906 41.148438 L 46.773438 41.128906 L 46.75 40.46875 C 46.675781 38.460938 45.960938 36.054688 44.863281 34.148438 C 43.328125 31.488281 41.179688 29.492188 38.460938 28.199219 C 37.117188 27.554688 36.085938 27.21875 34.601562 26.941406 C 34.003906 26.824219 31.078125 26.734375 30.546875 26.808594 Z M 30.546875 26.808594 " fill-opacity="1" fill-rule="nonzero"/></g><g clip-path="url(#bfa15f7001)"><path fill="#bbab99" d="M 15.671875 27.109375 C 12.128906 27.453125 9.050781 28.871094 6.617188 31.289062 C 4.007812 33.878906 2.539062 37.050781 2.269531 40.667969 L 2.222656 41.238281 L 31.386719 41.238281 L 31.34375 40.667969 C 31.074219 37.054688 29.542969 33.753906 26.992188 31.246094 C 26.144531 30.417969 25.699219 30.054688 24.78125 29.441406 C 22.9375 28.207031 20.554688 27.363281 18.238281 27.132812 C 17.535156 27.066406 16.257812 27.050781 15.671875 27.109375 Z M 15.671875 27.109375 " fill-opacity="1" fill-rule="nonzero"/></g></svg>