<svg xmlns="http://www.w3.org/2000/svg" xmlns:xlink="http://www.w3.org/1999/xlink" width="66" zoomAndPan="magnify" viewBox="0 0 49.5 49.499998" height="66" preserveAspectRatio="xMidYMid meet" version="1.0"><defs><clipPath id="60c77cafa7"><path d="M 2.128906 3.878906 L 46.679688 3.878906 L 46.679688 45.460938 L 2.128906 45.460938 Z M 2.128906 3.878906 " clip-rule="nonzero"/></clipPath></defs><g clip-path="url(#60c77cafa7)"><path fill="#bbab99" d="M 29.917969 22.390625 C 30.585938 22.390625 31.167969 22.253906 31.691406 22.042969 C 32.191406 21.835938 32.632812 21.5625 33.027344 21.269531 C 33.367188 21.019531 33.714844 20.804688 34.09375 20.648438 C 34.457031 20.503906 34.859375 20.417969 35.335938 20.417969 C 35.808594 20.417969 36.222656 20.515625 36.59375 20.667969 C 36.980469 20.820312 37.328125 21.039062 37.640625 21.273438 C 38.058594 21.585938 38.503906 21.859375 39.003906 22.0625 C 39.519531 22.265625 40.089844 22.394531 40.753906 22.394531 C 41.421875 22.394531 42.003906 22.257812 42.527344 22.046875 C 43.027344 21.839844 43.472656 21.5625 43.867188 21.273438 C 44.203125 21.023438 44.550781 20.804688 44.929688 20.652344 C 45.292969 20.507812 45.695312 20.417969 46.171875 20.417969 C 46.550781 20.417969 46.859375 20.113281 46.859375 19.734375 C 46.859375 19.355469 46.550781 19.046875 46.171875 19.046875 C 45.519531 19.046875 44.945312 19.167969 44.421875 19.371094 C 43.921875 19.570312 43.476562 19.855469 43.058594 20.160156 C 42.746094 20.394531 42.398438 20.613281 42.011719 20.765625 C 41.640625 20.917969 41.230469 21.015625 40.753906 21.015625 C 40.277344 21.015625 39.875 20.925781 39.511719 20.78125 C 39.132812 20.628906 38.785156 20.410156 38.449219 20.160156 C 38.050781 19.871094 37.617188 19.589844 37.109375 19.386719 C 36.585938 19.179688 35.996094 19.039062 35.335938 19.039062 C 34.675781 19.039062 34.101562 19.160156 33.585938 19.371094 C 33.085938 19.574219 32.640625 19.855469 32.222656 20.164062 C 31.90625 20.394531 31.5625 20.613281 31.175781 20.769531 C 30.804688 20.921875 30.394531 21.019531 29.917969 21.019531 C 29.683594 21.019531 29.480469 21.003906 29.296875 20.96875 C 29.265625 20.964844 29.238281 20.953125 29.207031 20.945312 L 29.207031 12.851562 L 37.785156 12.851562 C 37.789062 12.851562 37.789062 12.851562 37.789062 12.851562 C 37.792969 12.851562 37.792969 12.851562 37.796875 12.851562 L 46.179688 12.851562 C 46.558594 12.851562 46.867188 12.546875 46.867188 12.167969 C 46.867188 11.789062 46.558594 11.480469 46.179688 11.480469 L 38.472656 11.480469 L 38.472656 11.222656 C 38.472656 10.238281 38.277344 9.296875 37.917969 8.433594 C 37.542969 7.546875 36.996094 6.738281 36.328125 6.0625 L 36.304688 6.039062 C 35.625 5.359375 34.828125 4.820312 33.933594 4.449219 C 33.070312 4.097656 32.125 3.894531 31.140625 3.894531 C 30.15625 3.894531 29.214844 4.089844 28.351562 4.449219 C 27.457031 4.828125 26.652344 5.371094 25.972656 6.046875 L 25.964844 6.054688 C 25.355469 6.664062 24.859375 7.378906 24.496094 8.167969 C 24.128906 7.375 23.632812 6.65625 23.023438 6.046875 C 21.691406 4.714844 19.859375 3.894531 17.84375 3.894531 C 15.832031 3.894531 14 4.714844 12.667969 6.046875 C 11.335938 7.378906 10.515625 9.207031 10.515625 11.222656 L 10.515625 11.484375 L 2.816406 11.484375 C 2.4375 11.480469 2.128906 11.789062 2.128906 12.167969 C 2.128906 12.546875 2.4375 12.851562 2.816406 12.851562 L 10.515625 12.851562 L 10.515625 20.175781 C 10.210938 20.402344 9.871094 20.609375 9.492188 20.761719 C 9.121094 20.917969 8.710938 21.011719 8.234375 21.011719 C 7.757812 21.011719 7.355469 20.925781 6.992188 20.78125 C 6.613281 20.625 6.265625 20.410156 5.925781 20.160156 C 5.53125 19.867188 5.097656 19.585938 4.589844 19.386719 C 4.0625 19.175781 3.476562 19.039062 2.8125 19.039062 C 2.433594 19.039062 2.128906 19.34375 2.128906 19.722656 C 2.128906 20.101562 2.433594 20.410156 2.8125 20.410156 C 3.289062 20.410156 3.703125 20.507812 4.074219 20.660156 C 4.460938 20.8125 4.804688 21.03125 5.121094 21.265625 C 5.539062 21.578125 5.984375 21.855469 6.484375 22.054688 C 7 22.257812 7.570312 22.386719 8.234375 22.386719 C 8.902344 22.386719 9.484375 22.25 10.007812 22.039062 C 10.1875 21.96875 10.351562 21.878906 10.515625 21.789062 L 10.515625 27.753906 C 10.207031 27.972656 9.871094 28.1875 9.496094 28.339844 C 9.125 28.492188 8.714844 28.589844 8.238281 28.589844 C 7.765625 28.589844 7.359375 28.5 7 28.355469 C 6.617188 28.203125 6.273438 27.984375 5.933594 27.734375 C 5.539062 27.441406 5.101562 27.160156 4.59375 26.960938 C 4.070312 26.75 3.480469 26.613281 2.820312 26.613281 C 2.441406 26.613281 2.136719 26.917969 2.136719 27.300781 C 2.136719 27.679688 2.441406 27.984375 2.820312 27.984375 C 3.296875 27.984375 3.707031 28.082031 4.078125 28.234375 C 4.464844 28.386719 4.8125 28.605469 5.128906 28.839844 C 5.546875 29.15625 5.988281 29.429688 6.488281 29.632812 C 7.003906 29.832031 7.578125 29.960938 8.238281 29.960938 C 8.910156 29.960938 9.488281 29.824219 10.011719 29.613281 C 10.511719 29.40625 10.957031 29.132812 11.351562 28.839844 C 11.691406 28.589844 12.039062 28.375 12.417969 28.21875 C 12.777344 28.074219 13.183594 27.988281 13.660156 27.988281 C 14.132812 27.988281 14.546875 28.085938 14.917969 28.238281 C 15.304688 28.390625 15.648438 28.609375 15.964844 28.84375 C 16.382812 29.15625 16.828125 29.429688 17.328125 29.632812 C 17.84375 29.835938 18.414062 29.964844 19.078125 29.964844 C 19.746094 29.964844 20.328125 29.828125 20.851562 29.617188 C 21.351562 29.410156 21.792969 29.132812 22.1875 28.84375 C 22.527344 28.59375 22.875 28.375 23.253906 28.222656 C 23.617188 28.078125 24.019531 27.988281 24.496094 27.988281 C 24.972656 27.988281 25.382812 28.085938 25.753906 28.238281 C 26.140625 28.394531 26.488281 28.609375 26.800781 28.84375 C 27.222656 29.160156 27.664062 29.433594 28.164062 29.636719 C 28.679688 29.835938 29.253906 29.964844 29.914062 29.964844 C 30.582031 29.964844 31.164062 29.828125 31.6875 29.621094 C 32.1875 29.410156 32.632812 29.136719 33.027344 28.847656 C 33.367188 28.59375 33.710938 28.378906 34.089844 28.226562 C 34.453125 28.078125 34.855469 27.992188 35.332031 27.992188 C 35.808594 27.992188 36.21875 28.089844 36.589844 28.242188 C 36.976562 28.394531 37.324219 28.613281 37.640625 28.847656 C 38.058594 29.160156 38.5 29.433594 39 29.636719 C 39.515625 29.839844 40.089844 29.96875 40.75 29.96875 C 41.421875 29.96875 42 29.832031 42.523438 29.621094 C 43.023438 29.414062 43.46875 29.136719 43.863281 28.847656 C 44.203125 28.597656 44.550781 28.378906 44.929688 28.226562 C 45.289062 28.082031 45.695312 27.992188 46.167969 27.992188 C 46.550781 27.992188 46.855469 27.6875 46.855469 27.308594 C 46.855469 26.929688 46.550781 26.621094 46.167969 26.621094 C 45.515625 26.621094 44.945312 26.742188 44.417969 26.953125 C 43.917969 27.15625 43.476562 27.4375 43.058594 27.746094 C 42.742188 27.96875 42.394531 28.195312 42.007812 28.347656 C 41.636719 28.503906 41.226562 28.601562 40.75 28.601562 C 40.277344 28.601562 39.871094 28.511719 39.511719 28.367188 C 39.128906 28.210938 38.785156 27.996094 38.445312 27.746094 C 38.050781 27.453125 37.613281 27.171875 37.105469 26.972656 C 36.582031 26.761719 35.992188 26.625 35.332031 26.625 C 34.671875 26.625 34.097656 26.746094 33.582031 26.957031 C 33.082031 27.15625 32.636719 27.441406 32.21875 27.746094 C 31.90625 27.972656 31.558594 28.199219 31.171875 28.351562 C 30.800781 28.503906 30.390625 28.601562 29.914062 28.601562 C 29.65625 28.601562 29.425781 28.574219 29.203125 28.527344 L 29.203125 22.351562 C 29.4375 22.371094 29.671875 22.390625 29.917969 22.390625 Z M 33.078125 11.480469 L 29.207031 11.480469 L 29.207031 11.222656 C 29.207031 10.957031 29.253906 10.707031 29.351562 10.480469 C 29.449219 10.246094 29.59375 10.03125 29.769531 9.851562 C 29.949219 9.675781 30.164062 9.53125 30.398438 9.433594 C 30.625 9.335938 30.875 9.289062 31.140625 9.289062 C 31.40625 9.289062 31.65625 9.335938 31.882812 9.433594 C 32.117188 9.53125 32.335938 9.675781 32.511719 9.851562 C 32.6875 10.03125 32.832031 10.238281 32.929688 10.480469 C 33.027344 10.707031 33.074219 10.957031 33.074219 11.222656 L 33.074219 11.480469 Z M 15.910156 16.875 L 23.8125 16.875 L 23.8125 19.523438 L 15.910156 19.523438 Z M 23.8125 15.503906 L 15.910156 15.503906 L 15.910156 12.851562 L 23.8125 12.851562 Z M 19.78125 11.480469 L 15.910156 11.480469 L 15.910156 11.222656 C 15.910156 10.691406 16.128906 10.207031 16.472656 9.851562 C 16.820312 9.503906 17.304688 9.289062 17.84375 9.289062 C 18.378906 9.289062 18.859375 9.503906 19.214844 9.851562 C 19.5625 10.199219 19.78125 10.683594 19.78125 11.222656 Z M 15.910156 20.890625 L 23.8125 20.890625 L 23.8125 23.542969 L 15.910156 23.542969 Z M 11.910156 26.941406 C 11.902344 26.945312 11.894531 26.949219 11.886719 26.953125 L 11.886719 11.222656 C 11.886719 9.585938 12.554688 8.097656 13.636719 7.015625 C 14.714844 5.933594 16.207031 5.265625 17.84375 5.265625 C 19.480469 5.265625 20.972656 5.933594 22.054688 7.015625 C 23.132812 8.097656 23.804688 9.589844 23.804688 11.222656 L 23.804688 11.484375 L 21.152344 11.484375 L 21.152344 11.222656 C 21.152344 10.3125 20.78125 9.484375 20.183594 8.886719 C 19.585938 8.289062 18.757812 7.917969 17.84375 7.917969 C 16.933594 7.917969 16.105469 8.289062 15.507812 8.886719 C 14.910156 9.484375 14.539062 10.3125 14.539062 11.222656 L 14.539062 26.695312 C 14.261719 26.640625 13.96875 26.609375 13.660156 26.609375 C 13 26.609375 12.425781 26.730469 11.910156 26.941406 Z M 22.746094 26.941406 C 22.246094 27.140625 21.804688 27.425781 21.386719 27.730469 C 21.070312 27.957031 20.722656 28.183594 20.335938 28.335938 C 19.964844 28.488281 19.554688 28.585938 19.078125 28.585938 C 18.605469 28.585938 18.199219 28.496094 17.835938 28.351562 C 17.457031 28.199219 17.113281 27.980469 16.773438 27.730469 C 16.511719 27.539062 16.21875 27.359375 15.910156 27.195312 L 15.910156 24.917969 L 23.8125 24.917969 L 23.8125 26.675781 C 23.433594 26.726562 23.074219 26.808594 22.746094 26.941406 Z M 26.269531 26.957031 C 25.9375 26.824219 25.578125 26.722656 25.191406 26.664062 L 25.191406 11.222656 C 25.191406 10.425781 25.351562 9.660156 25.644531 8.957031 C 25.941406 8.226562 26.382812 7.570312 26.933594 7.023438 L 26.949219 7.015625 C 27.496094 6.46875 28.15625 6.015625 28.882812 5.71875 C 29.578125 5.425781 30.34375 5.265625 31.148438 5.265625 C 31.949219 5.265625 32.714844 5.425781 33.414062 5.71875 C 34.140625 6.023438 34.800781 6.46875 35.351562 7.015625 L 35.359375 7.023438 C 35.90625 7.578125 36.351562 8.234375 36.648438 8.957031 C 36.941406 9.652344 37.101562 10.417969 37.101562 11.222656 L 37.101562 11.484375 L 34.449219 11.484375 L 34.449219 11.222656 C 34.449219 10.78125 34.359375 10.351562 34.199219 9.957031 C 34.027344 9.554688 33.785156 9.191406 33.480469 8.886719 C 33.179688 8.578125 32.8125 8.335938 32.40625 8.167969 C 32.011719 8.007812 31.585938 7.917969 31.140625 7.917969 C 30.695312 7.917969 30.269531 8.003906 29.875 8.167969 C 29.472656 8.335938 29.109375 8.578125 28.800781 8.886719 C 28.496094 9.183594 28.253906 9.554688 28.085938 9.957031 C 27.921875 10.351562 27.832031 10.78125 27.832031 11.222656 L 27.832031 21.484375 C 27.832031 21.488281 27.832031 21.492188 27.832031 21.496094 L 27.832031 27.878906 C 27.757812 27.828125 27.683594 27.78125 27.609375 27.726562 C 27.214844 27.441406 26.777344 27.15625 26.269531 26.957031 Z M 46.859375 34.859375 C 46.859375 35.238281 46.550781 35.542969 46.171875 35.542969 C 45.695312 35.542969 45.292969 35.632812 44.929688 35.777344 C 44.550781 35.929688 44.203125 36.148438 43.867188 36.398438 C 43.472656 36.6875 43.027344 36.964844 42.527344 37.171875 C 42.003906 37.382812 41.421875 37.519531 40.753906 37.519531 C 40.09375 37.519531 39.519531 37.390625 39.003906 37.1875 C 38.503906 36.988281 38.058594 36.710938 37.640625 36.398438 C 37.328125 36.164062 36.980469 35.945312 36.59375 35.792969 C 36.222656 35.640625 35.8125 35.550781 35.335938 35.550781 C 34.859375 35.550781 34.457031 35.640625 34.09375 35.785156 C 33.714844 35.9375 33.367188 36.15625 33.027344 36.40625 C 32.632812 36.695312 32.191406 36.96875 31.691406 37.179688 C 31.164062 37.386719 30.585938 37.527344 29.917969 37.527344 C 29.253906 37.527344 28.683594 37.398438 28.167969 37.195312 C 27.667969 36.992188 27.222656 36.71875 26.804688 36.402344 C 26.488281 36.171875 26.144531 35.953125 25.757812 35.796875 C 25.382812 35.644531 24.972656 35.558594 24.496094 35.558594 C 24.023438 35.558594 23.617188 35.644531 23.257812 35.789062 C 22.878906 35.945312 22.53125 36.164062 22.191406 36.410156 C 21.796875 36.703125 21.351562 36.976562 20.851562 37.1875 C 20.328125 37.394531 19.746094 37.53125 19.078125 37.53125 C 18.417969 37.53125 17.84375 37.402344 17.328125 37.203125 C 16.828125 37 16.386719 36.726562 15.964844 36.410156 C 15.652344 36.175781 15.304688 35.957031 14.917969 35.804688 C 14.546875 35.652344 14.136719 35.5625 13.660156 35.5625 C 13.183594 35.5625 12.78125 35.652344 12.417969 35.796875 C 12.039062 35.949219 11.691406 36.167969 11.355469 36.417969 C 10.960938 36.710938 10.515625 36.984375 10.015625 37.191406 C 9.492188 37.402344 8.910156 37.539062 8.242188 37.539062 C 7.582031 37.539062 7.007812 37.410156 6.492188 37.207031 C 5.992188 37.007812 5.546875 36.734375 5.128906 36.417969 C 4.816406 36.183594 4.46875 35.964844 4.082031 35.8125 C 3.710938 35.660156 3.300781 35.570312 2.824219 35.570312 C 2.445312 35.570312 2.136719 35.265625 2.136719 34.886719 C 2.136719 34.507812 2.445312 34.199219 2.824219 34.199219 C 3.484375 34.199219 4.074219 34.335938 4.597656 34.546875 C 5.105469 34.746094 5.539062 35.03125 5.9375 35.320312 C 6.273438 35.570312 6.621094 35.789062 7 35.941406 C 7.363281 36.085938 7.765625 36.175781 8.242188 36.175781 C 8.71875 36.175781 9.128906 36.078125 9.5 35.925781 C 9.886719 35.769531 10.234375 35.542969 10.546875 35.320312 C 10.96875 35.011719 11.410156 34.730469 11.910156 34.527344 C 12.425781 34.320312 13 34.195312 13.660156 34.195312 C 14.320312 34.195312 14.910156 34.335938 15.433594 34.542969 C 15.941406 34.746094 16.378906 35.027344 16.773438 35.316406 C 17.113281 35.570312 17.457031 35.785156 17.835938 35.9375 C 18.199219 36.082031 18.605469 36.171875 19.078125 36.171875 C 19.554688 36.171875 19.964844 36.074219 20.335938 35.921875 C 20.722656 35.769531 21.070312 35.542969 21.386719 35.316406 C 21.804688 35.011719 22.246094 34.726562 22.746094 34.527344 C 23.261719 34.316406 23.835938 34.195312 24.496094 34.195312 C 25.160156 34.195312 25.75 34.332031 26.269531 34.542969 C 26.777344 34.742188 27.214844 35.027344 27.609375 35.316406 C 27.949219 35.566406 28.296875 35.78125 28.675781 35.9375 C 29.039062 36.082031 29.441406 36.171875 29.917969 36.171875 C 30.390625 36.171875 30.804688 36.074219 31.175781 35.917969 C 31.5625 35.765625 31.90625 35.539062 32.222656 35.316406 C 32.640625 35.007812 33.085938 34.726562 33.585938 34.523438 C 34.101562 34.316406 34.671875 34.191406 35.335938 34.191406 C 35.996094 34.191406 36.585938 34.332031 37.109375 34.539062 C 37.617188 34.742188 38.050781 35.023438 38.449219 35.3125 C 38.785156 35.5625 39.132812 35.78125 39.511719 35.933594 C 39.875 36.078125 40.277344 36.167969 40.753906 36.167969 C 41.230469 36.167969 41.640625 36.070312 42.011719 35.917969 C 42.398438 35.765625 42.746094 35.539062 43.058594 35.3125 C 43.480469 35.003906 43.921875 34.722656 44.421875 34.523438 C 44.945312 34.28125 45.519531 34.160156 46.171875 34.160156 C 46.550781 34.171875 46.859375 34.480469 46.859375 34.859375 Z M 46.859375 42.421875 C 46.859375 42.800781 46.550781 43.105469 46.171875 43.105469 C 45.695312 43.105469 45.292969 43.195312 44.929688 43.339844 C 44.550781 43.492188 44.203125 43.710938 43.867188 43.960938 C 43.472656 44.25 43.027344 44.527344 42.527344 44.734375 C 42.003906 44.945312 41.421875 45.082031 40.753906 45.082031 C 40.09375 45.082031 39.519531 44.953125 39.003906 44.75 C 38.503906 44.550781 38.058594 44.273438 37.640625 43.960938 C 37.328125 43.726562 36.980469 43.507812 36.59375 43.355469 C 36.222656 43.203125 35.8125 43.113281 35.335938 43.113281 C 34.859375 43.113281 34.457031 43.203125 34.09375 43.347656 C 33.714844 43.5 33.367188 43.71875 33.027344 43.96875 C 32.632812 44.257812 32.191406 44.53125 31.691406 44.742188 C 31.164062 44.949219 30.585938 45.089844 29.917969 45.089844 C 29.253906 45.089844 28.683594 44.960938 28.167969 44.757812 C 27.667969 44.554688 27.222656 44.28125 26.804688 43.964844 C 26.488281 43.734375 26.144531 43.515625 25.757812 43.363281 C 25.382812 43.207031 24.972656 43.121094 24.496094 43.121094 C 24.023438 43.121094 23.617188 43.207031 23.257812 43.351562 C 22.878906 43.507812 22.53125 43.726562 22.191406 43.972656 C 21.796875 44.265625 21.351562 44.539062 20.851562 44.75 C 20.328125 44.957031 19.746094 45.09375 19.078125 45.09375 C 18.417969 45.09375 17.84375 44.964844 17.328125 44.765625 C 16.828125 44.5625 16.386719 44.289062 15.964844 43.972656 C 15.652344 43.738281 15.304688 43.519531 14.917969 43.367188 C 14.546875 43.214844 14.136719 43.125 13.660156 43.125 C 13.183594 43.125 12.78125 43.214844 12.417969 43.359375 C 12.039062 43.511719 11.691406 43.730469 11.355469 43.980469 C 10.960938 44.273438 10.515625 44.546875 10.015625 44.753906 C 9.492188 44.964844 8.910156 45.101562 8.242188 45.101562 C 7.582031 45.101562 7.007812 44.972656 6.492188 44.769531 C 5.992188 44.570312 5.546875 44.296875 5.128906 43.980469 C 4.816406 43.746094 4.46875 43.527344 4.082031 43.375 C 3.710938 43.222656 3.300781 43.132812 2.824219 43.132812 C 2.445312 43.132812 2.136719 42.828125 2.136719 42.449219 C 2.136719 42.070312 2.445312 41.761719 2.824219 41.761719 C 3.484375 41.761719 4.074219 41.898438 4.597656 42.109375 C 5.105469 42.308594 5.539062 42.59375 5.9375 42.882812 C 6.273438 43.132812 6.621094 43.351562 7 43.503906 C 7.363281 43.648438 7.765625 43.738281 8.242188 43.738281 C 8.71875 43.738281 9.128906 43.640625 9.5 43.496094 C 9.886719 43.34375 10.234375 43.117188 10.546875 42.890625 C 10.96875 42.585938 11.410156 42.300781 11.910156 42.101562 C 12.425781 41.890625 13 41.769531 13.660156 41.769531 C 14.320312 41.769531 14.910156 41.90625 15.433594 42.117188 C 15.941406 42.316406 16.378906 42.601562 16.773438 42.890625 C 17.113281 43.140625 17.457031 43.355469 17.835938 43.511719 C 18.199219 43.65625 18.605469 43.742188 19.078125 43.742188 C 19.554688 43.742188 19.964844 43.648438 20.335938 43.503906 C 20.722656 43.347656 21.070312 43.125 21.386719 42.898438 C 21.804688 42.589844 22.246094 42.308594 22.746094 42.105469 C 23.261719 41.898438 23.835938 41.777344 24.496094 41.777344 C 25.160156 41.777344 25.75 41.914062 26.269531 42.121094 C 26.777344 42.324219 27.214844 42.605469 27.609375 42.894531 C 27.949219 43.148438 28.296875 43.363281 28.675781 43.515625 C 29.039062 43.664062 29.441406 43.75 29.917969 43.75 C 30.390625 43.75 30.804688 43.652344 31.175781 43.507812 C 31.5625 43.355469 31.90625 43.128906 32.222656 42.902344 C 32.640625 42.597656 33.085938 42.316406 33.585938 42.113281 C 34.101562 41.902344 34.671875 41.78125 35.335938 41.78125 C 35.996094 41.78125 36.585938 41.917969 37.109375 42.128906 C 37.617188 42.332031 38.050781 42.613281 38.449219 42.902344 C 38.785156 43.152344 39.132812 43.371094 39.511719 43.523438 C 39.875 43.667969 40.277344 43.757812 40.753906 43.757812 C 41.230469 43.757812 41.640625 43.660156 42.011719 43.515625 C 42.398438 43.363281 42.746094 43.136719 43.058594 42.910156 C 43.480469 42.605469 43.921875 42.324219 44.421875 42.121094 C 44.945312 41.847656 45.519531 41.726562 46.171875 41.726562 C 46.550781 41.734375 46.859375 42.042969 46.859375 42.421875 Z M 46.859375 42.421875 " fill-opacity="1" fill-rule="nonzero"/></g></svg>