<svg xmlns="http://www.w3.org/2000/svg" xmlns:xlink="http://www.w3.org/1999/xlink" width="66" zoomAndPan="magnify" viewBox="0 0 49.5 49.499998" height="66" preserveAspectRatio="xMidYMid meet" version="1.0"><defs><clipPath id="b0406635c4"><path d="M 1.875 23 L 47.167969 23 L 47.167969 32 L 1.875 32 Z M 1.875 23 " clip-rule="nonzero"/></clipPath><clipPath id="7f214053e3"><path d="M 4 29 L 45 29 L 45 45.789062 L 4 45.789062 Z M 4 29 " clip-rule="nonzero"/></clipPath><clipPath id="afb4642449"><path d="M 9 3.46875 L 21 3.46875 L 21 15 L 9 15 Z M 9 3.46875 " clip-rule="nonzero"/></clipPath></defs><g clip-path="url(#b0406635c4)"><path fill="#bbab99" d="M 46.398438 31.03125 L 2.59375 31.03125 C 2.394531 31.03125 2.226562 30.960938 2.085938 30.820312 C 1.945312 30.679688 1.875 30.507812 1.875 30.308594 L 1.875 24.496094 C 1.875 24.296875 1.945312 24.128906 2.085938 23.988281 C 2.226562 23.84375 2.394531 23.773438 2.59375 23.773438 L 46.398438 23.773438 C 46.597656 23.773438 46.769531 23.84375 46.910156 23.988281 C 47.050781 24.128906 47.121094 24.296875 47.121094 24.496094 L 47.121094 30.308594 C 47.121094 30.507812 47.050781 30.679688 46.910156 30.820312 C 46.769531 30.960938 46.597656 31.03125 46.398438 31.03125 Z M 3.316406 29.589844 L 45.675781 29.589844 L 45.675781 25.21875 L 3.316406 25.21875 Z M 3.316406 29.589844 " fill-opacity="1" fill-rule="nonzero"/></g><g clip-path="url(#7f214053e3)"><path fill="#bbab99" d="M 44.109375 45.515625 L 4.882812 45.515625 C 4.683594 45.515625 4.515625 45.445312 4.375 45.304688 C 4.234375 45.164062 4.164062 44.996094 4.164062 44.796875 L 4.164062 30.308594 C 4.164062 30.109375 4.234375 29.941406 4.375 29.800781 C 4.515625 29.660156 4.683594 29.589844 4.882812 29.589844 L 44.109375 29.589844 C 44.308594 29.589844 44.480469 29.660156 44.621094 29.800781 C 44.761719 29.941406 44.832031 30.109375 44.832031 30.308594 L 44.832031 44.796875 C 44.832031 44.996094 44.761719 45.164062 44.621094 45.304688 C 44.480469 45.445312 44.308594 45.515625 44.109375 45.515625 Z M 5.605469 44.074219 L 43.386719 44.074219 L 43.386719 31.03125 L 5.605469 31.03125 Z M 5.605469 44.074219 " fill-opacity="1" fill-rule="nonzero"/></g><path fill="#bbab99" d="M 22.890625 25.21875 L 7.195312 25.21875 C 6.996094 25.21875 6.828125 25.148438 6.683594 25.007812 C 6.542969 24.867188 6.472656 24.695312 6.472656 24.496094 L 6.472656 16.871094 C 6.472656 16.59375 6.5 16.320312 6.554688 16.046875 C 6.609375 15.773438 6.691406 15.507812 6.796875 15.253906 C 6.902344 14.996094 7.035156 14.75 7.1875 14.519531 C 7.34375 14.289062 7.519531 14.074219 7.714844 13.878906 C 7.914062 13.683594 8.125 13.507812 8.359375 13.351562 C 8.589844 13.195312 8.832031 13.066406 9.089844 12.960938 C 9.347656 12.851562 9.613281 12.773438 9.882812 12.71875 C 10.15625 12.664062 10.433594 12.636719 10.710938 12.636719 L 19.375 12.636719 C 19.652344 12.636719 19.929688 12.664062 20.199219 12.71875 C 20.472656 12.773438 20.738281 12.851562 20.996094 12.960938 C 21.253906 13.066406 21.496094 13.195312 21.726562 13.351562 C 21.957031 13.507812 22.171875 13.683594 22.367188 13.878906 C 22.566406 14.074219 22.742188 14.289062 22.894531 14.519531 C 23.050781 14.75 23.179688 14.996094 23.289062 15.253906 C 23.394531 15.507812 23.476562 15.773438 23.527344 16.046875 C 23.582031 16.320312 23.609375 16.59375 23.613281 16.871094 L 23.613281 24.496094 C 23.613281 24.695312 23.539062 24.867188 23.398438 25.007812 C 23.257812 25.148438 23.089844 25.21875 22.890625 25.21875 Z M 7.917969 23.773438 L 22.167969 23.773438 L 22.167969 16.871094 C 22.167969 16.503906 22.097656 16.144531 21.953125 15.804688 C 21.8125 15.460938 21.609375 15.160156 21.347656 14.898438 C 21.085938 14.636719 20.785156 14.433594 20.445312 14.292969 C 20.101562 14.152344 19.746094 14.078125 19.375 14.078125 L 10.710938 14.078125 C 10.339844 14.078125 9.984375 14.152344 9.640625 14.292969 C 9.300781 14.433594 8.996094 14.636719 8.734375 14.898438 C 8.472656 15.160156 8.273438 15.460938 8.128906 15.804688 C 7.988281 16.144531 7.917969 16.503906 7.917969 16.871094 Z M 7.917969 23.773438 " fill-opacity="1" fill-rule="nonzero"/><path fill="#bbab99" d="M 19.097656 25.21875 C 18.898438 25.21875 18.726562 25.148438 18.585938 25.007812 C 18.445312 24.867188 18.375 24.695312 18.375 24.496094 L 18.375 18.925781 C 18.375 18.726562 18.445312 18.558594 18.585938 18.417969 C 18.726562 18.277344 18.898438 18.207031 19.097656 18.207031 C 19.296875 18.207031 19.464844 18.277344 19.605469 18.417969 C 19.75 18.558594 19.820312 18.726562 19.820312 18.925781 L 19.820312 24.496094 C 19.820312 24.695312 19.75 24.867188 19.605469 25.007812 C 19.464844 25.148438 19.296875 25.21875 19.097656 25.21875 Z M 19.097656 25.21875 " fill-opacity="1" fill-rule="nonzero"/><path fill="#bbab99" d="M 10.988281 25.21875 C 10.789062 25.21875 10.617188 25.148438 10.476562 25.007812 C 10.335938 24.867188 10.265625 24.695312 10.265625 24.496094 L 10.265625 18.925781 C 10.265625 18.726562 10.335938 18.558594 10.476562 18.417969 C 10.617188 18.277344 10.789062 18.207031 10.988281 18.207031 C 11.1875 18.207031 11.359375 18.277344 11.5 18.417969 C 11.640625 18.558594 11.710938 18.726562 11.710938 18.925781 L 11.710938 24.496094 C 11.710938 24.695312 11.640625 24.867188 11.5 25.007812 C 11.359375 25.148438 11.1875 25.21875 10.988281 25.21875 Z M 10.988281 25.21875 " fill-opacity="1" fill-rule="nonzero"/><g clip-path="url(#afb4642449)"><path fill="#bbab99" d="M 15.042969 14.078125 C 14.695312 14.078125 14.351562 14.046875 14.007812 13.976562 C 13.667969 13.910156 13.335938 13.808594 13.015625 13.675781 C 12.695312 13.542969 12.390625 13.378906 12.101562 13.1875 C 11.8125 12.992188 11.542969 12.773438 11.300781 12.527344 C 11.054688 12.28125 10.832031 12.015625 10.640625 11.726562 C 10.449219 11.4375 10.285156 11.132812 10.152344 10.8125 C 10.019531 10.488281 9.917969 10.160156 9.851562 9.816406 C 9.78125 9.476562 9.75 9.132812 9.75 8.785156 C 9.75 8.4375 9.78125 8.09375 9.851562 7.75 C 9.917969 7.410156 10.019531 7.078125 10.152344 6.757812 C 10.285156 6.4375 10.449219 6.132812 10.640625 5.84375 C 10.835938 5.554688 11.054688 5.289062 11.300781 5.042969 C 11.546875 4.796875 11.8125 4.574219 12.101562 4.382812 C 12.390625 4.191406 12.695312 4.027344 13.015625 3.894531 C 13.339844 3.761719 13.667969 3.660156 14.011719 3.59375 C 14.351562 3.523438 14.695312 3.492188 15.042969 3.492188 C 15.390625 3.492188 15.734375 3.523438 16.074219 3.59375 C 16.417969 3.660156 16.746094 3.761719 17.070312 3.894531 C 17.390625 4.027344 17.695312 4.191406 17.984375 4.382812 C 18.273438 4.578125 18.539062 4.796875 18.785156 5.042969 C 19.03125 5.289062 19.25 5.554688 19.445312 5.84375 C 19.636719 6.132812 19.800781 6.4375 19.933594 6.761719 C 20.066406 7.082031 20.167969 7.414062 20.234375 7.753906 C 20.300781 8.09375 20.335938 8.4375 20.335938 8.785156 C 20.335938 9.132812 20.300781 9.476562 20.234375 9.820312 C 20.164062 10.160156 20.066406 10.488281 19.929688 10.8125 C 19.796875 11.132812 19.636719 11.4375 19.441406 11.726562 C 19.25 12.015625 19.03125 12.28125 18.785156 12.527344 C 18.539062 12.773438 18.269531 12.992188 17.980469 13.183594 C 17.691406 13.378906 17.386719 13.542969 17.066406 13.675781 C 16.746094 13.808594 16.414062 13.910156 16.074219 13.976562 C 15.734375 14.042969 15.390625 14.078125 15.042969 14.078125 Z M 15.042969 4.933594 C 14.53125 4.933594 14.039062 5.03125 13.570312 5.226562 C 13.097656 5.421875 12.679688 5.699219 12.320312 6.0625 C 11.957031 6.421875 11.679688 6.839844 11.484375 7.3125 C 11.289062 7.78125 11.191406 8.273438 11.191406 8.785156 C 11.191406 9.296875 11.289062 9.785156 11.484375 10.257812 C 11.679688 10.730469 11.957031 11.148438 12.320312 11.507812 C 12.679688 11.867188 13.097656 12.148438 13.566406 12.34375 C 14.039062 12.539062 14.53125 12.636719 15.042969 12.636719 C 15.550781 12.636719 16.042969 12.539062 16.515625 12.34375 C 16.988281 12.148438 17.402344 11.871094 17.765625 11.507812 C 18.125 11.148438 18.40625 10.730469 18.601562 10.257812 C 18.796875 9.789062 18.894531 9.296875 18.894531 8.785156 C 18.894531 8.277344 18.796875 7.785156 18.597656 7.3125 C 18.402344 6.839844 18.125 6.425781 17.765625 6.0625 C 17.402344 5.703125 16.988281 5.425781 16.515625 5.226562 C 16.042969 5.03125 15.554688 4.933594 15.042969 4.933594 Z M 15.042969 4.933594 " fill-opacity="1" fill-rule="nonzero"/></g><path fill="#bbab99" d="M 41.800781 25.21875 L 30.082031 25.21875 C 29.882812 25.21875 29.710938 25.148438 29.570312 25.007812 C 29.429688 24.867188 29.359375 24.695312 29.359375 24.496094 L 29.359375 16.398438 C 29.359375 16.199219 29.429688 16.027344 29.570312 15.886719 C 29.710938 15.746094 29.882812 15.675781 30.082031 15.675781 L 41.800781 15.675781 C 42 15.675781 42.167969 15.746094 42.308594 15.886719 C 42.449219 16.027344 42.519531 16.199219 42.519531 16.398438 L 42.519531 24.496094 C 42.519531 24.695312 42.449219 24.867188 42.308594 25.007812 C 42.167969 25.148438 42 25.21875 41.800781 25.21875 Z M 30.804688 23.773438 L 41.078125 23.773438 L 41.078125 17.117188 L 30.804688 17.117188 Z M 30.804688 23.773438 " fill-opacity="1" fill-rule="nonzero"/><path fill="#bbab99" d="M 38.359375 21.167969 L 33.515625 21.167969 C 33.316406 21.167969 33.144531 21.097656 33.003906 20.957031 C 32.863281 20.816406 32.792969 20.644531 32.792969 20.445312 C 32.792969 20.246094 32.863281 20.078125 33.003906 19.9375 C 33.144531 19.796875 33.316406 19.726562 33.515625 19.726562 L 38.359375 19.726562 C 38.558594 19.726562 38.730469 19.796875 38.871094 19.9375 C 39.011719 20.078125 39.082031 20.246094 39.082031 20.445312 C 39.082031 20.644531 39.011719 20.816406 38.871094 20.957031 C 38.730469 21.097656 38.558594 21.167969 38.359375 21.167969 Z M 38.359375 21.167969 " fill-opacity="1" fill-rule="nonzero"/></svg>