<svg xmlns="http://www.w3.org/2000/svg" xmlns:xlink="http://www.w3.org/1999/xlink" width="66" zoomAndPan="magnify" viewBox="0 0 49.5 49.499998" height="66" preserveAspectRatio="xMidYMid meet" version="1.0"><defs><clipPath id="08a3456ecb"><path d="M 11 9.867188 L 38 9.867188 L 38 38.824219 L 11 38.824219 Z M 11 9.867188 " clip-rule="nonzero"/></clipPath><clipPath id="0cb3f9bcdc"><path d="M 32 10 L 48 10 L 48 38.824219 L 32 38.824219 Z M 32 10 " clip-rule="nonzero"/></clipPath><clipPath id="aadb2d76f8"><path d="M 1.222656 10 L 17 10 L 17 38.824219 L 1.222656 38.824219 Z M 1.222656 10 " clip-rule="nonzero"/></clipPath></defs><g clip-path="url(#08a3456ecb)"><path fill="#bbab99" d="M 27.34375 22.621094 C 27.578125 22.621094 27.792969 22.621094 28.003906 22.621094 C 30.746094 22.621094 33.484375 22.628906 36.226562 22.617188 C 37.320312 22.613281 37.859375 22.058594 37.867188 20.964844 C 37.871094 20.117188 37.871094 19.269531 37.867188 18.421875 C 37.863281 17.628906 37.796875 17.5625 37.011719 17.558594 C 34.617188 17.558594 32.226562 17.558594 29.835938 17.558594 C 29.648438 17.558594 29.46875 17.558594 29.28125 17.558594 C 29.203125 17.558594 29.140625 17.5 29.140625 17.421875 L 29.140625 16.191406 C 29.140625 16.132812 29.175781 16.082031 29.230469 16.0625 C 30.289062 15.648438 30.921875 14.910156 30.875 13.75 C 30.832031 12.644531 30.671875 11.542969 30.570312 10.441406 C 30.535156 10.039062 30.332031 9.863281 29.9375 9.867188 C 29.042969 9.871094 28.152344 9.871094 27.261719 9.867188 C 26.832031 9.863281 26.632812 10.054688 26.597656 10.484375 C 26.523438 11.457031 26.410156 12.429688 26.332031 13.40625 C 26.222656 14.703125 26.625 15.398438 27.757812 15.988281 C 27.886719 16.054688 28.046875 16.199219 28.058594 16.324219 C 28.09375 16.675781 28.078125 17.03125 28.074219 17.386719 C 28.074219 17.460938 28.011719 17.523438 27.933594 17.523438 L 21.664062 17.523438 C 21.585938 17.523438 21.527344 17.464844 21.523438 17.386719 C 21.515625 17.082031 21.488281 16.796875 21.542969 16.527344 C 21.582031 16.320312 21.726562 16.058594 21.902344 15.96875 C 22.925781 15.429688 23.371094 14.695312 23.277344 13.539062 C 23.199219 12.519531 23.082031 11.507812 23 10.488281 C 22.96875 10.058594 22.777344 9.863281 22.34375 9.867188 C 21.453125 9.875 20.558594 9.871094 19.667969 9.867188 C 19.273438 9.863281 19.066406 10.039062 19.027344 10.4375 C 18.953125 11.304688 18.898438 12.171875 18.769531 13.03125 C 18.558594 14.480469 18.988281 15.550781 20.382812 16.074219 C 20.433594 16.09375 20.472656 16.144531 20.472656 16.203125 L 20.472656 17.402344 C 20.472656 17.476562 20.414062 17.535156 20.339844 17.542969 C 20.199219 17.550781 20.085938 17.558594 19.972656 17.558594 C 17.492188 17.558594 15.011719 17.570312 12.535156 17.550781 C 11.949219 17.546875 11.699219 17.75 11.722656 18.347656 C 11.753906 19.109375 11.730469 19.871094 11.730469 20.632812 C 11.730469 22.199219 12.164062 22.625 13.757812 22.625 C 16.390625 22.621094 19.019531 22.621094 21.652344 22.621094 C 21.859375 22.621094 22.0625 22.640625 22.269531 22.65625 C 22.339844 22.664062 22.394531 22.722656 22.394531 22.796875 L 22.394531 35.378906 C 22.394531 35.457031 22.332031 35.519531 22.257812 35.519531 C 22 35.519531 21.761719 35.519531 21.527344 35.519531 C 19.660156 35.519531 18.734375 36.484375 18.753906 38.347656 C 18.761719 38.945312 18.996094 39.140625 19.574219 39.136719 C 21.726562 39.113281 23.878906 39.128906 26.035156 39.128906 C 27.40625 39.128906 28.773438 39.148438 30.144531 39.105469 C 30.375 39.097656 30.769531 38.855469 30.796875 38.679688 C 31.121094 36.613281 29.789062 35.476562 28.339844 35.515625 C 28.007812 35.527344 27.675781 35.519531 27.339844 35.519531 C 27.261719 35.519531 27.203125 35.457031 27.203125 35.378906 L 27.203125 22.761719 C 27.203125 22.683594 27.265625 22.621094 27.34375 22.621094 Z M 27.503906 11.9375 C 27.625 10.691406 27.398438 10.902344 28.632812 10.878906 C 28.894531 10.871094 29.160156 10.875 29.457031 10.875 C 29.53125 10.875 29.589844 10.929688 29.597656 11 C 29.632812 11.335938 29.660156 11.609375 29.691406 11.898438 C 29.699219 11.980469 29.636719 12.054688 29.554688 12.054688 L 27.636719 12.054688 C 27.578125 12.054688 27.527344 12.019531 27.507812 11.964844 C 27.503906 11.957031 27.503906 11.945312 27.503906 11.9375 Z M 27.902344 14.894531 C 27.398438 14.578125 27.234375 14.070312 27.394531 13.28125 C 27.40625 13.21875 27.464844 13.171875 27.53125 13.171875 L 29.640625 13.171875 C 29.703125 13.171875 29.761719 13.214844 29.777344 13.277344 C 29.949219 14.039062 29.800781 14.550781 29.304688 14.875 C 28.847656 15.175781 28.367188 15.1875 27.902344 14.894531 Z M 19.914062 11.898438 C 19.941406 11.625 19.972656 11.351562 20 11.058594 C 20.007812 10.988281 20.070312 10.933594 20.140625 10.933594 L 21.886719 10.933594 C 21.957031 10.933594 22.019531 10.988281 22.023438 11.058594 C 22.054688 11.351562 22.082031 11.617188 22.109375 11.902344 C 22.117188 11.984375 22.054688 12.054688 21.972656 12.054688 L 20.050781 12.054688 C 19.96875 12.050781 19.90625 11.980469 19.914062 11.898438 Z M 20.25 14.835938 C 19.722656 14.433594 19.652344 13.894531 19.796875 13.28125 C 19.8125 13.214844 19.867188 13.171875 19.929688 13.171875 L 22.09375 13.171875 C 22.160156 13.171875 22.214844 13.214844 22.230469 13.277344 C 22.390625 13.953125 22.273438 14.503906 21.699219 14.890625 C 21.21875 15.214844 20.707031 15.1875 20.25 14.835938 Z M 26.140625 35.519531 C 26.140625 36.476562 26.191406 36.519531 27.125 36.523438 C 27.5625 36.523438 27.996094 36.503906 28.429688 36.527344 C 29.222656 36.574219 29.722656 37.089844 29.777344 37.921875 C 29.78125 38.003906 29.71875 38.070312 29.640625 38.070312 L 19.980469 38.070312 C 19.90625 38.070312 19.84375 38.007812 19.84375 37.933594 C 19.839844 37.144531 20.347656 36.582031 21.140625 36.53125 C 21.640625 36.5 22.144531 36.492188 22.640625 36.53125 C 23.289062 36.582031 23.46875 36.28125 23.464844 35.683594 C 23.449219 32.773438 23.457031 29.859375 23.457031 26.945312 C 23.457031 25.464844 23.460938 23.988281 23.457031 22.511719 C 23.453125 21.683594 23.382812 21.609375 22.570312 21.609375 C 19.59375 21.605469 16.613281 21.605469 13.636719 21.605469 C 12.824219 21.605469 12.753906 21.535156 12.75 20.707031 C 12.746094 20.078125 12.75 19.445312 12.75 18.769531 C 12.75 18.691406 12.8125 18.632812 12.886719 18.632812 L 36.695312 18.632812 C 36.769531 18.632812 36.832031 18.691406 36.832031 18.769531 C 36.835938 19.570312 36.867188 20.386719 36.796875 21.191406 C 36.785156 21.351562 36.320312 21.585938 36.066406 21.589844 C 33.109375 21.617188 30.152344 21.609375 27.195312 21.609375 C 26.167969 21.609375 26.144531 21.632812 26.144531 22.675781 C 26.140625 26.953125 26.140625 31.238281 26.140625 35.519531 Z M 26.140625 35.519531 " fill-opacity="1" fill-rule="nonzero"/></g><g clip-path="url(#0cb3f9bcdc)"><path fill="#bbab99" d="M 47.136719 11.519531 C 46.273438 10.722656 45.097656 10.78125 44.25 11.710938 C 42.558594 13.574219 41.714844 15.773438 41.71875 18.296875 C 41.722656 20.582031 41.71875 22.863281 41.71875 25.144531 C 41.71875 25.335938 41.71875 25.527344 41.71875 25.75 C 41.71875 25.824219 41.65625 25.886719 41.578125 25.886719 C 41.316406 25.886719 41.113281 25.886719 40.914062 25.886719 C 38.699219 25.886719 36.480469 25.882812 34.261719 25.890625 C 33.113281 25.894531 32.5 26.511719 32.488281 27.667969 C 32.484375 28.449219 32.496094 29.230469 32.484375 30.011719 C 32.476562 30.53125 32.699219 30.769531 33.230469 30.75 C 33.832031 30.730469 34.433594 30.742188 35.082031 30.746094 C 35.117188 30.746094 35.152344 30.757812 35.175781 30.78125 C 35.175781 33.382812 35.175781 35.984375 35.175781 38.582031 C 35.175781 38.886719 35.414062 39.132812 35.703125 39.132812 C 35.996094 39.132812 36.230469 38.886719 36.230469 38.582031 C 36.230469 37.652344 36.230469 36.722656 36.230469 35.789062 C 36.234375 34.378906 36.230469 32.964844 36.234375 31.554688 C 36.234375 31.34375 36.25 31.132812 36.261719 30.910156 C 36.265625 30.835938 36.328125 30.78125 36.402344 30.78125 L 39.5625 30.78125 C 39.636719 30.78125 39.699219 30.84375 39.699219 30.917969 C 39.699219 31.128906 39.699219 31.324219 39.699219 31.515625 C 39.699219 33.730469 39.699219 35.945312 39.703125 38.164062 C 39.703125 38.535156 39.675781 38.96875 40.214844 38.964844 C 40.742188 38.960938 40.734375 38.546875 40.734375 38.164062 C 40.734375 36.011719 40.734375 33.859375 40.734375 31.707031 C 40.734375 31.453125 40.734375 31.195312 40.734375 30.917969 C 40.734375 30.839844 40.796875 30.777344 40.875 30.777344 L 44.480469 30.777344 C 44.519531 30.777344 44.550781 30.792969 44.574219 30.816406 C 44.574219 33.351562 44.578125 35.882812 44.578125 38.417969 C 44.578125 38.71875 44.8125 38.964844 45.105469 38.964844 C 45.382812 38.964844 45.613281 38.738281 45.632812 38.453125 C 45.679688 38.21875 45.644531 37.957031 45.644531 37.707031 C 45.644531 31.316406 45.652344 24.925781 45.640625 18.539062 C 45.636719 16.945312 46.101562 15.554688 47.164062 14.363281 C 47.996094 13.425781 47.972656 12.296875 47.136719 11.519531 Z M 44.578125 29.523438 C 44.578125 29.601562 44.515625 29.664062 44.4375 29.664062 L 33.65625 29.664062 C 33.582031 29.664062 33.519531 29.601562 33.519531 29.523438 C 33.519531 28.847656 33.511719 28.203125 33.523438 27.554688 C 33.53125 26.996094 33.914062 26.902344 34.375 26.902344 C 36.304688 26.910156 38.238281 26.90625 40.171875 26.90625 C 41.578125 26.90625 42.988281 26.90625 44.4375 26.90625 C 44.515625 26.90625 44.578125 26.96875 44.578125 27.046875 Z M 46.4375 13.617188 C 45.097656 15.101562 44.574219 16.839844 44.609375 18.816406 C 44.652344 21.09375 44.621094 23.367188 44.621094 25.71875 C 44.621094 25.792969 44.558594 25.855469 44.484375 25.855469 L 42.894531 25.855469 C 42.851562 25.855469 42.8125 25.835938 42.785156 25.804688 C 42.761719 25.773438 42.742188 25.746094 42.742188 25.722656 C 42.765625 22.839844 42.710938 19.953125 42.84375 17.074219 C 42.929688 15.265625 43.808594 13.71875 45.039062 12.390625 C 45.515625 11.878906 45.929688 11.84375 46.394531 12.25 C 46.835938 12.632812 46.878906 13.132812 46.4375 13.617188 Z M 46.4375 13.617188 " fill-opacity="1" fill-rule="nonzero"/></g><g clip-path="url(#aadb2d76f8)"><path fill="#bbab99" d="M 16.515625 27.664062 C 16.507812 26.511719 15.890625 25.890625 14.742188 25.886719 C 12.523438 25.882812 10.308594 25.886719 8.089844 25.886719 C 7.886719 25.886719 7.6875 25.886719 7.425781 25.886719 C 7.347656 25.886719 7.285156 25.824219 7.285156 25.746094 C 7.285156 25.527344 7.285156 25.335938 7.285156 25.144531 C 7.285156 22.863281 7.28125 20.578125 7.285156 18.296875 C 7.292969 15.773438 6.445312 13.574219 4.753906 11.710938 C 3.90625 10.777344 2.730469 10.71875 1.871094 11.519531 C 1.03125 12.296875 1.007812 13.425781 1.839844 14.363281 C 2.902344 15.554688 3.371094 16.945312 3.367188 18.539062 C 3.351562 24.925781 3.359375 31.316406 3.359375 37.707031 C 3.359375 37.953125 3.324219 38.21875 3.375 38.453125 C 3.390625 38.738281 3.621094 38.964844 3.902344 38.964844 C 4.191406 38.964844 4.429688 38.71875 4.429688 38.417969 C 4.429688 35.882812 4.429688 33.351562 4.429688 30.816406 C 4.457031 30.792969 4.488281 30.777344 4.523438 30.777344 L 8.132812 30.777344 C 8.210938 30.777344 8.273438 30.839844 8.273438 30.917969 C 8.273438 31.195312 8.273438 31.453125 8.273438 31.707031 C 8.273438 33.859375 8.273438 36.011719 8.273438 38.164062 C 8.273438 38.546875 8.265625 38.960938 8.792969 38.964844 C 9.332031 38.96875 9.304688 38.539062 9.304688 38.164062 C 9.308594 35.949219 9.308594 33.730469 9.308594 31.515625 C 9.308594 31.320312 9.308594 31.128906 9.308594 30.917969 C 9.308594 30.84375 9.367188 30.78125 9.445312 30.78125 L 12.605469 30.78125 C 12.679688 30.78125 12.742188 30.835938 12.746094 30.910156 C 12.757812 31.132812 12.773438 31.34375 12.773438 31.554688 C 12.773438 32.964844 12.773438 34.378906 12.777344 35.789062 C 12.777344 36.722656 12.777344 37.652344 12.777344 38.582031 C 12.777344 38.886719 13.011719 39.132812 13.304688 39.132812 C 13.59375 39.132812 13.832031 38.886719 13.832031 38.582031 C 13.832031 35.984375 13.832031 33.382812 13.832031 30.78125 C 13.855469 30.757812 13.890625 30.746094 13.925781 30.746094 C 14.574219 30.742188 15.175781 30.730469 15.777344 30.75 C 16.308594 30.769531 16.53125 30.53125 16.519531 30.011719 C 16.507812 29.230469 16.519531 28.449219 16.515625 27.664062 Z M 4.382812 25.71875 C 4.382812 23.367188 4.351562 21.09375 4.394531 18.816406 C 4.429688 16.84375 3.90625 15.101562 2.566406 13.617188 C 2.128906 13.132812 2.167969 12.632812 2.609375 12.25 C 3.074219 11.84375 3.488281 11.878906 3.964844 12.394531 C 5.195312 13.71875 6.074219 15.269531 6.160156 17.074219 C 6.292969 19.953125 6.242188 22.839844 6.265625 25.722656 C 6.265625 25.75 6.242188 25.773438 6.21875 25.804688 C 6.191406 25.839844 6.152344 25.855469 6.109375 25.855469 L 4.523438 25.855469 C 4.445312 25.855469 4.382812 25.792969 4.382812 25.71875 Z M 15.484375 29.523438 C 15.484375 29.601562 15.421875 29.664062 15.347656 29.664062 L 4.566406 29.664062 C 4.488281 29.664062 4.429688 29.601562 4.429688 29.523438 L 4.429688 27.046875 C 4.429688 26.96875 4.488281 26.90625 4.566406 26.90625 C 6.015625 26.90625 7.421875 26.90625 8.832031 26.90625 C 10.765625 26.90625 12.699219 26.910156 14.628906 26.902344 C 15.089844 26.902344 15.472656 26.992188 15.480469 27.554688 C 15.492188 28.203125 15.488281 28.847656 15.484375 29.523438 Z M 15.484375 29.523438 " fill-opacity="1" fill-rule="nonzero"/></g><path fill="#bbab99" d="M 35.230469 19.996094 C 35.230469 19.714844 35 19.484375 34.71875 19.484375 L 14.875 19.484375 C 14.59375 19.484375 14.363281 19.714844 14.363281 19.996094 C 14.363281 20.277344 14.59375 20.503906 14.875 20.503906 L 34.71875 20.503906 C 35 20.503906 35.230469 20.277344 35.230469 19.996094 Z M 35.230469 19.996094 " fill-opacity="1" fill-rule="nonzero"/></svg>