<svg xmlns="http://www.w3.org/2000/svg" xmlns:xlink="http://www.w3.org/1999/xlink" width="66" zoomAndPan="magnify" viewBox="0 0 49.5 49.499998" height="66" preserveAspectRatio="xMidYMid meet" version="1.0"><defs><clipPath id="a9afc6de9e"><path d="M 6.949219 1.917969 L 41.847656 1.917969 L 41.847656 47.207031 L 6.949219 47.207031 Z M 6.949219 1.917969 " clip-rule="nonzero"/></clipPath></defs><g clip-path="url(#a9afc6de9e)"><path fill="#bbab99" d="M 24.847656 2.3125 L 24.847656 9.183594 C 24.847656 10.214844 25.332031 11.144531 26.140625 11.671875 C 28.253906 13.046875 29.519531 15.367188 29.519531 17.875 L 29.519531 27.75 C 29.859375 27.28125 30.253906 26.898438 30.613281 26.558594 L 30.875 26.304688 C 32.5 24.714844 34.5 23.632812 34.585938 23.585938 C 34.765625 23.488281 34.988281 23.546875 35.101562 23.714844 C 35.140625 23.769531 35.949219 24.996094 36.375 26.617188 C 38.46875 26.222656 40.515625 26.808594 40.605469 26.835938 C 40.785156 26.886719 40.902344 27.058594 40.890625 27.242188 C 40.882812 27.335938 40.730469 29.453125 39.636719 31.289062 C 41.015625 32.246094 41.886719 33.429688 41.925781 33.480469 C 42.046875 33.648438 42.019531 33.878906 41.867188 34.011719 C 41.796875 34.074219 40.089844 35.582031 38.039062 36.558594 L 37.988281 36.585938 C 37.996094 36.734375 38 36.882812 37.984375 37.03125 C 37.898438 37.824219 37.507812 38.535156 36.882812 39.035156 C 36.351562 39.464844 35.699219 39.691406 35.023438 39.691406 C 34.988281 39.691406 34.953125 39.6875 34.917969 39.6875 C 35.027344 40.027344 35.082031 40.386719 35.0625 40.753906 C 35.019531 41.550781 34.667969 42.28125 34.074219 42.816406 C 33.523438 43.3125 32.820312 43.578125 32.085938 43.578125 C 32.046875 43.578125 32.011719 43.578125 31.972656 43.574219 C 32.011719 43.796875 32.035156 44.023438 32.023438 44.257812 C 31.980469 45.054688 31.628906 45.785156 31.035156 46.316406 C 30.46875 46.828125 29.753906 47.078125 29.042969 47.078125 C 28.226562 47.078125 27.410156 46.746094 26.820312 46.089844 C 26.078125 45.261719 25.898438 44.128906 26.230469 43.140625 C 25.789062 42.984375 25.390625 42.738281 25.058594 42.390625 L 7.898438 42.390625 C 7.722656 42.390625 7.570312 42.277344 7.519531 42.113281 C 7.46875 41.945312 7.53125 41.765625 7.675781 41.667969 L 10.511719 39.738281 C 11.238281 39.242188 11.675781 38.417969 11.675781 37.539062 L 11.675781 32.871094 C 9.003906 32.453125 6.953125 30.140625 6.953125 27.351562 L 7.8125 17.0625 C 7.828125 16.859375 8 16.699219 8.207031 16.699219 L 14.824219 16.699219 C 15.152344 14.65625 16.316406 12.828125 18.09375 11.671875 C 18.90625 11.144531 19.386719 10.214844 19.386719 9.183594 L 19.386719 2.3125 C 19.386719 2.09375 19.566406 1.917969 19.785156 1.917969 L 24.453125 1.917969 C 24.671875 1.917969 24.847656 2.09375 24.847656 2.3125 Z M 7.890625 25.621094 C 7.96875 25.632812 8.050781 25.644531 8.132812 25.644531 C 8.8125 25.644531 9.148438 25.257812 9.636719 24.632812 C 10.117188 24.015625 10.664062 23.316406 11.765625 23.316406 C 12.867188 23.316406 13.410156 24.015625 13.890625 24.632812 C 14.378906 25.257812 14.710938 25.644531 15.390625 25.644531 C 16.066406 25.644531 16.398438 25.257812 16.886719 24.632812 C 17.367188 24.015625 17.914062 23.316406 19.011719 23.316406 C 19.03125 23.316406 19.046875 23.324219 19.0625 23.324219 L 18.574219 17.492188 L 8.570312 17.492188 Z M 12.546875 32.15625 L 14.601562 32.15625 C 17.246094 32.15625 19.402344 30 19.402344 27.351562 L 19.132812 24.125 C 19.089844 24.121094 19.058594 24.109375 19.011719 24.109375 C 18.335938 24.109375 18 24.492188 17.511719 25.117188 C 17.03125 25.734375 16.488281 26.433594 15.390625 26.433594 C 14.289062 26.433594 13.746094 25.734375 13.265625 25.117188 C 12.777344 24.492188 12.445312 24.109375 11.765625 24.109375 C 11.085938 24.109375 10.75 24.492188 10.261719 25.121094 C 9.78125 25.734375 9.234375 26.433594 8.132812 26.433594 C 8.027344 26.433594 7.925781 26.421875 7.824219 26.40625 L 7.742188 27.386719 C 7.746094 30 9.898438 32.15625 12.546875 32.15625 Z M 17.964844 41.597656 L 16.1875 40.390625 C 15.242188 39.75 14.679688 38.683594 14.679688 37.539062 L 14.679688 32.941406 C 14.652344 32.945312 14.625 32.949219 14.601562 32.949219 L 12.546875 32.949219 C 12.519531 32.949219 12.492188 32.945312 12.46875 32.941406 L 12.46875 37.539062 C 12.46875 38.683594 11.902344 39.75 10.957031 40.390625 L 9.183594 41.597656 Z M 22.914062 31.785156 C 22.765625 31.785156 22.617188 31.800781 22.464844 31.828125 C 21.894531 31.949219 21.398438 32.28125 21.078125 32.773438 C 20.757812 33.261719 20.644531 33.847656 20.765625 34.421875 C 20.882812 34.992188 21.21875 35.488281 21.707031 35.808594 C 22.054688 36.039062 22.445312 36.144531 22.835938 36.160156 C 22.917969 35.933594 23.015625 35.714844 23.148438 35.507812 C 23.578125 34.859375 24.230469 34.410156 24.988281 34.242188 C 24.894531 34.035156 24.8125 33.820312 24.765625 33.59375 C 24.707031 33.3125 24.707031 33.03125 24.726562 32.75 C 24.570312 32.515625 24.363281 32.308594 24.113281 32.144531 C 23.753906 31.90625 23.339844 31.785156 22.914062 31.785156 Z M 24.550781 31.480469 C 24.695312 31.578125 24.828125 31.691406 24.953125 31.808594 C 25.019531 31.652344 25.097656 31.496094 25.195312 31.347656 C 25.972656 30.167969 27.453125 29.722656 28.726562 30.195312 L 28.726562 23.71875 L 23.085938 23.71875 L 23.085938 31.007812 C 23.601562 31.039062 24.105469 31.191406 24.550781 31.480469 Z M 23.496094 37.59375 C 23.613281 38.164062 23.949219 38.660156 24.4375 38.980469 C 24.46875 39 24.496094 39.007812 24.527344 39.027344 C 24.691406 38.683594 24.921875 38.375 25.214844 38.113281 C 25.808594 37.578125 26.570312 37.308594 27.367188 37.351562 C 27.402344 37.355469 27.4375 37.367188 27.46875 37.367188 C 27.410156 37.074219 27.378906 36.765625 27.414062 36.453125 C 27.429688 36.296875 27.46875 36.152344 27.507812 36.007812 C 27.5 35.992188 27.492188 35.972656 27.480469 35.957031 C 26.976562 35.921875 26.484375 35.765625 26.050781 35.480469 C 25.832031 35.339844 25.648438 35.164062 25.476562 34.972656 C 25.382812 34.980469 25.292969 34.984375 25.199219 35 C 24.625 35.121094 24.132812 35.457031 23.8125 35.945312 C 23.488281 36.433594 23.378906 37.019531 23.496094 37.59375 Z M 27.089844 42.519531 C 27.675781 42.550781 28.238281 42.355469 28.671875 41.964844 C 29.109375 41.574219 29.367188 41.035156 29.398438 40.449219 C 29.414062 40.125 29.355469 39.8125 29.238281 39.519531 C 28.609375 39.257812 28.097656 38.796875 27.773438 38.214844 C 27.628906 38.179688 27.480469 38.152344 27.328125 38.144531 C 27.285156 38.140625 27.246094 38.140625 27.207031 38.140625 C 26.664062 38.140625 26.148438 38.335938 25.746094 38.703125 C 25.308594 39.09375 25.050781 39.628906 25.019531 40.214844 C 24.988281 40.800781 25.1875 41.363281 25.578125 41.796875 C 25.96875 42.234375 26.507812 42.488281 27.089844 42.519531 Z M 30.542969 33.808594 C 30.597656 33.8125 30.652344 33.804688 30.707031 33.808594 C 31.539062 33.902344 32.25 34.328125 32.726562 34.941406 C 33.476562 34.660156 34.046875 33.988281 34.140625 33.140625 C 34.207031 32.558594 34.039062 31.984375 33.671875 31.527344 C 33.304688 31.070312 32.785156 30.785156 32.203125 30.722656 C 32.121094 30.714844 32.039062 30.707031 31.960938 30.707031 C 31.289062 30.707031 30.675781 31.019531 30.269531 31.515625 C 30.664062 32.207031 30.765625 33.03125 30.542969 33.808594 Z M 28.203125 36.539062 C 28.070312 37.738281 28.941406 38.824219 30.140625 38.957031 C 30.726562 39.019531 31.296875 38.851562 31.753906 38.488281 C 32.210938 38.121094 32.496094 37.597656 32.558594 37.015625 C 32.691406 35.816406 31.820312 34.730469 30.621094 34.597656 C 30.539062 34.589844 30.457031 34.585938 30.378906 34.585938 C 29.277344 34.585938 28.324219 35.417969 28.203125 36.539062 Z M 31.230469 44.214844 C 31.246094 43.9375 31.207031 43.664062 31.121094 43.40625 C 30.644531 43.246094 30.207031 42.972656 29.859375 42.589844 C 29.742188 42.457031 29.644531 42.316406 29.554688 42.171875 C 29.445312 42.304688 29.332031 42.4375 29.203125 42.554688 C 28.648438 43.050781 27.949219 43.316406 27.210938 43.316406 C 27.15625 43.316406 27.101562 43.316406 27.046875 43.3125 C 27.035156 43.3125 27.023438 43.308594 27.007812 43.304688 C 26.71875 44.050781 26.84375 44.925781 27.410156 45.5625 C 28.21875 46.460938 29.609375 46.535156 30.507812 45.726562 C 30.941406 45.335938 31.199219 44.800781 31.230469 44.214844 Z M 34.269531 40.710938 C 34.300781 40.128906 34.101562 39.566406 33.710938 39.128906 C 33.453125 38.839844 33.128906 38.648438 32.78125 38.53125 C 32.628906 38.738281 32.457031 38.9375 32.25 39.105469 C 31.714844 39.535156 31.0625 39.761719 30.386719 39.761719 C 30.300781 39.761719 30.210938 39.753906 30.125 39.746094 C 30.171875 39.992188 30.203125 40.238281 30.1875 40.492188 C 30.171875 40.78125 30.105469 41.054688 30.011719 41.316406 C 30.105469 41.589844 30.253906 41.839844 30.449219 42.058594 C 30.84375 42.496094 31.378906 42.753906 31.964844 42.785156 C 32.550781 42.816406 33.109375 42.617188 33.546875 42.226562 C 33.980469 41.835938 34.238281 41.296875 34.269531 40.710938 Z M 36.726562 35.335938 C 36.359375 34.878906 35.839844 34.59375 35.257812 34.527344 C 34.960938 34.496094 34.671875 34.523438 34.398438 34.601562 C 34.238281 34.832031 34.054688 35.046875 33.832031 35.226562 C 33.613281 35.402344 33.375 35.535156 33.125 35.640625 C 33.3125 36.089844 33.402344 36.585938 33.347656 37.101562 C 33.320312 37.355469 33.25 37.59375 33.164062 37.828125 C 33.59375 37.992188 33.984375 38.25 34.300781 38.601562 C 34.363281 38.667969 34.410156 38.746094 34.464844 38.820312 C 34.566406 38.847656 34.671875 38.875 34.777344 38.886719 C 35.359375 38.949219 35.933594 38.78125 36.386719 38.417969 C 36.84375 38.050781 37.132812 37.527344 37.195312 36.945312 C 37.257812 36.363281 37.09375 35.792969 36.726562 35.335938 Z M 29.519531 30.648438 C 29.609375 30.71875 29.710938 30.789062 29.792969 30.871094 C 30.414062 30.210938 31.320312 29.828125 32.289062 29.933594 C 33.082031 30.019531 33.792969 30.410156 34.289062 31.03125 C 34.789062 31.65625 35.015625 32.433594 34.929688 33.226562 C 34.910156 33.402344 34.871094 33.570312 34.824219 33.734375 C 34.996094 33.722656 35.167969 33.722656 35.34375 33.742188 C 36.132812 33.828125 36.847656 34.21875 37.34375 34.839844 C 37.570312 35.121094 37.734375 35.4375 37.84375 35.769531 C 39.257812 35.070312 40.511719 34.105469 41.054688 33.664062 C 40.6875 33.226562 39.910156 32.382812 38.882812 31.738281 C 38.792969 31.683594 38.730469 31.589844 38.707031 31.484375 C 38.683594 31.382812 38.707031 31.273438 38.765625 31.183594 C 39.667969 29.851562 39.972656 28.207031 40.0625 27.519531 C 39.382812 27.367188 37.730469 27.085938 36.175781 27.472656 C 36.070312 27.496094 35.960938 27.480469 35.871094 27.425781 C 35.777344 27.367188 35.714844 27.277344 35.691406 27.171875 C 35.4375 25.984375 34.917969 24.964844 34.632812 24.472656 C 34.007812 24.839844 32.597656 25.730469 31.429688 26.871094 L 31.160156 27.132812 C 30.730469 27.542969 30.285156 27.96875 29.953125 28.519531 C 29.777344 28.8125 29.636719 29.117188 29.519531 29.417969 Z M 28.894531 31.15625 C 28.523438 30.914062 28.105469 30.796875 27.691406 30.796875 C 26.976562 30.796875 26.277344 31.144531 25.859375 31.785156 C 25.195312 32.792969 25.476562 34.15625 26.484375 34.820312 C 26.90625 35.09375 27.394531 35.207031 27.886719 35.160156 C 28.300781 34.527344 28.9375 34.070312 29.679688 33.886719 C 30.117188 32.921875 29.804688 31.753906 28.894531 31.15625 Z M 24.054688 9.183594 L 24.054688 2.707031 L 20.179688 2.707031 L 20.179688 9.183594 C 20.179688 10.484375 19.5625 11.664062 18.527344 12.335938 C 16.976562 13.347656 15.949219 14.925781 15.628906 16.699219 L 18.941406 16.699219 C 19.144531 16.699219 19.316406 16.859375 19.335938 17.0625 L 20.191406 27.320312 C 20.195312 30.121094 18.164062 32.429688 15.511719 32.867188 L 15.511719 37.863281 C 15.605469 38.617188 15.996094 39.304688 16.632812 39.738281 L 19.371094 41.597656 L 24.519531 41.597656 C 24.3125 41.15625 24.203125 40.675781 24.230469 40.171875 C 24.234375 40.046875 24.261719 39.921875 24.285156 39.800781 C 24.191406 39.75 24.09375 39.703125 24.003906 39.640625 C 23.339844 39.203125 22.882812 38.535156 22.71875 37.753906 C 22.664062 37.484375 22.660156 37.210938 22.679688 36.941406 C 22.191406 36.90625 21.707031 36.757812 21.273438 36.46875 C 20.605469 36.03125 20.148438 35.363281 19.988281 34.582031 C 19.828125 33.800781 19.980469 33.003906 20.417969 32.335938 C 20.851562 31.675781 21.515625 31.222656 22.292969 31.058594 L 22.292969 23.320312 C 22.292969 23.101562 22.46875 22.925781 22.6875 22.925781 L 28.726562 22.925781 L 28.726562 17.875 C 28.726562 15.636719 27.597656 13.566406 25.710938 12.335938 C 24.675781 11.664062 24.054688 10.484375 24.054688 9.183594 Z M 24.054688 9.183594 " fill-opacity="1" fill-rule="nonzero"/></g></svg>