<svg xmlns="http://www.w3.org/2000/svg" xmlns:xlink="http://www.w3.org/1999/xlink" width="66" zoomAndPan="magnify" viewBox="0 0 49.5 49.499998" height="66" preserveAspectRatio="xMidYMid meet" version="1.0"><defs><clipPath id="e72ce17be5"><path d="M 31 21 L 40.671875 21 L 40.671875 37 L 31 37 Z M 31 21 " clip-rule="nonzero"/></clipPath><clipPath id="915fabdaf6"><path d="M 21 36 L 28 36 L 28 47.074219 L 21 47.074219 Z M 21 36 " clip-rule="nonzero"/></clipPath><clipPath id="a1a46fbb50"><path d="M 23 1.78125 L 26 1.78125 L 26 7 L 23 7 Z M 23 1.78125 " clip-rule="nonzero"/></clipPath><clipPath id="21c2ed947a"><path d="M 31 26 L 40.671875 26 L 40.671875 33 L 31 33 Z M 31 26 " clip-rule="nonzero"/></clipPath></defs><path fill="#bbab99" d="M 12.699219 36.214844 C 10.375 36.214844 8.023438 34.644531 8.023438 31.636719 L 8.023438 22.421875 C 8.023438 22.015625 8.351562 21.679688 8.765625 21.679688 L 16.632812 21.679688 C 17.035156 21.679688 17.375 22.003906 17.375 22.421875 L 17.375 31.636719 C 17.375 34.632812 15.023438 36.214844 12.699219 36.214844 Z M 9.507812 23.164062 L 9.507812 31.636719 C 9.507812 33.777344 11.109375 34.730469 12.699219 34.730469 C 14.289062 34.730469 15.890625 33.777344 15.890625 31.636719 L 15.890625 23.164062 Z M 9.507812 23.164062 " fill-opacity="1" fill-rule="nonzero"/><g clip-path="url(#e72ce17be5)"><path fill="#bbab99" d="M 36.296875 36.214844 C 33.972656 36.214844 31.621094 34.644531 31.621094 31.636719 L 31.621094 22.421875 C 31.621094 22.015625 31.949219 21.679688 32.363281 21.679688 L 40.230469 21.679688 C 40.636719 21.679688 40.972656 22.003906 40.972656 22.421875 L 40.972656 31.636719 C 40.972656 34.632812 38.621094 36.214844 36.296875 36.214844 Z M 33.105469 23.164062 L 33.105469 31.636719 C 33.105469 33.777344 34.707031 34.730469 36.296875 34.730469 C 37.886719 34.730469 39.488281 33.777344 39.488281 31.636719 L 39.488281 23.164062 Z M 33.105469 23.164062 " fill-opacity="1" fill-rule="nonzero"/></g><path fill="#bbab99" d="M 28.429688 32.050781 C 26.910156 32.050781 25.375 31.375 24.5 30.066406 C 23.621094 31.375 22.089844 32.050781 20.566406 32.050781 C 18.242188 32.050781 15.890625 30.480469 15.890625 27.472656 C 15.890625 27.066406 16.21875 26.730469 16.632812 26.730469 C 17.046875 26.730469 17.375 27.058594 17.375 27.472656 C 17.375 29.613281 18.972656 30.566406 20.566406 30.566406 C 22.15625 30.566406 23.757812 29.613281 23.757812 27.472656 C 23.757812 27.066406 24.082031 26.730469 24.5 26.730469 C 24.902344 26.730469 25.242188 27.058594 25.242188 27.472656 C 25.242188 29.613281 26.839844 30.566406 28.429688 30.566406 C 30.023438 30.566406 31.621094 29.613281 31.621094 27.472656 C 31.621094 27.066406 31.949219 26.730469 32.363281 26.730469 C 32.777344 26.730469 33.105469 27.058594 33.105469 27.472656 C 33.105469 30.46875 30.753906 32.050781 28.429688 32.050781 Z M 28.429688 32.050781 " fill-opacity="1" fill-rule="nonzero"/><path fill="#bbab99" d="M 24.5 37.738281 C 24.09375 37.738281 23.757812 37.410156 23.757812 36.996094 L 23.757812 24.792969 C 23.757812 24.386719 24.082031 24.050781 24.5 24.050781 C 24.902344 24.050781 25.242188 24.378906 25.242188 24.792969 L 25.242188 36.996094 C 25.242188 37.402344 24.902344 37.738281 24.5 37.738281 Z M 24.5 20.789062 C 24.09375 20.789062 23.757812 20.464844 23.757812 20.046875 L 23.757812 15.710938 C 23.757812 15.304688 24.082031 14.96875 24.5 14.96875 C 24.902344 14.96875 25.242188 15.296875 25.242188 15.710938 L 25.242188 20.046875 C 25.242188 20.453125 24.902344 20.789062 24.5 20.789062 Z M 24.5 20.789062 " fill-opacity="1" fill-rule="nonzero"/><path fill="#bbab99" d="M 14.898438 23.164062 L 10.5 23.164062 C 10.097656 23.164062 9.757812 22.835938 9.757812 22.421875 L 9.757812 15.132812 C 9.757812 14.941406 9.835938 14.746094 9.96875 14.613281 L 12.167969 12.414062 C 12.457031 12.125 12.929688 12.125 13.21875 12.414062 L 15.417969 14.613281 C 15.550781 14.746094 15.628906 14.941406 15.628906 15.132812 L 15.628906 22.421875 C 15.640625 22.824219 15.300781 23.164062 14.898438 23.164062 Z M 11.242188 21.679688 L 14.15625 21.679688 L 14.15625 15.441406 L 12.699219 13.984375 L 11.242188 15.441406 Z M 11.242188 21.679688 " fill-opacity="1" fill-rule="nonzero"/><path fill="#bbab99" d="M 38.496094 23.164062 L 34.101562 23.164062 C 33.695312 23.164062 33.359375 22.835938 33.359375 22.421875 L 33.359375 15.132812 C 33.359375 14.941406 33.433594 14.746094 33.570312 14.613281 L 35.765625 12.414062 C 36.058594 12.125 36.527344 12.125 36.816406 12.414062 L 39.015625 14.613281 C 39.152344 14.746094 39.226562 14.941406 39.226562 15.132812 L 39.226562 22.421875 C 39.238281 22.824219 38.902344 23.164062 38.496094 23.164062 Z M 34.84375 21.679688 L 37.753906 21.679688 L 37.753906 15.441406 L 36.296875 13.984375 L 34.84375 15.441406 Z M 34.84375 21.679688 " fill-opacity="1" fill-rule="nonzero"/><path fill="#bbab99" d="M 26.695312 16.453125 L 22.300781 16.453125 C 21.894531 16.453125 21.558594 16.125 21.558594 15.710938 L 21.558594 8.421875 C 21.558594 8.230469 21.636719 8.039062 21.769531 7.902344 L 23.96875 5.703125 C 24.257812 5.414062 24.730469 5.414062 25.019531 5.703125 L 27.214844 7.902344 C 27.351562 8.039062 27.429688 8.230469 27.429688 8.421875 L 27.429688 15.710938 C 27.4375 16.117188 27.101562 16.453125 26.695312 16.453125 Z M 23.042969 14.96875 L 25.953125 14.96875 L 25.953125 8.730469 L 24.5 7.277344 L 23.042969 8.730469 Z M 23.042969 14.96875 " fill-opacity="1" fill-rule="nonzero"/><g clip-path="url(#915fabdaf6)"><path fill="#bbab99" d="M 24.5 47.222656 C 24.304688 47.222656 24.121094 47.15625 23.976562 47.011719 L 21.78125 44.8125 C 21.644531 44.679688 21.566406 44.484375 21.566406 44.292969 L 21.566406 37.003906 C 21.566406 36.601562 21.894531 36.261719 22.308594 36.261719 L 26.707031 36.261719 C 27.109375 36.261719 27.449219 36.589844 27.449219 37.003906 L 27.449219 44.292969 C 27.449219 44.484375 27.371094 44.679688 27.234375 44.8125 L 25.039062 47.011719 C 24.875 47.148438 24.691406 47.222656 24.5 47.222656 Z M 23.042969 43.976562 L 24.5 45.429688 L 25.953125 43.976562 L 25.953125 37.738281 L 23.042969 37.738281 Z M 23.042969 43.976562 " fill-opacity="1" fill-rule="nonzero"/></g><path fill="#bbab99" d="M 24.5 25.535156 C 22.78125 25.535156 21.382812 24.136719 21.382812 22.421875 C 21.382812 20.703125 22.78125 19.304688 24.5 19.304688 C 26.214844 19.304688 27.613281 20.703125 27.613281 22.421875 C 27.613281 24.136719 26.214844 25.535156 24.5 25.535156 Z M 24.5 20.789062 C 23.601562 20.789062 22.867188 21.523438 22.867188 22.421875 C 22.867188 23.316406 23.601562 24.050781 24.5 24.050781 C 25.394531 24.050781 26.128906 23.316406 26.128906 22.421875 C 26.128906 21.523438 25.394531 20.789062 24.5 20.789062 Z M 24.5 20.789062 " fill-opacity="1" fill-rule="nonzero"/><path fill="#bbab99" d="M 12.699219 13.675781 C 12.292969 13.675781 11.957031 13.347656 11.957031 12.933594 L 11.957031 9.234375 C 11.957031 8.828125 12.285156 8.492188 12.699219 8.492188 C 13.113281 8.492188 13.441406 8.816406 13.441406 9.234375 L 13.441406 12.933594 C 13.441406 13.339844 13.105469 13.675781 12.699219 13.675781 Z M 12.699219 13.675781 " fill-opacity="1" fill-rule="nonzero"/><g clip-path="url(#a1a46fbb50)"><path fill="#bbab99" d="M 24.5 6.96875 C 24.09375 6.96875 23.757812 6.640625 23.757812 6.226562 L 23.757812 2.523438 C 23.757812 2.117188 24.082031 1.78125 24.5 1.78125 C 24.902344 1.78125 25.242188 2.109375 25.242188 2.523438 L 25.242188 6.226562 C 25.242188 6.628906 24.902344 6.96875 24.5 6.96875 Z M 24.5 6.96875 " fill-opacity="1" fill-rule="nonzero"/></g><path fill="#bbab99" d="M 36.296875 13.675781 C 35.894531 13.675781 35.554688 13.347656 35.554688 12.933594 L 35.554688 9.234375 C 35.554688 8.828125 35.882812 8.492188 36.296875 8.492188 C 36.710938 8.492188 37.039062 8.816406 37.039062 9.234375 L 37.039062 12.933594 C 37.039062 13.339844 36.703125 13.675781 36.296875 13.675781 Z M 36.296875 13.675781 " fill-opacity="1" fill-rule="nonzero"/><path fill="#bbab99" d="M 16.632812 32.367188 C 16.507812 32.367188 16.371094 32.339844 16.257812 32.261719 L 8.390625 27.65625 C 8.03125 27.453125 7.917969 27 8.128906 26.640625 C 8.332031 26.285156 8.785156 26.171875 9.140625 26.382812 L 17.007812 30.988281 C 17.363281 31.191406 17.480469 31.644531 17.269531 32.003906 C 17.132812 32.242188 16.882812 32.367188 16.632812 32.367188 Z M 16.632812 32.367188 " fill-opacity="1" fill-rule="nonzero"/><g clip-path="url(#21c2ed947a)"><path fill="#bbab99" d="M 40.230469 32.367188 C 40.105469 32.367188 39.96875 32.339844 39.855469 32.261719 L 31.988281 27.65625 C 31.632812 27.453125 31.515625 27 31.726562 26.640625 C 31.929688 26.285156 32.382812 26.171875 32.742188 26.382812 L 40.605469 30.988281 C 40.964844 31.191406 41.078125 31.644531 40.867188 32.003906 C 40.730469 32.242188 40.480469 32.367188 40.230469 32.367188 Z M 40.230469 32.367188 " fill-opacity="1" fill-rule="nonzero"/></g></svg>