<svg xmlns="http://www.w3.org/2000/svg" xmlns:xlink="http://www.w3.org/1999/xlink" width="66" zoomAndPan="magnify" viewBox="0 0 49.5 49.499998" height="66" preserveAspectRatio="xMidYMid meet" version="1.0"><defs><clipPath id="8f9d9f31f1"><path d="M 2.1875 35 L 7 35 L 7 39 L 2.1875 39 Z M 2.1875 35 " clip-rule="nonzero"/></clipPath><clipPath id="7a89ec2b22"><path d="M 19 42 L 24 42 L 24 46.617188 L 19 46.617188 Z M 19 42 " clip-rule="nonzero"/></clipPath><clipPath id="43788d6198"><path d="M 25 2.066406 L 46.738281 2.066406 L 46.738281 14 L 25 14 Z M 25 2.066406 " clip-rule="nonzero"/></clipPath></defs><path fill="#bbab99" d="M 36.734375 30.507812 C 36.523438 30.507812 36.3125 30.464844 36.113281 30.371094 L 7.765625 17.3125 C 7.335938 17.113281 7.027344 16.722656 6.933594 16.261719 C 6.839844 15.796875 6.96875 15.316406 7.289062 14.964844 C 10.664062 11.246094 15.484375 9.113281 20.515625 9.113281 C 23.097656 9.113281 25.605469 9.664062 27.972656 10.753906 C 35.085938 14.03125 39.199219 21.449219 38.207031 29.210938 C 38.148438 29.679688 37.867188 30.09375 37.453125 30.324219 C 37.230469 30.445312 36.984375 30.507812 36.734375 30.507812 Z M 10.984375 15.527344 L 35.382812 26.769531 C 35.324219 21.078125 32.023438 15.886719 26.730469 13.449219 C 21.554688 11.0625 15.273438 11.957031 10.984375 15.527344 Z M 10.984375 15.527344 " fill-opacity="1" fill-rule="nonzero"/><path fill="#bbab99" d="M 33.695312 35.40625 C 33.488281 35.40625 33.277344 35.363281 33.074219 35.269531 L 4.726562 22.207031 C 3.980469 21.863281 3.65625 20.984375 4 20.238281 C 4.339844 19.496094 5.21875 19.167969 5.96875 19.511719 L 34.316406 32.574219 C 35.0625 32.917969 35.386719 33.800781 35.042969 34.542969 C 34.792969 35.085938 34.257812 35.40625 33.695312 35.40625 Z M 33.695312 35.40625 " fill-opacity="1" fill-rule="nonzero"/><path fill="#bbab99" d="M 10.457031 28.132812 C 10.03125 29.058594 8.941406 29.460938 8.019531 29.035156 C 7.097656 28.609375 6.695312 27.515625 7.117188 26.59375 C 7.542969 25.671875 8.636719 25.265625 9.558594 25.695312 C 10.480469 26.117188 10.882812 27.210938 10.457031 28.132812 Z M 10.457031 28.132812 " fill-opacity="1" fill-rule="nonzero"/><path fill="#bbab99" d="M 8.261719 32.90625 C 7.832031 33.828125 6.742188 34.230469 5.820312 33.808594 C 4.898438 33.382812 4.492188 32.289062 4.917969 31.367188 C 5.34375 30.445312 6.4375 30.042969 7.355469 30.464844 C 8.28125 30.890625 8.683594 31.984375 8.261719 32.90625 Z M 8.261719 32.90625 " fill-opacity="1" fill-rule="nonzero"/><g clip-path="url(#8f9d9f31f1)"><path fill="#bbab99" d="M 6.058594 37.679688 C 5.636719 38.601562 4.542969 39.007812 3.621094 38.582031 C 2.695312 38.15625 2.292969 37.0625 2.71875 36.140625 C 3.144531 35.21875 4.234375 34.816406 5.160156 35.242188 C 6.082031 35.667969 6.484375 36.757812 6.058594 37.679688 Z M 6.058594 37.679688 " fill-opacity="1" fill-rule="nonzero"/></g><path fill="#bbab99" d="M 16.183594 30.773438 C 15.761719 31.695312 14.667969 32.097656 13.746094 31.675781 C 12.824219 31.25 12.421875 30.15625 12.847656 29.234375 C 13.269531 28.3125 14.363281 27.90625 15.285156 28.332031 C 16.207031 28.757812 16.609375 29.851562 16.183594 30.773438 Z M 16.183594 30.773438 " fill-opacity="1" fill-rule="nonzero"/><path fill="#bbab99" d="M 13.988281 35.546875 C 13.5625 36.46875 12.46875 36.871094 11.546875 36.449219 C 10.625 36.019531 10.222656 34.929688 10.648438 34.007812 C 11.074219 33.085938 12.164062 32.679688 13.085938 33.105469 C 14.011719 33.53125 14.414062 34.625 13.988281 35.546875 Z M 13.988281 35.546875 " fill-opacity="1" fill-rule="nonzero"/><path fill="#bbab99" d="M 11.789062 40.320312 C 11.363281 41.242188 10.269531 41.644531 9.347656 41.21875 C 8.425781 40.796875 8.023438 39.703125 8.445312 38.78125 C 8.871094 37.855469 9.964844 37.453125 10.886719 37.882812 C 11.808594 38.304688 12.210938 39.394531 11.789062 40.320312 Z M 11.789062 40.320312 " fill-opacity="1" fill-rule="nonzero"/><path fill="#bbab99" d="M 21.914062 33.410156 C 21.492188 34.332031 20.394531 34.738281 19.472656 34.3125 C 18.554688 33.886719 18.148438 32.796875 18.574219 31.871094 C 19 30.949219 20.089844 30.546875 21.011719 30.972656 C 21.933594 31.398438 22.339844 32.488281 21.914062 33.410156 Z M 21.914062 33.410156 " fill-opacity="1" fill-rule="nonzero"/><path fill="#bbab99" d="M 19.714844 38.1875 C 19.289062 39.109375 18.199219 39.511719 17.273438 39.085938 C 16.351562 38.660156 15.949219 37.570312 16.375 36.648438 C 16.800781 35.722656 17.890625 35.320312 18.8125 35.746094 C 19.738281 36.167969 20.140625 37.261719 19.714844 38.1875 Z M 19.714844 38.1875 " fill-opacity="1" fill-rule="nonzero"/><path fill="#bbab99" d="M 17.515625 42.957031 C 17.089844 43.882812 16 44.285156 15.078125 43.859375 C 14.152344 43.4375 13.75 42.339844 14.175781 41.421875 C 14.597656 40.496094 15.691406 40.09375 16.617188 40.519531 C 17.539062 40.945312 17.941406 42.035156 17.515625 42.957031 Z M 17.515625 42.957031 " fill-opacity="1" fill-rule="nonzero"/><path fill="#bbab99" d="M 27.640625 36.050781 C 27.21875 36.972656 26.125 37.378906 25.203125 36.953125 C 24.277344 36.527344 23.878906 35.433594 24.300781 34.511719 C 24.726562 33.589844 25.820312 33.183594 26.742188 33.609375 C 27.664062 34.035156 28.066406 35.128906 27.640625 36.050781 Z M 27.640625 36.050781 " fill-opacity="1" fill-rule="nonzero"/><path fill="#bbab99" d="M 25.445312 40.828125 C 25.019531 41.746094 23.925781 42.152344 23 41.722656 C 22.082031 41.300781 21.675781 40.207031 22.101562 39.285156 C 22.527344 38.363281 23.621094 37.960938 24.539062 38.386719 C 25.464844 38.808594 25.871094 39.902344 25.445312 40.828125 Z M 25.445312 40.828125 " fill-opacity="1" fill-rule="nonzero"/><g clip-path="url(#7a89ec2b22)"><path fill="#bbab99" d="M 23.242188 45.597656 C 22.820312 46.519531 21.726562 46.921875 20.804688 46.5 C 19.878906 46.074219 19.476562 44.980469 19.902344 44.058594 C 20.328125 43.136719 21.417969 42.734375 22.34375 43.160156 C 23.265625 43.585938 23.667969 44.675781 23.242188 45.597656 Z M 23.242188 45.597656 " fill-opacity="1" fill-rule="nonzero"/></g><g clip-path="url(#43788d6198)"><path fill="#bbab99" d="M 27.457031 13.460938 C 26.636719 13.460938 25.972656 12.796875 25.972656 11.976562 L 25.972656 6.28125 C 26.027344 4.316406 26.828125 3.34375 27.496094 2.871094 C 28.621094 2.066406 29.925781 2.222656 30.488281 2.347656 L 45.222656 2.347656 C 46.042969 2.347656 46.707031 3.011719 46.707031 3.832031 C 46.707031 4.652344 46.042969 5.3125 45.222656 5.3125 L 30.308594 5.3125 C 30.160156 5.3125 30.007812 5.289062 29.867188 5.246094 C 29.699219 5.199219 29.355469 5.183594 29.214844 5.289062 C 29.097656 5.375 28.957031 5.695312 28.941406 6.320312 L 28.941406 11.976562 C 28.941406 12.796875 28.277344 13.460938 27.457031 13.460938 Z M 27.457031 13.460938 " fill-opacity="1" fill-rule="nonzero"/></g></svg>