<svg xmlns="http://www.w3.org/2000/svg" xmlns:xlink="http://www.w3.org/1999/xlink" width="66" zoomAndPan="magnify" viewBox="0 0 49.5 49.499998" height="66" preserveAspectRatio="xMidYMid meet" version="1.0"><defs><clipPath id="b2c39e59ee"><path d="M 3 26 L 46.664062 26 L 46.664062 42 L 3 42 Z M 3 26 " clip-rule="nonzero"/></clipPath><clipPath id="701fd8fef6"><path d="M 4 41 L 11 41 L 11 47.847656 L 4 47.847656 Z M 4 41 " clip-rule="nonzero"/></clipPath><clipPath id="0a8f5d4eb2"><path d="M 37 41 L 44 41 L 44 47.847656 L 37 47.847656 Z M 37 41 " clip-rule="nonzero"/></clipPath><clipPath id="6d7ff02076"><path d="M 2.113281 43 L 7 43 L 7 45 L 2.113281 45 Z M 2.113281 43 " clip-rule="nonzero"/></clipPath><clipPath id="371d05fc4f"><path d="M 41 43 L 46.664062 43 L 46.664062 45 L 41 45 Z M 41 43 " clip-rule="nonzero"/></clipPath><clipPath id="9665cb516e"><path d="M 17 1.070312 L 40 1.070312 L 40 16 L 17 16 Z M 17 1.070312 " clip-rule="nonzero"/></clipPath><clipPath id="5b4eaa7510"><path d="M 33 1.070312 L 40 1.070312 L 40 7 L 33 7 Z M 33 1.070312 " clip-rule="nonzero"/></clipPath></defs><g clip-path="url(#b2c39e59ee)"><path fill="#bbab99" d="M 41.777344 41.667969 L 7.914062 41.667969 C 5.480469 41.667969 3.503906 39.6875 3.503906 37.253906 L 3.503906 30.585938 C 3.503906 28.121094 5.511719 26.117188 7.972656 26.117188 C 10.433594 26.117188 12.441406 28.125 12.441406 30.585938 L 12.441406 33.3125 C 12.441406 33.949219 12.960938 34.46875 13.597656 34.46875 L 36.097656 34.46875 C 36.734375 34.46875 37.253906 33.949219 37.253906 33.3125 L 37.253906 30.585938 C 37.253906 28.121094 39.257812 26.117188 41.722656 26.117188 C 44.1875 26.117188 46.191406 28.125 46.191406 30.585938 L 46.191406 37.253906 C 46.1875 39.683594 44.210938 41.667969 41.777344 41.667969 Z M 7.972656 27.054688 C 6.023438 27.054688 4.441406 28.640625 4.441406 30.585938 L 4.441406 37.253906 C 4.441406 39.171875 6 40.730469 7.914062 40.730469 L 41.777344 40.730469 C 43.691406 40.730469 45.25 39.171875 45.25 37.253906 L 45.25 30.585938 C 45.25 28.640625 43.667969 27.054688 41.71875 27.054688 C 39.769531 27.054688 38.1875 28.640625 38.1875 30.585938 L 38.1875 33.3125 C 38.1875 34.464844 37.25 35.402344 36.097656 35.402344 L 13.597656 35.402344 C 12.445312 35.402344 11.503906 34.464844 11.503906 33.3125 L 11.503906 30.585938 C 11.503906 28.640625 9.921875 27.054688 7.972656 27.054688 Z M 7.972656 27.054688 " fill-opacity="1" fill-rule="nonzero"/></g><g clip-path="url(#701fd8fef6)"><path fill="#bbab99" d="M 6.4375 47.925781 C 5.886719 47.925781 5.378906 47.652344 5.074219 47.191406 C 4.777344 46.730469 4.726562 46.152344 4.949219 45.648438 L 6.832031 41.355469 C 6.9375 41.121094 7.214844 41.011719 7.445312 41.117188 C 7.683594 41.21875 7.792969 41.496094 7.6875 41.730469 L 5.804688 46.027344 C 5.710938 46.242188 5.734375 46.476562 5.859375 46.675781 C 5.988281 46.871094 6.199219 46.984375 6.4375 46.984375 C 6.679688 46.984375 6.910156 46.855469 7.03125 46.644531 L 10.097656 41.308594 C 10.226562 41.085938 10.515625 41.007812 10.738281 41.136719 C 10.960938 41.265625 11.039062 41.554688 10.910156 41.777344 L 7.839844 47.109375 C 7.554688 47.617188 7.011719 47.925781 6.4375 47.925781 Z M 6.4375 47.925781 " fill-opacity="1" fill-rule="nonzero"/></g><g clip-path="url(#0a8f5d4eb2)"><path fill="#bbab99" d="M 42.050781 47.925781 C 41.46875 47.925781 40.929688 47.613281 40.640625 47.113281 L 37.574219 41.78125 C 37.445312 41.554688 37.523438 41.269531 37.746094 41.140625 C 37.96875 41.011719 38.257812 41.089844 38.382812 41.3125 L 41.453125 46.644531 C 41.574219 46.859375 41.800781 46.988281 42.046875 46.988281 C 42.285156 46.988281 42.492188 46.875 42.621094 46.679688 C 42.75 46.480469 42.773438 46.246094 42.675781 46.03125 L 40.796875 41.734375 C 40.691406 41.5 40.796875 41.222656 41.035156 41.121094 C 41.273438 41.011719 41.550781 41.121094 41.652344 41.359375 L 43.535156 45.652344 C 43.753906 46.15625 43.707031 46.734375 43.40625 47.195312 C 43.109375 47.652344 42.601562 47.925781 42.050781 47.925781 Z M 42.050781 47.925781 " fill-opacity="1" fill-rule="nonzero"/></g><path fill="#bbab99" d="M 23.726562 35.402344 C 23.464844 35.402344 23.257812 35.191406 23.257812 34.9375 C 23.257812 34.675781 23.46875 34.46875 23.726562 34.46875 C 24.085938 34.46875 24.378906 34.175781 24.378906 33.816406 L 24.378906 31.34375 C 24.378906 30.980469 24.085938 30.6875 23.726562 30.6875 L 13.09375 30.6875 C 12.734375 30.6875 12.441406 30.980469 12.441406 31.34375 L 12.441406 31.457031 C 12.441406 31.71875 12.230469 31.925781 11.972656 31.925781 C 11.714844 31.925781 11.507812 31.714844 11.507812 31.457031 L 11.507812 31.34375 C 11.507812 30.464844 12.222656 29.75 13.097656 29.75 L 23.730469 29.75 C 24.605469 29.75 25.320312 30.464844 25.320312 31.34375 L 25.320312 33.816406 C 25.316406 34.691406 24.601562 35.402344 23.726562 35.402344 Z M 23.726562 35.402344 " fill-opacity="1" fill-rule="nonzero"/><path fill="#bbab99" d="M 25.96875 35.402344 C 25.09375 35.402344 24.378906 34.691406 24.378906 33.8125 L 24.378906 31.339844 C 24.378906 30.464844 25.089844 29.746094 25.96875 29.746094 L 36.601562 29.746094 C 37.476562 29.746094 38.191406 30.464844 38.191406 31.339844 L 38.191406 31.457031 C 38.191406 31.714844 37.980469 31.921875 37.722656 31.921875 C 37.46875 31.921875 37.257812 31.710938 37.257812 31.457031 L 37.257812 31.339844 C 37.257812 30.976562 36.964844 30.683594 36.601562 30.683594 L 25.972656 30.683594 C 25.613281 30.683594 25.320312 30.976562 25.320312 31.339844 L 25.320312 33.8125 C 25.320312 34.171875 25.613281 34.464844 25.972656 34.464844 C 26.230469 34.464844 26.441406 34.675781 26.441406 34.933594 C 26.4375 35.195312 26.226562 35.402344 25.96875 35.402344 Z M 25.96875 35.402344 " fill-opacity="1" fill-rule="nonzero"/><path fill="#bbab99" d="M 7.800781 26.707031 C 7.542969 26.707031 7.335938 26.492188 7.335938 26.238281 L 7.335938 21.074219 C 7.335938 19.058594 8.976562 17.417969 10.992188 17.417969 L 21.660156 17.417969 C 23.648438 17.417969 25.269531 19.007812 25.316406 20.984375 C 25.316406 20.996094 25.316406 21.007812 25.316406 21.019531 L 25.316406 21.074219 L 24.378906 21.074219 C 24.378906 19.578125 23.15625 18.355469 21.65625 18.355469 L 10.988281 18.355469 C 9.488281 18.355469 8.269531 19.578125 8.269531 21.074219 L 8.269531 26.238281 C 8.269531 26.496094 8.058594 26.707031 7.800781 26.707031 Z M 7.800781 26.707031 " fill-opacity="1" fill-rule="nonzero"/><path fill="#bbab99" d="M 41.894531 27.054688 C 41.632812 27.054688 41.425781 26.84375 41.425781 26.589844 L 41.425781 21.078125 C 41.425781 19.582031 40.203125 18.359375 38.703125 18.359375 L 28.039062 18.359375 C 26.539062 18.359375 25.316406 19.582031 25.316406 21.078125 L 25.316406 21.367188 C 25.316406 21.628906 25.105469 21.835938 24.847656 21.835938 C 24.59375 21.835938 24.382812 21.625 24.382812 21.367188 L 24.382812 21.078125 C 24.382812 19.0625 26.023438 17.421875 28.042969 17.421875 L 38.707031 17.421875 C 40.726562 17.421875 42.367188 19.0625 42.367188 21.078125 L 42.367188 26.589844 C 42.363281 26.84375 42.152344 27.054688 41.894531 27.054688 Z M 41.894531 27.054688 " fill-opacity="1" fill-rule="nonzero"/><path fill="#bbab99" d="M 14.0625 23.574219 C 14 23.574219 13.941406 23.5625 13.882812 23.539062 C 13.824219 23.515625 13.773438 23.484375 13.730469 23.441406 C 13.6875 23.394531 13.652344 23.339844 13.628906 23.285156 C 13.605469 23.230469 13.59375 23.171875 13.59375 23.109375 C 13.59375 22.984375 13.644531 22.863281 13.734375 22.773438 C 13.753906 22.753906 13.78125 22.734375 13.804688 22.71875 C 13.832031 22.699219 13.859375 22.683594 13.886719 22.675781 C 13.914062 22.664062 13.941406 22.65625 13.972656 22.648438 C 14.125 22.617188 14.289062 22.667969 14.398438 22.773438 C 14.484375 22.859375 14.535156 22.980469 14.535156 23.109375 C 14.535156 23.171875 14.523438 23.230469 14.503906 23.285156 C 14.476562 23.339844 14.445312 23.394531 14.402344 23.441406 C 14.300781 23.527344 14.183594 23.574219 14.0625 23.574219 Z M 14.0625 23.574219 " fill-opacity="1" fill-rule="nonzero"/><path fill="#bbab99" d="M 18.933594 23.574219 C 18.871094 23.574219 18.8125 23.5625 18.753906 23.539062 C 18.695312 23.515625 18.644531 23.484375 18.601562 23.441406 C 18.554688 23.394531 18.523438 23.339844 18.496094 23.285156 C 18.476562 23.230469 18.464844 23.171875 18.464844 23.109375 C 18.464844 23.074219 18.46875 23.046875 18.476562 23.011719 C 18.484375 22.984375 18.488281 22.953125 18.5 22.925781 C 18.511719 22.898438 18.53125 22.871094 18.546875 22.84375 C 18.5625 22.820312 18.582031 22.792969 18.601562 22.777344 C 18.710938 22.667969 18.875 22.617188 19.027344 22.644531 C 19.058594 22.652344 19.085938 22.660156 19.113281 22.675781 C 19.144531 22.6875 19.167969 22.699219 19.195312 22.71875 C 19.21875 22.734375 19.246094 22.753906 19.265625 22.777344 C 19.289062 22.792969 19.308594 22.820312 19.324219 22.84375 C 19.339844 22.871094 19.359375 22.898438 19.367188 22.925781 C 19.375 22.953125 19.386719 22.984375 19.394531 23.011719 C 19.402344 23.046875 19.40625 23.074219 19.40625 23.109375 C 19.40625 23.171875 19.394531 23.230469 19.375 23.285156 C 19.347656 23.339844 19.316406 23.394531 19.269531 23.441406 C 19.171875 23.527344 19.054688 23.574219 18.933594 23.574219 Z M 18.933594 23.574219 " fill-opacity="1" fill-rule="nonzero"/><path fill="#bbab99" d="M 30.300781 23.472656 C 30.171875 23.472656 30.054688 23.425781 29.96875 23.335938 C 29.875 23.246094 29.824219 23.125 29.824219 23.003906 C 29.824219 22.882812 29.875 22.757812 29.96875 22.671875 C 29.984375 22.648438 30.011719 22.628906 30.035156 22.613281 C 30.0625 22.597656 30.089844 22.578125 30.117188 22.570312 C 30.144531 22.5625 30.175781 22.550781 30.203125 22.542969 C 30.261719 22.53125 30.324219 22.53125 30.390625 22.542969 C 30.417969 22.550781 30.449219 22.558594 30.476562 22.570312 C 30.507812 22.582031 30.53125 22.597656 30.558594 22.613281 C 30.582031 22.628906 30.609375 22.648438 30.628906 22.671875 C 30.71875 22.757812 30.765625 22.878906 30.765625 23.003906 C 30.765625 23.125 30.714844 23.242188 30.628906 23.335938 C 30.539062 23.425781 30.421875 23.472656 30.300781 23.472656 Z M 30.300781 23.472656 " fill-opacity="1" fill-rule="nonzero"/><path fill="#bbab99" d="M 35.167969 23.472656 C 35.109375 23.472656 35.046875 23.460938 34.988281 23.441406 C 34.933594 23.414062 34.878906 23.382812 34.835938 23.339844 C 34.789062 23.292969 34.757812 23.242188 34.734375 23.1875 C 34.710938 23.128906 34.703125 23.066406 34.703125 23.007812 C 34.703125 22.972656 34.703125 22.945312 34.710938 22.914062 C 34.71875 22.882812 34.726562 22.855469 34.738281 22.828125 C 34.753906 22.796875 34.765625 22.773438 34.78125 22.746094 C 34.796875 22.722656 34.816406 22.695312 34.835938 22.675781 C 34.945312 22.566406 35.109375 22.515625 35.261719 22.546875 C 35.289062 22.554688 35.320312 22.5625 35.347656 22.574219 C 35.378906 22.585938 35.402344 22.601562 35.429688 22.621094 C 35.453125 22.632812 35.480469 22.652344 35.496094 22.675781 C 35.519531 22.695312 35.542969 22.722656 35.554688 22.746094 C 35.570312 22.773438 35.589844 22.800781 35.601562 22.828125 C 35.609375 22.851562 35.617188 22.882812 35.625 22.914062 C 35.632812 22.945312 35.636719 22.972656 35.636719 23.007812 C 35.636719 23.066406 35.625 23.125 35.605469 23.1875 C 35.578125 23.242188 35.550781 23.292969 35.5 23.339844 C 35.410156 23.421875 35.292969 23.472656 35.167969 23.472656 Z M 35.167969 23.472656 " fill-opacity="1" fill-rule="nonzero"/><path fill="#bbab99" d="M 24.84375 30.53125 C 24.585938 30.53125 24.378906 30.320312 24.378906 30.066406 L 24.378906 25.542969 C 24.378906 25.28125 24.589844 25.074219 24.84375 25.074219 C 25.101562 25.074219 25.3125 25.285156 25.3125 25.542969 L 25.3125 30.066406 C 25.316406 30.324219 25.105469 30.53125 24.84375 30.53125 Z M 24.84375 30.53125 " fill-opacity="1" fill-rule="nonzero"/><g clip-path="url(#6d7ff02076)"><path fill="#bbab99" d="M 6.0625 44.101562 L 2.582031 44.101562 C 2.320312 44.101562 2.113281 43.886719 2.113281 43.632812 C 2.113281 43.378906 2.324219 43.164062 2.582031 43.164062 L 6.0625 43.164062 C 6.320312 43.164062 6.527344 43.378906 6.527344 43.632812 C 6.527344 43.886719 6.320312 44.101562 6.0625 44.101562 Z M 6.0625 44.101562 " fill-opacity="1" fill-rule="nonzero"/></g><path fill="#bbab99" d="M 38.761719 44.101562 L 9.542969 44.101562 C 9.28125 44.101562 9.074219 43.886719 9.074219 43.632812 C 9.074219 43.378906 9.285156 43.164062 9.542969 43.164062 L 38.761719 43.164062 C 39.023438 43.164062 39.230469 43.378906 39.230469 43.632812 C 39.230469 43.886719 39.023438 44.101562 38.761719 44.101562 Z M 38.761719 44.101562 " fill-opacity="1" fill-rule="nonzero"/><g clip-path="url(#371d05fc4f)"><path fill="#bbab99" d="M 46.417969 44.101562 L 42.144531 44.101562 C 41.886719 44.101562 41.679688 43.886719 41.679688 43.632812 C 41.679688 43.378906 41.890625 43.164062 42.144531 43.164062 L 46.417969 43.164062 C 46.675781 43.164062 46.882812 43.378906 46.882812 43.632812 C 46.882812 43.886719 46.675781 44.101562 46.417969 44.101562 Z M 46.417969 44.101562 " fill-opacity="1" fill-rule="nonzero"/></g><g clip-path="url(#9665cb516e)"><path fill="#bbab99" d="M 36.886719 15.574219 L 20.109375 15.574219 C 18.820312 15.574219 17.769531 14.523438 17.769531 13.234375 L 17.769531 3.410156 C 17.769531 2.121094 18.820312 1.070312 20.109375 1.070312 L 36.882812 1.070312 C 38.175781 1.070312 39.226562 2.121094 39.226562 3.410156 L 39.226562 13.230469 C 39.230469 14.519531 38.179688 15.574219 36.886719 15.574219 Z M 20.109375 2.007812 C 19.332031 2.007812 18.703125 2.636719 18.703125 3.414062 L 18.703125 13.234375 C 18.703125 14.007812 19.332031 14.640625 20.109375 14.640625 L 36.882812 14.640625 C 37.660156 14.640625 38.289062 14.007812 38.289062 13.234375 L 38.289062 3.410156 C 38.289062 2.632812 37.65625 2.003906 36.882812 2.003906 L 20.109375 2.003906 Z M 20.109375 2.007812 " fill-opacity="1" fill-rule="nonzero"/></g><path fill="#bbab99" d="M 18.234375 10.160156 C 18.027344 10.160156 17.835938 10.023438 17.78125 9.8125 C 17.71875 9.558594 17.871094 9.304688 18.117188 9.242188 L 24.101562 7.699219 C 25.953125 7.21875 27.933594 7.382812 29.6875 8.160156 L 30.492188 8.519531 C 32.246094 9.300781 34.21875 9.386719 36.035156 8.761719 L 38.605469 7.878906 C 38.851562 7.792969 39.117188 7.925781 39.199219 8.167969 C 39.285156 8.414062 39.152344 8.679688 38.910156 8.761719 L 36.335938 9.644531 C 34.292969 10.347656 32.082031 10.253906 30.109375 9.375 L 29.304688 9.019531 C 27.75 8.324219 25.984375 8.179688 24.335938 8.605469 L 18.351562 10.148438 C 18.316406 10.15625 18.273438 10.160156 18.234375 10.160156 Z M 18.234375 10.160156 " fill-opacity="1" fill-rule="nonzero"/><g clip-path="url(#5b4eaa7510)"><path fill="#bbab99" d="M 37.542969 6.527344 C 35.464844 6.527344 33.773438 4.835938 33.773438 2.753906 C 33.773438 2.28125 33.863281 1.8125 34.039062 1.363281 L 34.15625 1.070312 L 36.886719 1.070312 C 38.179688 1.070312 39.230469 2.121094 39.230469 3.410156 L 39.230469 6.144531 L 38.933594 6.261719 C 38.484375 6.441406 38.019531 6.527344 37.542969 6.527344 Z M 38.761719 5.828125 Z M 34.808594 2.007812 C 34.742188 2.25 34.707031 2.503906 34.707031 2.753906 C 34.707031 4.320312 35.980469 5.59375 37.542969 5.59375 C 37.796875 5.59375 38.046875 5.558594 38.292969 5.492188 L 38.292969 3.410156 C 38.292969 2.632812 37.660156 2.003906 36.886719 2.003906 L 34.808594 2.003906 Z M 34.808594 2.007812 " fill-opacity="1" fill-rule="nonzero"/></g></svg>