<svg xmlns="http://www.w3.org/2000/svg" xmlns:xlink="http://www.w3.org/1999/xlink" width="66" zoomAndPan="magnify" viewBox="0 0 49.5 49.499998" height="66" preserveAspectRatio="xMidYMid meet" version="1.0"><defs><clipPath id="596c58a044"><path d="M 12 23 L 37 23 L 37 47.65625 L 12 47.65625 Z M 12 23 " clip-rule="nonzero"/></clipPath><clipPath id="6170f7377d"><path d="M 31 23 L 47.65625 23 L 47.65625 47.65625 L 31 47.65625 Z M 31 23 " clip-rule="nonzero"/></clipPath><clipPath id="b214d048e0"><path d="M 1.621094 23 L 18 23 L 18 47.65625 L 1.621094 47.65625 Z M 1.621094 23 " clip-rule="nonzero"/></clipPath><clipPath id="113bd6d9e8"><path d="M 1.621094 1.621094 L 47.65625 1.621094 L 47.65625 21 L 1.621094 21 Z M 1.621094 1.621094 " clip-rule="nonzero"/></clipPath></defs><g clip-path="url(#596c58a044)"><path fill="#bbab99" d="M 25.429688 36.039062 L 29.308594 31.050781 C 30.035156 30.957031 30.671875 30.597656 31.128906 30.074219 C 31.671875 30.691406 32.453125 31.09375 33.339844 31.09375 C 34.964844 31.09375 36.285156 29.769531 36.285156 28.144531 L 36.285156 25.933594 C 36.285156 24.714844 35.296875 23.722656 34.078125 23.722656 L 14.917969 23.722656 C 13.699219 23.722656 12.707031 24.714844 12.707031 25.933594 L 12.707031 28.144531 C 12.707031 29.769531 14.03125 31.09375 15.65625 31.09375 C 16.539062 31.09375 17.324219 30.691406 17.867188 30.074219 C 18.324219 30.597656 18.960938 30.957031 19.6875 31.054688 L 23.566406 36.039062 L 18.484375 42.574219 C 18.085938 43.085938 17.867188 43.722656 17.867188 44.371094 C 17.867188 45.988281 19.183594 47.300781 20.828125 47.300781 C 22.445312 47.300781 23.761719 45.988281 23.761719 44.371094 L 23.761719 43.617188 L 22.289062 43.617188 L 22.289062 44.371094 C 22.289062 45.175781 21.632812 45.828125 20.796875 45.828125 C 19.996094 45.828125 19.339844 45.175781 19.339844 44.371094 C 19.339844 44.046875 19.449219 43.730469 19.648438 43.476562 L 24.496094 37.238281 L 29.347656 43.476562 C 29.546875 43.730469 29.65625 44.046875 29.65625 44.371094 C 29.65625 45.175781 29 45.828125 28.167969 45.828125 C 27.363281 45.828125 26.707031 45.175781 26.707031 44.371094 L 26.707031 43.617188 L 25.234375 43.617188 L 25.234375 44.371094 C 25.234375 45.988281 26.550781 47.300781 28.199219 47.300781 C 29.8125 47.300781 31.128906 45.988281 31.128906 44.371094 C 31.128906 43.722656 30.910156 43.085938 30.511719 42.570312 Z M 28.917969 29.617188 C 28.105469 29.617188 27.445312 28.957031 27.445312 28.144531 L 30.390625 28.144531 C 30.390625 28.957031 29.730469 29.617188 28.917969 29.617188 Z M 25.972656 28.144531 C 25.972656 28.957031 25.3125 29.617188 24.496094 29.617188 C 23.683594 29.617188 23.023438 28.957031 23.023438 28.144531 Z M 33.339844 29.617188 C 32.527344 29.617188 31.867188 28.957031 31.867188 28.144531 L 34.8125 28.144531 C 34.8125 28.957031 34.152344 29.617188 33.339844 29.617188 Z M 14.917969 25.199219 L 34.078125 25.199219 C 34.484375 25.199219 34.8125 25.527344 34.8125 25.933594 L 34.8125 26.671875 L 14.183594 26.671875 L 14.183594 25.933594 C 14.183594 25.527344 14.511719 25.199219 14.917969 25.199219 Z M 15.65625 29.617188 C 14.84375 29.617188 14.183594 28.957031 14.183594 28.144531 L 17.128906 28.144531 C 17.128906 28.957031 16.46875 29.617188 15.65625 29.617188 Z M 18.601562 28.144531 L 21.550781 28.144531 C 21.550781 28.957031 20.890625 29.617188 20.078125 29.617188 C 19.265625 29.617188 18.601562 28.957031 18.601562 28.144531 Z M 21.347656 30.792969 C 21.710938 30.617188 22.027344 30.371094 22.289062 30.074219 C 22.828125 30.691406 23.613281 31.09375 24.496094 31.09375 C 25.382812 31.09375 26.167969 30.691406 26.707031 30.074219 C 26.96875 30.371094 27.285156 30.617188 27.644531 30.792969 L 24.496094 34.839844 Z M 21.347656 30.792969 " fill-opacity="1" fill-rule="nonzero"/></g><g clip-path="url(#6170f7377d)"><path fill="#bbab99" d="M 44.390625 23.722656 C 42.765625 23.722656 41.445312 25.046875 41.445312 26.671875 L 41.445312 34.039062 L 32.601562 34.039062 C 31.789062 34.039062 31.128906 34.699219 31.128906 35.511719 L 31.128906 36.25 C 31.128906 37.449219 32.089844 38.421875 33.28125 38.453125 L 32.605469 47.246094 L 34.074219 47.359375 L 34.417969 42.882812 L 39.628906 42.882812 L 39.972656 47.359375 L 41.441406 47.246094 L 40.765625 38.457031 C 41.957031 38.421875 42.917969 37.449219 42.917969 36.25 L 42.917969 26.671875 C 42.917969 25.859375 43.578125 25.199219 44.390625 25.199219 C 45.203125 25.199219 45.867188 25.859375 45.867188 26.671875 C 45.867188 27.484375 45.203125 28.144531 44.390625 28.144531 L 44.390625 29.617188 C 46.015625 29.617188 47.339844 28.296875 47.339844 26.671875 C 47.339844 25.046875 46.015625 23.722656 44.390625 23.722656 Z M 34.53125 41.40625 L 34.757812 38.460938 L 39.289062 38.460938 L 39.515625 41.40625 Z M 40.707031 36.988281 L 33.339844 36.988281 C 32.933594 36.988281 32.601562 36.65625 32.601562 36.25 L 32.601562 35.511719 L 41.445312 35.511719 L 41.445312 36.25 C 41.445312 36.65625 41.113281 36.988281 40.707031 36.988281 Z M 40.707031 36.988281 " fill-opacity="1" fill-rule="nonzero"/></g><g clip-path="url(#b214d048e0)"><path fill="#bbab99" d="M 17.867188 36.25 L 17.867188 35.511719 C 17.867188 34.699219 17.207031 34.039062 16.394531 34.039062 L 7.550781 34.039062 L 7.550781 26.671875 C 7.550781 25.046875 6.230469 23.722656 4.605469 23.722656 C 2.976562 23.722656 1.65625 25.046875 1.65625 26.671875 C 1.65625 28.296875 2.976562 29.617188 4.605469 29.617188 L 4.605469 28.144531 C 3.792969 28.144531 3.128906 27.484375 3.128906 26.671875 C 3.128906 25.859375 3.792969 25.199219 4.605469 25.199219 C 5.417969 25.199219 6.078125 25.859375 6.078125 26.671875 L 6.078125 36.25 C 6.078125 37.449219 7.039062 38.421875 8.230469 38.453125 L 7.554688 47.246094 L 9.023438 47.359375 L 9.367188 42.882812 L 14.578125 42.882812 L 14.921875 47.359375 L 16.390625 47.246094 L 15.714844 38.457031 C 16.90625 38.421875 17.867188 37.449219 17.867188 36.25 Z M 9.480469 41.40625 L 9.707031 38.460938 L 14.238281 38.460938 L 14.464844 41.40625 Z M 16.394531 36.25 C 16.394531 36.65625 16.0625 36.988281 15.65625 36.988281 L 8.289062 36.988281 C 7.882812 36.988281 7.550781 36.65625 7.550781 36.25 L 7.550781 35.511719 L 16.394531 35.511719 Z M 16.394531 36.25 " fill-opacity="1" fill-rule="nonzero"/></g><g clip-path="url(#113bd6d9e8)"><path fill="#bbab99" d="M 1.65625 1.621094 L 1.65625 3.09375 L 8.097656 3.09375 L 6.75 9.832031 C 5.609375 10.144531 4.738281 11.125 4.597656 12.328125 C 3.6875 12.84375 3.105469 13.816406 3.105469 14.882812 C 3.105469 16.507812 4.425781 17.828125 6.050781 17.828125 C 6.167969 17.828125 6.285156 17.804688 6.402344 17.789062 L 6.902344 20.777344 L 12.570312 20.777344 L 13.066406 17.789062 C 13.183594 17.804688 13.300781 17.828125 13.417969 17.828125 C 15.042969 17.828125 16.367188 16.507812 16.367188 14.882812 C 16.367188 13.816406 15.785156 12.84375 14.871094 12.328125 C 14.730469 11.125 13.863281 10.144531 12.71875 9.832031 L 11.371094 3.09375 L 22.851562 3.09375 L 21.503906 9.832031 C 20.359375 10.144531 19.488281 11.125 19.347656 12.328125 C 18.4375 12.84375 17.855469 13.816406 17.855469 14.882812 C 17.855469 16.507812 19.175781 17.828125 20.800781 17.828125 C 20.917969 17.828125 21.035156 17.804688 21.152344 17.789062 L 21.652344 20.777344 L 27.320312 20.777344 L 27.816406 17.789062 C 27.933594 17.804688 28.050781 17.828125 28.167969 17.828125 C 29.792969 17.828125 31.117188 16.507812 31.117188 14.882812 C 31.117188 13.816406 30.535156 12.84375 29.621094 12.328125 C 29.484375 11.125 28.613281 10.144531 27.46875 9.832031 L 26.121094 3.09375 L 37.597656 3.09375 L 36.25 9.832031 C 35.105469 10.144531 34.238281 11.125 34.097656 12.328125 C 33.1875 12.84375 32.601562 13.816406 32.601562 14.882812 C 32.601562 16.507812 33.925781 17.828125 35.550781 17.828125 C 35.667969 17.828125 35.785156 17.804688 35.902344 17.789062 L 36.398438 20.777344 L 42.066406 20.777344 L 42.566406 17.789062 C 42.683594 17.804688 42.800781 17.828125 42.917969 17.828125 C 44.542969 17.828125 45.867188 16.507812 45.867188 14.882812 C 45.867188 13.816406 45.28125 12.84375 44.371094 12.328125 C 44.230469 11.125 43.359375 10.144531 42.21875 9.832031 L 40.871094 3.09375 L 47.339844 3.09375 L 47.339844 1.621094 Z M 11.320312 19.304688 L 8.148438 19.304688 L 7.65625 16.355469 L 11.8125 16.355469 Z M 13.417969 12.648438 L 13.371094 13.316406 L 13.902344 13.5 C 14.496094 13.707031 14.894531 14.261719 14.894531 14.882812 C 14.894531 15.730469 14.140625 16.398438 13.3125 16.335938 L 13.550781 14.882812 L 5.917969 14.882812 L 6.160156 16.335938 C 5.332031 16.398438 4.578125 15.730469 4.578125 14.882812 C 4.578125 14.261719 4.976562 13.707031 5.570312 13.5 L 6.097656 13.316406 L 6.0625 12.753906 L 6.050781 12.671875 C 6.050781 11.859375 6.710938 11.199219 7.5 11.199219 L 8.167969 11.246094 L 8.351562 10.71875 C 8.558594 10.125 9.113281 9.726562 9.734375 9.726562 C 10.355469 9.726562 10.914062 10.125 11.117188 10.71875 L 11.304688 11.246094 L 11.863281 11.210938 L 11.945312 11.199219 C 12.757812 11.199219 13.417969 11.859375 13.417969 12.648438 Z M 10.953125 8.523438 C 10.578125 8.351562 10.164062 8.25 9.734375 8.25 C 9.304688 8.25 8.890625 8.351562 8.515625 8.523438 L 9.601562 3.09375 L 9.867188 3.09375 Z M 26.070312 19.304688 L 22.898438 19.304688 L 22.40625 16.355469 L 26.5625 16.355469 Z M 28.167969 12.644531 L 28.121094 13.316406 L 28.648438 13.5 C 29.242188 13.707031 29.644531 14.261719 29.644531 14.882812 C 29.644531 15.730469 28.890625 16.398438 28.058594 16.335938 L 28.300781 14.882812 L 20.667969 14.882812 L 20.910156 16.335938 C 20.078125 16.398438 19.328125 15.730469 19.328125 14.882812 C 19.328125 14.261719 19.726562 13.707031 20.320312 13.5 L 20.847656 13.316406 L 20.8125 12.757812 L 20.800781 12.671875 C 20.800781 11.859375 21.460938 11.199219 22.246094 11.199219 L 22.917969 11.246094 L 23.101562 10.71875 C 23.308594 10.125 23.863281 9.726562 24.484375 9.726562 C 25.105469 9.726562 25.660156 10.125 25.867188 10.71875 L 26.050781 11.246094 L 26.609375 11.210938 L 26.695312 11.199219 C 27.507812 11.199219 28.167969 11.859375 28.167969 12.644531 Z M 25.703125 8.523438 C 25.328125 8.351562 24.914062 8.25 24.484375 8.25 C 24.054688 8.25 23.640625 8.351562 23.265625 8.523438 L 24.351562 3.09375 L 24.617188 3.09375 Z M 40.820312 19.304688 L 37.648438 19.304688 L 37.15625 16.355469 L 41.3125 16.355469 Z M 42.917969 12.644531 L 42.878906 13.316406 L 43.398438 13.5 C 43.992188 13.707031 44.390625 14.261719 44.390625 14.882812 C 44.390625 15.730469 43.636719 16.398438 42.808594 16.335938 L 43.050781 14.882812 L 35.417969 14.882812 L 35.660156 16.335938 C 34.832031 16.398438 34.078125 15.730469 34.078125 14.882812 C 34.078125 14.261719 34.476562 13.707031 35.070312 13.5 L 35.589844 13.316406 L 35.5625 12.769531 C 35.558594 12.726562 35.554688 12.683594 35.550781 12.671875 C 35.550781 11.859375 36.210938 11.199219 37 11.199219 L 37.667969 11.246094 L 37.851562 10.71875 C 38.058594 10.125 38.613281 9.726562 39.234375 9.726562 C 39.855469 9.726562 40.410156 10.125 40.617188 10.71875 L 40.800781 11.246094 L 41.363281 11.210938 L 41.445312 11.199219 C 42.257812 11.199219 42.917969 11.859375 42.917969 12.644531 Z M 40.453125 8.523438 C 40.078125 8.351562 39.664062 8.25 39.234375 8.25 C 38.804688 8.25 38.390625 8.351562 38.015625 8.523438 L 39.101562 3.09375 L 39.367188 3.09375 Z M 40.453125 8.523438 " fill-opacity="1" fill-rule="nonzero"/></g></svg>