<svg xmlns="http://www.w3.org/2000/svg" xmlns:xlink="http://www.w3.org/1999/xlink" width="66" zoomAndPan="magnify" viewBox="0 0 49.5 49.499998" height="66" preserveAspectRatio="xMidYMid meet" version="1.0"><defs><clipPath id="6cbb388942"><path d="M 4 2.527344 L 45 2.527344 L 45 46.332031 L 4 46.332031 Z M 4 2.527344 " clip-rule="nonzero"/></clipPath></defs><g clip-path="url(#6cbb388942)"><path fill="#bbab99" d="M 40.308594 31.535156 C 41.078125 31.164062 41.769531 30.679688 42.382812 30.085938 C 42.996094 29.488281 43.496094 28.808594 43.882812 28.046875 C 44.273438 27.289062 44.53125 26.484375 44.65625 25.640625 C 44.78125 24.792969 44.769531 23.949219 44.617188 23.109375 C 44.464844 22.269531 44.183594 21.472656 43.769531 20.726562 C 43.355469 19.976562 42.835938 19.3125 42.207031 18.738281 C 41.574219 18.160156 40.867188 17.699219 40.085938 17.351562 C 39.304688 17.007812 38.488281 16.796875 37.636719 16.71875 C 38.300781 16.234375 38.875 15.65625 39.355469 14.988281 C 39.839844 14.320312 40.207031 13.59375 40.457031 12.8125 C 40.710938 12.027344 40.835938 11.222656 40.832031 10.398438 C 40.828125 9.578125 40.699219 8.773438 40.445312 7.992188 C 40.1875 7.207031 39.816406 6.484375 39.332031 5.820312 C 38.847656 5.152344 38.269531 4.582031 37.601562 4.097656 C 36.9375 3.613281 36.210938 3.246094 35.425781 2.992188 C 34.644531 2.738281 33.839844 2.613281 33.015625 2.613281 L 30.671875 2.613281 C 30.113281 2.613281 29.566406 2.699219 29.03125 2.867188 C 28.5 3.03125 28.003906 3.277344 27.542969 3.59375 C 27.085938 3.914062 26.6875 4.296875 26.34375 4.738281 C 26 5.179688 25.734375 5.664062 25.539062 6.1875 C 25.347656 6.710938 25.234375 7.253906 25.207031 7.8125 C 25.179688 8.371094 25.234375 8.917969 25.375 9.460938 C 25.515625 10 25.734375 10.507812 26.03125 10.984375 C 26.328125 11.457031 26.6875 11.875 27.113281 12.238281 C 26.535156 12.484375 26.070312 12.867188 25.722656 13.390625 C 25.375 13.914062 25.203125 14.492188 25.199219 15.121094 C 25.203125 15.679688 25.347656 16.203125 25.636719 16.683594 L 20.492188 16.683594 C 21.148438 16.195312 21.71875 15.613281 22.191406 14.945312 C 22.667969 14.277344 23.03125 13.550781 23.277344 12.765625 C 23.523438 11.984375 23.644531 11.183594 23.636719 10.363281 C 23.632812 9.539062 23.5 8.742188 23.238281 7.960938 C 22.980469 7.183594 22.609375 6.460938 22.125 5.800781 C 21.636719 5.140625 21.0625 4.570312 20.394531 4.089844 C 19.730469 3.609375 19.007812 3.242188 18.226562 2.992188 C 17.445312 2.738281 16.640625 2.613281 15.820312 2.613281 L 13.476562 2.613281 C 12.917969 2.613281 12.371094 2.699219 11.839844 2.867188 C 11.304688 3.03125 10.808594 3.277344 10.351562 3.59375 C 9.890625 3.914062 9.492188 4.296875 9.148438 4.738281 C 8.808594 5.179688 8.539062 5.664062 8.34375 6.1875 C 8.152344 6.710938 8.039062 7.253906 8.011719 7.8125 C 7.984375 8.371094 8.042969 8.917969 8.183594 9.460938 C 8.324219 10 8.542969 10.507812 8.835938 10.984375 C 9.132812 11.457031 9.496094 11.875 9.917969 12.238281 C 9.339844 12.484375 8.875 12.867188 8.527344 13.390625 C 8.179688 13.914062 8.007812 14.492188 8.003906 15.121094 C 8.007812 15.726562 8.171875 16.28125 8.5 16.789062 C 7.996094 16.890625 7.515625 17.058594 7.058594 17.292969 C 6.605469 17.527344 6.1875 17.820312 5.816406 18.171875 C 5.441406 18.527344 5.125 18.921875 4.863281 19.363281 C 4.601562 19.804688 4.40625 20.273438 4.277344 20.769531 C 4.144531 21.265625 4.085938 21.769531 4.097656 22.285156 C 4.113281 22.796875 4.195312 23.296875 4.347656 23.789062 C 4.5 24.277344 4.71875 24.738281 5.003906 25.164062 C 5.285156 25.59375 5.621094 25.972656 6.011719 26.308594 C 5.429688 26.550781 4.96875 26.9375 4.617188 27.460938 C 4.269531 27.984375 4.097656 28.5625 4.097656 29.191406 C 4.097656 29.820312 4.273438 30.398438 4.621094 30.921875 C 4.96875 31.445312 5.433594 31.828125 6.015625 32.070312 C 5.714844 32.328125 5.445312 32.613281 5.207031 32.925781 C 4.96875 33.242188 4.765625 33.578125 4.601562 33.9375 C 4.4375 34.292969 4.308594 34.667969 4.226562 35.050781 C 4.140625 35.4375 4.097656 35.828125 4.097656 36.222656 C 4.097656 36.617188 4.140625 37.007812 4.222656 37.394531 C 4.308594 37.777344 4.433594 38.152344 4.597656 38.507812 C 4.765625 38.867188 4.964844 39.203125 5.203125 39.519531 C 5.441406 39.832031 5.710938 40.121094 6.011719 40.375 C 5.679688 40.515625 5.378906 40.707031 5.113281 40.953125 C 4.847656 41.195312 4.628906 41.476562 4.460938 41.796875 C 4.292969 42.113281 4.183594 42.453125 4.128906 42.808594 C 4.078125 43.167969 4.089844 43.523438 4.160156 43.875 C 4.230469 44.230469 4.359375 44.5625 4.546875 44.871094 C 4.730469 45.179688 4.964844 45.449219 5.246094 45.675781 C 5.523438 45.90625 5.832031 46.082031 6.171875 46.203125 C 6.511719 46.324219 6.863281 46.382812 7.222656 46.382812 L 36.925781 46.382812 C 37.363281 46.382812 37.800781 46.347656 38.234375 46.273438 C 38.667969 46.199219 39.089844 46.089844 39.507812 45.945312 C 39.921875 45.800781 40.320312 45.625 40.707031 45.410156 C 41.089844 45.199219 41.453125 44.953125 41.796875 44.679688 C 42.140625 44.40625 42.460938 44.105469 42.753906 43.777344 C 43.046875 43.449219 43.308594 43.101562 43.542969 42.730469 C 43.777344 42.355469 43.976562 41.96875 44.144531 41.5625 C 44.3125 41.15625 44.445312 40.738281 44.542969 40.308594 C 44.640625 39.882812 44.703125 39.449219 44.726562 39.007812 C 44.753906 38.570312 44.738281 38.132812 44.691406 37.695312 C 44.640625 37.257812 44.554688 36.828125 44.433594 36.40625 C 44.3125 35.984375 44.15625 35.574219 43.964844 35.179688 C 43.773438 34.785156 43.550781 34.40625 43.292969 34.046875 C 43.039062 33.691406 42.757812 33.355469 42.445312 33.046875 C 42.136719 32.734375 41.800781 32.453125 41.441406 32.199219 C 41.082031 31.945312 40.703125 31.722656 40.308594 31.535156 Z M 26.765625 15.121094 C 26.765625 14.914062 26.804688 14.714844 26.882812 14.523438 C 26.960938 14.332031 27.074219 14.160156 27.222656 14.015625 C 27.367188 13.867188 27.539062 13.757812 27.730469 13.675781 C 27.921875 13.597656 28.121094 13.558594 28.328125 13.558594 L 33.015625 13.558594 C 33.429688 13.558594 33.828125 13.476562 34.210938 13.320312 C 34.597656 13.160156 34.933594 12.933594 35.226562 12.640625 C 35.519531 12.347656 35.746094 12.011719 35.90625 11.628906 C 36.0625 11.246094 36.144531 10.84375 36.144531 10.429688 C 36.144531 10.015625 36.0625 9.617188 35.90625 9.234375 C 35.746094 8.851562 35.519531 8.511719 35.226562 8.21875 C 34.933594 7.925781 34.597656 7.699219 34.210938 7.542969 C 33.828125 7.382812 33.429688 7.304688 33.015625 7.304688 L 30.671875 7.304688 C 30.457031 7.304688 30.273438 7.378906 30.117188 7.535156 C 29.964844 7.6875 29.890625 7.871094 29.890625 8.085938 C 29.890625 8.300781 29.964844 8.484375 30.117188 8.640625 C 30.273438 8.792969 30.457031 8.867188 30.671875 8.867188 L 33.015625 8.867188 C 33.222656 8.867188 33.421875 8.90625 33.613281 8.988281 C 33.804688 9.066406 33.976562 9.179688 34.121094 9.324219 C 34.269531 9.472656 34.382812 9.640625 34.460938 9.832031 C 34.539062 10.023438 34.578125 10.222656 34.578125 10.429688 C 34.578125 10.636719 34.539062 10.835938 34.460938 11.027344 C 34.382812 11.21875 34.269531 11.390625 34.121094 11.535156 C 33.976562 11.683594 33.804688 11.796875 33.613281 11.875 C 33.421875 11.953125 33.222656 11.992188 33.015625 11.992188 L 30.671875 11.992188 C 30.152344 11.992188 29.65625 11.894531 29.175781 11.695312 C 28.699219 11.5 28.273438 11.214844 27.910156 10.847656 C 27.542969 10.484375 27.257812 10.058594 27.0625 9.582031 C 26.863281 9.101562 26.765625 8.605469 26.765625 8.085938 C 26.765625 7.566406 26.863281 7.070312 27.0625 6.589844 C 27.257812 6.113281 27.542969 5.6875 27.910156 5.324219 C 28.273438 4.957031 28.699219 4.675781 29.175781 4.476562 C 29.65625 4.277344 30.152344 4.179688 30.671875 4.179688 L 33.015625 4.179688 C 33.425781 4.179688 33.832031 4.21875 34.234375 4.296875 C 34.640625 4.378906 35.03125 4.496094 35.410156 4.652344 C 35.789062 4.8125 36.148438 5.003906 36.488281 5.230469 C 36.832031 5.460938 37.148438 5.71875 37.4375 6.007812 C 37.726562 6.300781 37.988281 6.617188 38.214844 6.957031 C 38.441406 7.296875 38.636719 7.660156 38.792969 8.039062 C 38.949219 8.417969 39.070312 8.808594 39.148438 9.210938 C 39.230469 9.613281 39.269531 10.019531 39.269531 10.429688 C 39.269531 10.839844 39.230469 11.246094 39.148438 11.652344 C 39.070312 12.054688 38.949219 12.445312 38.792969 12.824219 C 38.636719 13.203125 38.441406 13.5625 38.214844 13.90625 C 37.988281 14.246094 37.726562 14.5625 37.4375 14.851562 C 37.148438 15.140625 36.832031 15.402344 36.488281 15.628906 C 36.148438 15.859375 35.789062 16.050781 35.410156 16.207031 C 35.03125 16.363281 34.640625 16.484375 34.234375 16.5625 C 33.832031 16.644531 33.425781 16.683594 33.015625 16.683594 L 28.328125 16.683594 C 28.121094 16.683594 27.921875 16.644531 27.730469 16.5625 C 27.539062 16.484375 27.367188 16.371094 27.222656 16.226562 C 27.074219 16.078125 26.960938 15.910156 26.882812 15.71875 C 26.804688 15.527344 26.765625 15.328125 26.765625 15.121094 Z M 11.132812 13.558594 L 15.820312 13.558594 C 16.234375 13.558594 16.636719 13.476562 17.019531 13.320312 C 17.402344 13.160156 17.738281 12.933594 18.03125 12.640625 C 18.324219 12.347656 18.550781 12.011719 18.710938 11.628906 C 18.867188 11.246094 18.949219 10.84375 18.949219 10.429688 C 18.949219 10.015625 18.867188 9.617188 18.710938 9.234375 C 18.550781 8.851562 18.324219 8.511719 18.03125 8.21875 C 17.738281 7.925781 17.402344 7.699219 17.019531 7.542969 C 16.636719 7.382812 16.234375 7.304688 15.820312 7.304688 L 13.476562 7.304688 C 13.261719 7.304688 13.078125 7.378906 12.925781 7.535156 C 12.773438 7.6875 12.695312 7.871094 12.695312 8.085938 C 12.695312 8.300781 12.773438 8.484375 12.925781 8.640625 C 13.078125 8.792969 13.261719 8.867188 13.476562 8.867188 L 15.820312 8.867188 C 16.027344 8.867188 16.226562 8.90625 16.417969 8.988281 C 16.609375 9.066406 16.78125 9.179688 16.925781 9.324219 C 17.074219 9.472656 17.1875 9.640625 17.265625 9.832031 C 17.34375 10.023438 17.386719 10.222656 17.386719 10.429688 C 17.386719 10.636719 17.34375 10.835938 17.265625 11.027344 C 17.1875 11.21875 17.074219 11.390625 16.925781 11.535156 C 16.78125 11.683594 16.609375 11.796875 16.417969 11.875 C 16.226562 11.953125 16.027344 11.992188 15.820312 11.992188 L 13.476562 11.992188 C 12.957031 11.992188 12.460938 11.894531 11.980469 11.695312 C 11.503906 11.5 11.078125 11.214844 10.714844 10.847656 C 10.347656 10.484375 10.066406 10.058594 9.867188 9.582031 C 9.667969 9.101562 9.570312 8.605469 9.570312 8.085938 C 9.570312 7.566406 9.667969 7.070312 9.867188 6.589844 C 10.066406 6.113281 10.347656 5.6875 10.714844 5.324219 C 11.078125 4.957031 11.503906 4.675781 11.980469 4.476562 C 12.460938 4.277344 12.957031 4.179688 13.476562 4.179688 L 15.820312 4.179688 C 16.230469 4.179688 16.640625 4.21875 17.042969 4.296875 C 17.445312 4.378906 17.835938 4.496094 18.214844 4.652344 C 18.59375 4.8125 18.953125 5.003906 19.296875 5.230469 C 19.636719 5.460938 19.953125 5.71875 20.242188 6.007812 C 20.53125 6.300781 20.792969 6.617188 21.019531 6.957031 C 21.25 7.296875 21.441406 7.660156 21.597656 8.039062 C 21.753906 8.417969 21.875 8.808594 21.953125 9.210938 C 22.035156 9.613281 22.074219 10.019531 22.074219 10.429688 C 22.074219 10.839844 22.035156 11.246094 21.953125 11.652344 C 21.875 12.054688 21.753906 12.445312 21.597656 12.824219 C 21.441406 13.203125 21.25 13.5625 21.019531 13.90625 C 20.792969 14.246094 20.53125 14.5625 20.242188 14.851562 C 19.953125 15.140625 19.636719 15.402344 19.296875 15.628906 C 18.953125 15.859375 18.59375 16.050781 18.214844 16.207031 C 17.835938 16.363281 17.445312 16.484375 17.042969 16.5625 C 16.640625 16.644531 16.230469 16.683594 15.820312 16.683594 L 11.132812 16.683594 C 10.925781 16.683594 10.726562 16.644531 10.535156 16.566406 C 10.34375 16.484375 10.171875 16.371094 10.027344 16.226562 C 9.878906 16.078125 9.765625 15.910156 9.6875 15.71875 C 9.609375 15.527344 9.570312 15.328125 9.570312 15.121094 C 9.570312 14.914062 9.609375 14.714844 9.6875 14.523438 C 9.765625 14.332031 9.878906 14.160156 10.027344 14.015625 C 10.171875 13.867188 10.34375 13.753906 10.535156 13.675781 C 10.726562 13.597656 10.925781 13.558594 11.132812 13.558594 Z M 7.222656 30.75 C 7.015625 30.75 6.816406 30.710938 6.625 30.632812 C 6.433594 30.554688 6.265625 30.441406 6.117188 30.292969 C 5.972656 30.148438 5.859375 29.976562 5.78125 29.785156 C 5.699219 29.59375 5.660156 29.394531 5.660156 29.1875 C 5.660156 28.980469 5.699219 28.78125 5.78125 28.589844 C 5.859375 28.398438 5.972656 28.230469 6.117188 28.082031 C 6.265625 27.9375 6.433594 27.824219 6.625 27.746094 C 6.816406 27.664062 7.015625 27.625 7.222656 27.625 L 36.925781 27.625 C 37.339844 27.625 37.738281 27.546875 38.121094 27.386719 C 38.503906 27.230469 38.839844 27.003906 39.136719 26.710938 C 39.429688 26.417969 39.652344 26.078125 39.8125 25.695312 C 39.972656 25.3125 40.050781 24.914062 40.050781 24.5 C 40.050781 24.085938 39.972656 23.6875 39.8125 23.304688 C 39.652344 22.917969 39.429688 22.582031 39.136719 22.289062 C 38.839844 21.996094 38.503906 21.769531 38.121094 21.609375 C 37.738281 21.453125 37.339844 21.371094 36.925781 21.371094 L 9.570312 21.371094 C 9.351562 21.371094 9.167969 21.449219 9.015625 21.601562 C 8.863281 21.753906 8.789062 21.9375 8.789062 22.15625 C 8.789062 22.371094 8.863281 22.554688 9.015625 22.707031 C 9.167969 22.859375 9.351562 22.9375 9.570312 22.9375 L 36.925781 22.9375 C 37.132812 22.9375 37.332031 22.976562 37.523438 23.054688 C 37.714844 23.132812 37.882812 23.246094 38.03125 23.394531 C 38.175781 23.539062 38.289062 23.710938 38.367188 23.902344 C 38.449219 24.09375 38.488281 24.292969 38.488281 24.5 C 38.488281 24.707031 38.449219 24.90625 38.367188 25.097656 C 38.289062 25.289062 38.175781 25.457031 38.03125 25.605469 C 37.882812 25.75 37.714844 25.863281 37.523438 25.945312 C 37.332031 26.023438 37.132812 26.0625 36.925781 26.0625 L 9.570312 26.0625 C 9.050781 26.0625 8.550781 25.964844 8.074219 25.765625 C 7.59375 25.566406 7.171875 25.285156 6.804688 24.917969 C 6.4375 24.550781 6.15625 24.128906 5.957031 23.648438 C 5.761719 23.171875 5.660156 22.671875 5.660156 22.15625 C 5.660156 21.636719 5.761719 21.136719 5.957031 20.660156 C 6.15625 20.179688 6.4375 19.757812 6.804688 19.390625 C 7.171875 19.023438 7.59375 18.742188 8.074219 18.542969 C 8.550781 18.347656 9.050781 18.246094 9.570312 18.246094 L 36.925781 18.246094 C 37.335938 18.246094 37.742188 18.285156 38.144531 18.367188 C 38.546875 18.445312 38.9375 18.566406 39.316406 18.722656 C 39.695312 18.878906 40.058594 19.074219 40.398438 19.300781 C 40.738281 19.527344 41.054688 19.789062 41.34375 20.078125 C 41.636719 20.367188 41.894531 20.683594 42.125 21.027344 C 42.351562 21.367188 42.542969 21.726562 42.699219 22.105469 C 42.859375 22.484375 42.976562 22.875 43.058594 23.28125 C 43.136719 23.683594 43.175781 24.089844 43.175781 24.5 C 43.175781 24.910156 43.136719 25.316406 43.058594 25.71875 C 42.976562 26.121094 42.859375 26.511719 42.699219 26.890625 C 42.542969 27.269531 42.351562 27.632812 42.125 27.972656 C 41.894531 28.3125 41.636719 28.628906 41.34375 28.921875 C 41.054688 29.210938 40.738281 29.46875 40.398438 29.699219 C 40.058594 29.925781 39.695312 30.117188 39.316406 30.277344 C 38.9375 30.433594 38.546875 30.550781 38.144531 30.632812 C 37.742188 30.710938 37.335938 30.75 36.925781 30.75 Z M 36.925781 44.820312 L 7.222656 44.820312 C 7.015625 44.820312 6.816406 44.78125 6.625 44.703125 C 6.433594 44.621094 6.265625 44.507812 6.117188 44.363281 C 5.972656 44.214844 5.859375 44.046875 5.78125 43.855469 C 5.699219 43.664062 5.660156 43.464844 5.660156 43.257812 C 5.660156 43.050781 5.699219 42.851562 5.78125 42.660156 C 5.859375 42.46875 5.972656 42.296875 6.117188 42.152344 C 6.265625 42.003906 6.433594 41.890625 6.625 41.8125 C 6.816406 41.734375 7.015625 41.695312 7.222656 41.695312 L 36.925781 41.695312 C 37.339844 41.695312 37.738281 41.613281 38.121094 41.457031 C 38.503906 41.296875 38.839844 41.070312 39.136719 40.777344 C 39.429688 40.484375 39.652344 40.148438 39.8125 39.765625 C 39.972656 39.382812 40.050781 38.980469 40.050781 38.566406 C 40.050781 38.152344 39.972656 37.753906 39.8125 37.371094 C 39.652344 36.988281 39.429688 36.648438 39.136719 36.355469 C 38.839844 36.0625 38.503906 35.839844 38.121094 35.679688 C 37.738281 35.519531 37.339844 35.441406 36.925781 35.441406 L 9.570312 35.441406 C 9.351562 35.441406 9.167969 35.519531 9.015625 35.671875 C 8.863281 35.824219 8.789062 36.007812 8.789062 36.222656 C 8.789062 36.4375 8.863281 36.621094 9.015625 36.777344 C 9.167969 36.929688 9.351562 37.003906 9.570312 37.003906 L 36.925781 37.003906 C 37.132812 37.003906 37.332031 37.042969 37.523438 37.125 C 37.714844 37.203125 37.882812 37.316406 38.03125 37.460938 C 38.175781 37.609375 38.289062 37.777344 38.367188 37.96875 C 38.449219 38.160156 38.488281 38.359375 38.488281 38.566406 C 38.488281 38.773438 38.449219 38.972656 38.367188 39.164062 C 38.289062 39.355469 38.175781 39.527344 38.03125 39.671875 C 37.882812 39.820312 37.714844 39.933594 37.523438 40.011719 C 37.332031 40.089844 37.132812 40.128906 36.925781 40.128906 L 9.570312 40.128906 C 9.050781 40.128906 8.550781 40.03125 8.074219 39.832031 C 7.59375 39.636719 7.171875 39.351562 6.804688 38.984375 C 6.4375 38.621094 6.15625 38.195312 5.957031 37.71875 C 5.761719 37.238281 5.660156 36.742188 5.660156 36.222656 C 5.660156 35.703125 5.761719 35.207031 5.957031 34.726562 C 6.15625 34.25 6.4375 33.824219 6.804688 33.460938 C 7.171875 33.09375 7.59375 32.8125 8.074219 32.613281 C 8.550781 32.414062 9.050781 32.316406 9.570312 32.316406 L 36.925781 32.316406 C 37.335938 32.316406 37.742188 32.355469 38.144531 32.433594 C 38.546875 32.515625 38.9375 32.632812 39.316406 32.789062 C 39.695312 32.949219 40.058594 33.140625 40.398438 33.367188 C 40.738281 33.597656 41.054688 33.855469 41.34375 34.144531 C 41.636719 34.4375 41.894531 34.753906 42.125 35.09375 C 42.351562 35.433594 42.542969 35.796875 42.699219 36.175781 C 42.859375 36.554688 42.976562 36.945312 43.058594 37.347656 C 43.136719 37.75 43.175781 38.15625 43.175781 38.566406 C 43.175781 38.976562 43.136719 39.386719 43.058594 39.789062 C 42.976562 40.191406 42.859375 40.582031 42.699219 40.960938 C 42.542969 41.339844 42.351562 41.699219 42.125 42.042969 C 41.894531 42.382812 41.636719 42.699219 41.34375 42.988281 C 41.054688 43.277344 40.738281 43.539062 40.398438 43.765625 C 40.058594 43.996094 39.695312 44.1875 39.316406 44.34375 C 38.9375 44.5 38.546875 44.621094 38.144531 44.699219 C 37.742188 44.78125 37.335938 44.820312 36.925781 44.820312 Z M 36.925781 44.820312 " fill-opacity="1" fill-rule="nonzero"/></g></svg>