<svg xmlns="http://www.w3.org/2000/svg" xmlns:xlink="http://www.w3.org/1999/xlink" width="66" zoomAndPan="magnify" viewBox="0 0 49.5 49.499998" height="66" preserveAspectRatio="xMidYMid meet" version="1.0"><defs><clipPath id="10032acc25"><path d="M 2.21875 9.042969 L 46.769531 9.042969 L 46.769531 40 L 2.21875 40 Z M 2.21875 9.042969 " clip-rule="nonzero"/></clipPath></defs><g clip-path="url(#10032acc25)"><path fill="#bbab99" d="M 45.136719 9.085938 L 3.863281 9.085938 C 3.648438 9.085938 3.4375 9.128906 3.238281 9.210938 C 3.035156 9.296875 2.859375 9.414062 2.703125 9.570312 C 2.550781 9.722656 2.429688 9.898438 2.347656 10.101562 C 2.261719 10.300781 2.222656 10.511719 2.21875 10.730469 L 2.21875 33.476562 C 2.222656 33.691406 2.261719 33.902344 2.347656 34.101562 C 2.429688 34.304688 2.550781 34.480469 2.703125 34.636719 C 2.859375 34.789062 3.035156 34.90625 3.238281 34.992188 C 3.4375 35.074219 3.648438 35.117188 3.863281 35.117188 L 21.019531 35.117188 L 21.019531 36.371094 L 14.347656 36.511719 C 14.109375 36.515625 13.878906 36.566406 13.664062 36.660156 C 13.445312 36.757812 13.253906 36.886719 13.085938 37.058594 C 12.917969 37.226562 12.789062 37.421875 12.699219 37.640625 C 12.609375 37.863281 12.5625 38.089844 12.5625 38.328125 L 12.5625 39.207031 C 12.5625 39.402344 12.632812 39.566406 12.769531 39.703125 C 12.90625 39.84375 13.070312 39.910156 13.265625 39.910156 L 35.734375 39.910156 C 35.929688 39.910156 36.09375 39.84375 36.230469 39.703125 C 36.367188 39.566406 36.4375 39.402344 36.4375 39.207031 L 36.4375 38.328125 C 36.433594 38.089844 36.390625 37.863281 36.300781 37.640625 C 36.207031 37.421875 36.082031 37.226562 35.914062 37.058594 C 35.746094 36.886719 35.554688 36.757812 35.335938 36.660156 C 35.121094 36.566406 34.890625 36.515625 34.652344 36.511719 L 27.980469 36.371094 L 27.980469 35.117188 L 45.136719 35.117188 C 45.355469 35.117188 45.566406 35.074219 45.765625 34.992188 C 45.96875 34.90625 46.144531 34.789062 46.300781 34.636719 C 46.453125 34.480469 46.570312 34.304688 46.65625 34.101562 C 46.738281 33.902344 46.78125 33.691406 46.78125 33.476562 L 46.78125 10.730469 C 46.78125 10.511719 46.738281 10.300781 46.65625 10.101562 C 46.570312 9.898438 46.453125 9.722656 46.300781 9.570312 C 46.144531 9.414062 45.96875 9.296875 45.765625 9.210938 C 45.566406 9.128906 45.355469 9.085938 45.136719 9.085938 Z M 3.863281 10.492188 L 45.136719 10.492188 C 45.296875 10.492188 45.375 10.570312 45.375 10.730469 L 45.375 30.632812 L 3.628906 30.632812 L 3.628906 10.730469 C 3.628906 10.570312 3.707031 10.492188 3.863281 10.492188 Z M 27.265625 37.761719 L 34.628906 37.910156 C 34.738281 37.914062 34.835938 37.953125 34.914062 38.035156 C 34.992188 38.113281 35.03125 38.210938 35.03125 38.320312 L 35.03125 38.496094 L 13.972656 38.496094 L 13.972656 38.320312 C 13.972656 38.210938 14.011719 38.113281 14.089844 38.035156 C 14.167969 37.953125 14.261719 37.914062 14.375 37.910156 L 21.738281 37.761719 C 21.929688 37.757812 22.09375 37.6875 22.226562 37.550781 C 22.359375 37.414062 22.425781 37.25 22.425781 37.058594 L 22.425781 35.117188 L 26.582031 35.117188 L 26.582031 37.058594 C 26.582031 37.25 26.648438 37.414062 26.78125 37.550781 C 26.914062 37.6875 27.074219 37.757812 27.265625 37.761719 Z M 45.136719 33.710938 L 3.863281 33.710938 C 3.707031 33.710938 3.628906 33.632812 3.628906 33.476562 L 3.628906 32.039062 L 45.375 32.039062 L 45.375 33.476562 C 45.375 33.632812 45.296875 33.710938 45.136719 33.710938 Z M 45.136719 33.710938 " fill-opacity="1" fill-rule="nonzero"/></g></svg>