<svg xmlns="http://www.w3.org/2000/svg" xmlns:xlink="http://www.w3.org/1999/xlink" width="66" zoomAndPan="magnify" viewBox="0 0 49.5 49.499998" height="66" preserveAspectRatio="xMidYMid meet" version="1.0"><defs><clipPath id="eb377a48ae"><path d="M 1.3125 8.972656 L 47.347656 8.972656 L 47.347656 23 L 1.3125 23 Z M 1.3125 8.972656 " clip-rule="nonzero"/></clipPath></defs><g clip-path="url(#eb377a48ae)"><path fill="#bbab99" d="M 46.683594 18.171875 C 43.6875 15.175781 40.195312 12.855469 36.300781 11.273438 C 32.542969 9.75 28.570312 8.976562 24.5 8.976562 C 20.425781 8.976562 16.457031 9.75 12.699219 11.273438 C 8.804688 12.855469 5.3125 15.175781 2.316406 18.171875 C 1.316406 19.171875 1.316406 20.796875 2.316406 21.800781 C 3.320312 22.800781 4.945312 22.800781 5.945312 21.800781 C 16.175781 11.570312 32.820312 11.570312 43.050781 21.800781 C 43.554688 22.300781 44.210938 22.550781 44.867188 22.550781 C 45.523438 22.550781 46.179688 22.300781 46.683594 21.800781 C 47.683594 20.796875 47.683594 19.171875 46.683594 18.171875 Z M 46.683594 18.171875 " fill-opacity="1" fill-rule="nonzero"/></g><path fill="#bbab99" d="M 24.492188 18.316406 C 18.550781 18.316406 12.964844 20.632812 8.757812 24.839844 C 7.808594 25.789062 7.808594 27.324219 8.757812 28.269531 C 9.703125 29.21875 11.242188 29.21875 12.1875 28.269531 C 18.972656 21.484375 30.011719 21.484375 36.796875 28.269531 C 37.269531 28.746094 37.890625 28.980469 38.511719 28.980469 C 39.132812 28.980469 39.753906 28.746094 40.226562 28.269531 C 41.175781 27.324219 41.175781 25.789062 40.226562 24.839844 C 36.023438 20.632812 30.433594 18.316406 24.492188 18.316406 Z M 24.492188 18.316406 " fill-opacity="1" fill-rule="nonzero"/><path fill="#bbab99" d="M 24.492188 27.074219 C 20.882812 27.074219 17.484375 28.480469 14.925781 31.039062 C 13.984375 31.980469 13.984375 33.511719 14.925781 34.453125 C 15.867188 35.394531 17.398438 35.394531 18.339844 34.453125 C 21.734375 31.058594 27.253906 31.058594 30.648438 34.453125 C 31.117188 34.925781 31.734375 35.160156 32.355469 35.160156 C 32.972656 35.160156 33.589844 34.925781 34.0625 34.453125 C 35.003906 33.511719 35.003906 31.980469 34.0625 31.039062 C 31.503906 28.480469 28.105469 27.074219 24.492188 27.074219 Z M 24.492188 27.074219 " fill-opacity="1" fill-rule="nonzero"/><path fill="#bbab99" d="M 27.429688 39.785156 C 27.429688 40.179688 27.355469 40.558594 27.203125 40.921875 C 27.054688 41.285156 26.839844 41.609375 26.558594 41.886719 C 26.28125 42.164062 25.960938 42.378906 25.597656 42.53125 C 25.234375 42.679688 24.855469 42.757812 24.460938 42.757812 C 24.066406 42.757812 23.6875 42.679688 23.324219 42.53125 C 22.960938 42.378906 22.636719 42.164062 22.359375 41.886719 C 22.082031 41.609375 21.867188 41.285156 21.714844 40.921875 C 21.566406 40.558594 21.488281 40.179688 21.488281 39.785156 C 21.488281 39.390625 21.566406 39.011719 21.714844 38.648438 C 21.867188 38.285156 22.082031 37.964844 22.359375 37.683594 C 22.636719 37.40625 22.960938 37.191406 23.324219 37.042969 C 23.6875 36.890625 24.066406 36.816406 24.460938 36.816406 C 24.855469 36.816406 25.234375 36.890625 25.597656 37.042969 C 25.960938 37.191406 26.28125 37.40625 26.558594 37.683594 C 26.839844 37.964844 27.054688 38.285156 27.203125 38.648438 C 27.355469 39.011719 27.429688 39.390625 27.429688 39.785156 Z M 27.429688 39.785156 " fill-opacity="1" fill-rule="nonzero"/></svg>